<?xml version="1.0" encoding="UTF-8" standalone="no"?>
<svg
   xmlns:dc="http://purl.org/dc/elements/1.1/"
   xmlns:cc="http://creativecommons.org/ns#"
   xmlns:rdf="http://www.w3.org/1999/02/22-rdf-syntax-ns#"
   xmlns:svg="http://www.w3.org/2000/svg"
   xmlns="http://www.w3.org/2000/svg"
   xmlns:sodipodi="http://sodipodi.sourceforge.net/DTD/sodipodi-0.dtd"
   xmlns:inkscape="http://www.inkscape.org/namespaces/inkscape"
   width="2000"
   height="1500"
   version="1.1"
   id="svg148"
   sodipodi:docname="preview1.svg"
   inkscape:version="1.0.1 (3bc2e813f5, 2020-09-07)">
  <metadata
     id="metadata154">
    <rdf:RDF>
      <cc:Work
         rdf:about="">
        <dc:format>image/svg+xml</dc:format>
        <dc:type
           rdf:resource="http://purl.org/dc/dcmitype/StillImage" />
        <dc:title></dc:title>
      </cc:Work>
    </rdf:RDF>
  </metadata>
  <defs
     id="defs152" />
  <sodipodi:namedview
     pagecolor="#ffffff"
     bordercolor="#666666"
     borderopacity="1"
     objecttolerance="10"
     gridtolerance="10"
     guidetolerance="10"
     inkscape:pageopacity="0"
     inkscape:pageshadow="2"
     inkscape:window-width="1366"
     inkscape:window-height="715"
     id="namedview150"
     showgrid="false"
     inkscape:zoom="1.1039267"
     inkscape:cx="380.63958"
     inkscape:cy="275.29491"
     inkscape:window-x="-8"
     inkscape:window-y="-8"
     inkscape:window-maximized="1"
     inkscape:current-layer="svg148" />
  <path
     style="fill:#e2e2e2;stroke:none;stroke-width:0.248175"
     d="M 0,0 V 372.26277 H 496.35036 V 0 Z"
     id="path2" />
  <path
     style="fill:#7f7f7f;stroke:none;stroke-width:0.248175"
     d="m 259.34307,113.16788 h 0.24817 l 24.56934,-24.56934 -8.18978,8.437956 -16.13138,16.131384 v 0.24818 c 15.44394,15.44468 31.91532,30.00934 47.89781,44.89762 3.88146,3.61541 7.68598,7.36261 11.66423,10.87082 1.20861,1.06591 4.14453,2.9977 4.14453,4.7863 0,1.94545 -3.61095,4.43092 -4.88906,5.70803 -5.09007,5.08983 -10.04613,10.2953 -15.13868,15.38686 l -45.16789,45.16789 -12.65693,12.65693 c -1.44711,1.44686 -4.4942,3.50423 -5.168,5.45985 -0.40279,1.16891 1.22698,2.12438 1.94172,2.77212 2.3527,2.12934 4.55253,4.43489 6.94891,6.5146 3.68044,3.19898 7.05562,6.75781 10.67153,10.02876 0.92073,0.83387 2.65796,3.10963 3.9708,3.10963 1.973,0 5.11241,-4.45722 6.45256,-5.79737 l -4.46715,4.71533 -1.98541,1.47416 -1.9854,-1.46423 -4.21898,-3.93854 -17.86861,-16.66993 c -2.37628,1.83402 1.81962,4.35299 3.22628,5.6981 5.07022,4.84935 10.25212,9.59942 15.38686,14.38175 1.47664,1.3749 4.49693,5.55417 6.70073,3.91373 3.52657,-2.62321 6.33095,-6.49971 9.43066,-9.59942 7.73562,-7.73562 15.28262,-15.67226 22.84204,-23.57664 16.46394,-17.21715 34.18861,-33.50911 49.94526,-51.37226 5.74525,-6.5156 12.15065,-12.7165 18.29299,-18.86132 1.57095,-1.57045 6.2962,-4.84884 6.35825,-7.19584 0.0347,-1.2235 -4.13708,-3.4881 -5.11738,-4.46839 -5.12978,-5.13028 -10.50773,-10.01064 -15.63503,-15.13869 -15.05679,-15.05679 -30.82088,-29.40503 -45.91241,-44.4236 -5.06029,-5.03622 -10.31168,-9.875887 -15.38686,-14.891259 -1.36993,-1.353547 -2.9781,-2.68054 -4.13956,-4.217985 -0.51621,-0.681986 -0.57081,-1.778175 -1.35752,-2.225635 -1.9308,-1.097431 -5.23898,3.532277 -6.41533,4.707387 l -15.38686,15.386862 c -1.48657,1.48731 -5.22657,3.80105 -3.47445,5.9562 z"
     id="path4" />
  <path
     style="fill:#232323;stroke:none;stroke-width:0.248175"
     d="m 283.91241,88.59854 -16.62774,16.62774 c -2.33285,2.33235 -6.04555,4.94141 -7.44525,7.9416 2.3924,-1.68486 4.38525,-4.13733 6.45255,-6.20438 l 11.91241,-11.912405 c 1.37737,-1.376131 5.75022,-4.46492 5.70803,-6.452555 z"
     id="path6" />
  <path
     style="fill:#373737;stroke:none;stroke-width:0.248175"
     d="m 192.58394,131.28467 c 4.10532,-1.91467 7.49315,-7.24498 10.67153,-10.42336 6.53768,-6.53817 12.82024,-13.31658 19.35767,-19.85401 2.87064,-2.870643 7.7252,-6.518322 9.43066,-10.175183 h 0.49635 l 3.9708,4.222701 10.17518,9.426932 -3.9708,-4.26117 -6.70073,-6.305135 -3.72263,-3.031956 -2.9781,2.43038 -6.94891,7.197081 -21.8816,22.58394 z"
     id="path8" />
  <path
     style="fill:#232323;stroke:none;stroke-width:0.248175"
     d="m 232.20933,90.914759 0.16528,0.08289 z"
     id="path10" />
  <path
     style="fill:#7b7b7b;stroke:none;stroke-width:0.248175"
     d="m 232.20933,91.162934 0.16528,0.08289 z"
     id="path12" />
  <path
     style="fill:#232323;stroke:none;stroke-width:0.248175"
     d="m 275.9708,93.810219 h 0.24818 l 1.24087,-1.240876 c -1.23343,-1.459766 -2.53635,-0.281679 -1.48905,1.240876 z"
     id="path14" />
  <path
     style="fill:#373737;stroke:none;stroke-width:0.248175"
     d="m 277.21168,92.569343 0.24817,0.248175 -0.24817,-0.248175 m -0.24818,0.248175 0.24818,0.248175 -0.24818,-0.248175 m -0.24817,0.248175 0.24817,0.248176 -0.24817,-0.248176 m -0.24818,0.248176 0.24818,0.248175 z"
     id="path16" />
  <path
     style="fill:#7b7b7b;stroke:none;stroke-width:0.248175"
     d="m 235.51825,93.562044 0.24817,0.248175 z"
     id="path18" />
  <path
     style="fill:#373737;stroke:none;stroke-width:0.248175"
     d="m 276.21898,93.562044 0.24817,0.248175 z"
     id="path20" />
  <path
     style="fill:#7b7b7b;stroke:none;stroke-width:0.248175"
     d="m 235.27007,93.810219 0.24818,0.248175 -0.24818,-0.248175 m -9.43065,2.978102 0.24817,0.248175 -0.24817,-0.248175 m 13.40146,0.248175 0.24817,0.248176 -0.24817,-0.248176 m -0.24818,0.248176 0.24818,0.248175 -0.24818,-0.248175 m -13.40146,0.248175 0.24818,0.248175 -0.24818,-0.248175 m 17.37226,2.978103 0.24818,0.24817 -0.24818,-0.24817 m -0.24817,0.24817 0.24817,0.24818 -0.24817,-0.24818 m 3.9708,3.22628 0.24818,0.24818 z"
     id="path22" />
  <path
     style="fill:#232323;stroke:none;stroke-width:0.248175"
     d="m 246.68613,104.23358 0.24818,0.24817 z"
     id="path24" />
  <path
     style="fill:#373737;stroke:none;stroke-width:0.248175"
     d="m 246.93431,104.23358 c 0.8696,1.86454 2.74233,3.11484 4.21897,4.48924 3.18906,2.96991 6.55183,7.39984 10.42336,9.40857 l -7.44525,-7.23927 z"
     id="path26" />
  <path
     style="fill:#7b7b7b;stroke:none;stroke-width:0.248175"
     d="m 246.68613,104.48175 0.24818,0.24818 -0.24818,-0.24818 m -29.28467,0.9927 0.24818,0.24818 -0.24818,-0.24818 m -0.24818,0.74453 0.24818,0.24817 -0.24818,-0.24817 m 33.50365,1.48905 0.24818,0.24817 -0.24818,-0.24817 m -0.24817,0.24817 0.24817,0.24818 -0.24817,-0.24818 m 3.9708,3.22628 0.24818,0.24818 -0.24818,-0.24818 m -0.24817,0.24818 0.24817,0.24817 z"
     id="path28" />
  <path
     style="fill:#373737;stroke:none;stroke-width:0.248175"
     d="m 259.59124,112.91971 0.24818,0.24817 z"
     id="path30" />
  <path
     style="fill:#7b7b7b;stroke:none;stroke-width:0.248175"
     d="m 209.21168,113.91241 0.24817,0.24817 -0.24817,-0.24817 m 0,0.49635 0.24817,0.24817 -0.24817,-0.24817 m 48.89051,0.24817 0.24817,0.24818 -0.24817,-0.24818 m -0.24818,0.24818 0.24818,0.24817 -0.24818,-0.24817 m 3.22628,2.9781 0.24818,0.24818 z"
     id="path32" />
  <path
     style="fill:#373737;stroke:none;stroke-width:0.248175"
     d="m 261.57664,118.13139 3.97081,3.9708 c -0.75446,-1.61562 -2.3949,-3.15307 -3.97081,-3.9708 z"
     id="path34" />
  <path
     style="fill:#7b7b7b;stroke:none;stroke-width:0.248175"
     d="m 261.82482,118.13139 0.24817,0.24817 -0.24817,-0.24817 m 3.72263,3.47445 0.24817,0.24817 z"
     id="path36" />
  <path
     style="fill:#232323;stroke:none;stroke-width:0.248175"
     d="m 265.54745,121.85401 0.24817,0.24818 z"
     id="path38" />
  <path
     style="fill:#373737;stroke:none;stroke-width:0.248175"
     d="m 265.79562,121.85401 3.9708,4.26117 6.94891,6.16219 c -2.57358,-3.65314 -7.26905,-7.85152 -10.91971,-10.42336 z"
     id="path40" />
  <path
     style="fill:#7b7b7b;stroke:none;stroke-width:0.248175"
     d="m 265.54745,122.10219 0.24817,0.24817 -0.24817,-0.24817 m -64.77373,0.49635 0.24818,0.24818 -0.24818,-0.24818 m 0,0.49635 0.24818,0.24818 -0.24818,-0.24818 m 68.74453,2.23358 0.24817,0.24817 -0.24817,-0.24817 m -0.24818,0.24817 0.24818,0.24818 -0.24818,-0.24818 m 3.97081,3.22628 0.24817,0.24817 -0.24817,-0.24817 m -0.24818,0.24817 0.24818,0.24818 -0.24818,-0.24818 m -80.65693,2.23358 0.24817,0.24818 z"
     id="path42" />
  <path
     style="fill:#232323;stroke:none;stroke-width:0.248175"
     d="m 192.58394,131.28467 0.24818,0.24818 z"
     id="path44" />
  <path
     style="fill:#7b7b7b;stroke:none;stroke-width:0.248175"
     d="m 192.83212,131.28467 0.24817,0.24818 z"
     id="path46" />
  <path
     style="fill:#373737;stroke:none;stroke-width:0.248175"
     d="m 183.89781,140.46715 c 3.11212,-2.19238 6.74193,-5.82219 8.93431,-8.9343 -2.91259,1.35826 -7.45519,6.08302 -8.93431,8.9343 z"
     id="path48" />
  <path
     style="fill:#7b7b7b;stroke:none;stroke-width:0.248175"
     d="m 276.21898,132.0292 0.24817,0.24817 z"
     id="path50" />
  <path
     style="fill:#373737;stroke:none;stroke-width:0.248175"
     d="m 276.71533,132.27737 c 1.68014,2.38372 5.05285,5.96514 7.69343,7.19708 -1.73971,-2.46934 -5.01066,-5.80556 -7.69343,-7.19708 z"
     id="path52" />
  <path
     style="fill:#7b7b7b;stroke:none;stroke-width:0.248175"
     d="m 276.9635,132.27737 0.24818,0.24818 -0.24818,-0.24818 m 3.22628,3.47445 0.24818,0.24818 -0.24818,-0.24818 m 0.49635,0 0.24818,0.24818 z"
     id="path54" />
  <path
     style="fill:#7f7f7f;stroke:none;stroke-width:0.248175"
     d="m 284.16058,139.47445 0.24818,0.24818 z"
     id="path56" />
  <path
     style="fill:#232323;stroke:none;stroke-width:0.248175"
     d="m 284.40876,139.47445 0.24817,0.24818 z"
     id="path58" />
  <path
     style="fill:#7b7b7b;stroke:none;stroke-width:0.248175"
     d="m 183.89781,139.9708 0.24818,0.24818 z"
     id="path60" />
  <path
     style="fill:#373737;stroke:none;stroke-width:0.248175"
     d="m 183.64964,140.46715 -10.67154,10.91971 -5.70803,6.20438 c 4.66396,-3.28534 8.38411,-8.3841 12.40876,-12.40876 1.16171,-1.16171 3.8626,-2.99845 3.97081,-4.71533 z"
     id="path62" />
  <path
     style="fill:#7b7b7b;stroke:none;stroke-width:0.248175"
     d="m 183.64964,140.71533 0.24817,0.24817 z"
     id="path64" />
  <path
     style="fill:#373737;stroke:none;stroke-width:0.248175"
     d="m 288.62774,143.19708 4.21898,4.46815 10.42335,9.67784 -4.46715,-4.72501 z"
     id="path66" />
  <path
     style="fill:#7b7b7b;stroke:none;stroke-width:0.248175"
     d="m 291.35766,146.17518 0.24818,0.24818 -0.24818,-0.24818 m 0.74453,0.24818 0.24817,0.24817 -0.24817,-0.24817 m -116.39416,1.9854 0.24817,0.24817 -0.24817,-0.24817 m 0,0.49635 0.24817,0.24817 -0.24817,-0.24817 m 119.37226,0.74453 0.24818,0.24817 -0.24818,-0.24817 m 0.74453,0.24817 0.24817,0.24818 -0.24817,-0.24818 m 3.22627,3.47445 0.24818,0.24818 -0.24818,-0.24818 m 0.49636,0 0.24817,0.24818 -0.24817,-0.24818 m 3.72262,3.47446 0.24818,0.24817 -0.24818,-0.24817 m -136,0.24817 0.24818,0.24818 z"
     id="path68" />
  <path
     style="fill:#232323;stroke:none;stroke-width:0.248175"
     d="m 303.27007,157.09489 0.24818,0.24818 z"
     id="path70" />
  <path
     style="fill:#373737;stroke:none;stroke-width:0.248175"
     d="m 303.51825,157.09489 c 1.13664,2.43931 4.81956,5.71572 7.19708,6.94891 -1.7546,-2.49119 -4.71037,-5.19679 -7.19708,-6.94891 z"
     id="path72" />
  <path
     style="fill:#7b7b7b;stroke:none;stroke-width:0.248175"
     d="m 303.27007,157.34307 0.24818,0.24817 z"
     id="path74" />
  <path
     style="fill:#373737;stroke:none;stroke-width:0.248175"
     d="m 167.0219,157.59124 c -2.61602,2.61602 -6.47986,5.39012 -8.18978,8.68613 l 6.20438,-5.9562 z"
     id="path76" />
  <path
     style="fill:#7b7b7b;stroke:none;stroke-width:0.248175"
     d="m 167.0219,157.83942 0.24817,0.24817 -0.24817,-0.24817 m 140.21898,2.72992 0.24817,0.24818 -0.24817,-0.24818 m -0.24818,0.24818 0.24818,0.24817 -0.24818,-0.24817 m 3.22628,2.9781 0.24817,0.24818 z"
     id="path78" />
  <path
     style="fill:#373737;stroke:none;stroke-width:0.248175"
     d="m 310.71533,164.0438 3.72263,3.47445 z"
     id="path80" />
  <path
     style="fill:#7b7b7b;stroke:none;stroke-width:0.248175"
     d="m 310.9635,164.0438 0.24818,0.24817 -0.24818,-0.24817 m -152.13138,1.73722 0.24817,0.24818 z"
     id="path82" />
  <path
     style="fill:#373737;stroke:none;stroke-width:0.248175"
     d="m 158.58394,166.27737 c -5.79613,5.79613 -11.4719,11.69923 -17.13376,17.62044 -2.44081,2.55248 -6.04878,5.03796 -7.68376,8.18978 6.9839,-4.91958 12.59713,-12.81601 18.61339,-18.86131 1.56648,-1.57418 6.06118,-4.68034 6.20413,-6.94891 z"
     id="path84" />
  <path
     style="fill:#7b7b7b;stroke:none;stroke-width:0.248175"
     d="m 158.58394,166.52555 0.24818,0.24817 -0.24818,-0.24817 m 155.35767,0.74452 0.24817,0.24818 z"
     id="path86" />
  <path
     style="fill:#373737;stroke:none;stroke-width:0.248175"
     d="m 314.43796,167.51825 c 1.51138,2.14423 4.31576,5.0923 6.70073,6.20438 v 0.49635 c -2.28322,1.06517 -5.29358,4.21898 -6.45256,6.45255 l 4.96351,-4.71533 1.43693,-1.9854 -1.43693,-1.96331 z"
     id="path88" />
  <path
     style="fill:#7b7b7b;stroke:none;stroke-width:0.248175"
     d="m 314.68613,167.51825 0.24818,0.24817 -0.24818,-0.24817 m 3.22628,3.47445 0.24817,0.24818 -0.24817,-0.24818 m 0.49635,0 0.24817,0.24818 z"
     id="path90" />
  <path
     style="fill:#232323;stroke:none;stroke-width:0.248175"
     d="m 270.51095,274.9781 c 6.34584,-4.46963 11.86277,-11.69898 17.14642,-17.37226 8.39825,-9.0162 17.18862,-17.73584 25.79037,-26.55475 13.76379,-14.10875 27.78321,-28.01724 41.21693,-42.43795 5.0454,-5.41692 11.60219,-10.33377 15.86088,-16.37956 -3.36774,1.57095 -6.15475,5.78099 -8.69606,8.43795 -5.89416,6.16393 -11.8454,12.32265 -17.85869,18.36497 -16.7543,16.83595 -33.05445,34.12433 -49.63752,51.12408 -5.39781,5.53183 -10.80058,11.0438 -16.13883,16.62774 -2.43956,2.55124 -6.04803,5.03796 -7.6835,8.18978 z"
     id="path92" />
  <path
     style="fill:#373737;stroke:none;stroke-width:0.248175"
     d="m 370.52555,172.23358 0.24817,0.24817 z"
     id="path94" />
  <path
     style="fill:#7b7b7b;stroke:none;stroke-width:0.248175"
     d="m 320.72423,173.88816 0.0844,0.16529 z"
     id="path96" />
  <path
     style="fill:#232323;stroke:none;stroke-width:0.248175"
     d="m 320.97241,173.88816 0.0844,0.16529 z"
     id="path98" />
  <path
     style="fill:#7b7b7b;stroke:none;stroke-width:0.248175"
     d="m 150.39416,174.46715 0.24818,0.24818 -0.24818,-0.24818 m 0.24818,0.24818 0.24817,0.24817 z"
     id="path100" />
  <path
     style="fill:#373737;stroke:none;stroke-width:0.248175"
     d="m 362.58394,179.67883 0.24818,0.24818 z"
     id="path102" />
  <path
     style="fill:#7b7b7b;stroke:none;stroke-width:0.248175"
     d="m 314.68613,180.17518 0.24818,0.24818 z"
     id="path104" />
  <path
     style="fill:#373737;stroke:none;stroke-width:0.248175"
     d="m 362.33577,180.42336 0.24817,0.24817 -0.24817,-0.24817 m -47.89781,0.24817 0.24817,0.24818 -0.24817,-0.24818 m -0.24818,0.24818 0.24818,0.24817 -0.24818,-0.24817 m -0.24817,0.24817 0.24817,0.24818 -0.24817,-0.24818 m -0.24818,0.24818 0.24818,0.24817 -0.24818,-0.24817 m -0.24817,0.24817 0.24817,0.24818 -0.24817,-0.24818 m -0.24818,0.24818 0.24818,0.24817 -0.24818,-0.24817 m -0.24817,0.24817 0.24817,0.24818 -0.24817,-0.24818 m -0.24818,0.24818 0.24818,0.24817 -0.24818,-0.24817 m -0.24818,0.24817 0.24818,0.24818 z"
     id="path106" />
  <path
     style="fill:#7b7b7b;stroke:none;stroke-width:0.248175"
     d="m 142.20438,182.90511 0.24817,0.24817 z"
     id="path108" />
  <path
     style="fill:#373737;stroke:none;stroke-width:0.248175"
     d="m 312.20438,182.90511 -48.14599,48.14598 -14.64233,14.64234 -6.94891,7.44526 c 6.48234,-4.56643 12.0092,-11.76053 17.62044,-17.37227 l 34.9927,-34.9927 12.90511,-12.90511 c 1.20861,-1.20811 4.1073,-3.1826 4.21898,-4.9635 z"
     id="path110" />
  <path
     style="fill:#7b7b7b;stroke:none;stroke-width:0.248175"
     d="m 312.20438,183.15328 0.24817,0.24818 -0.24817,-0.24818 m -170,0.24818 0.24817,0.24818 z"
     id="path112" />
  <path
     style="fill:#373737;stroke:none;stroke-width:0.248175"
     d="m 353.89781,188.61314 0.24818,0.24817 -0.24818,-0.24817 m 0,0.49635 0.24818,0.24817 z"
     id="path114" />
  <path
     style="fill:#7b7b7b;stroke:none;stroke-width:0.248175"
     d="m 133.76642,191.59124 0.24818,0.24818 z"
     id="path116" />
  <path
     style="fill:#373737;stroke:none;stroke-width:0.248175"
     d="m 133.51825,192.08759 -7.69343,7.94161 5.95595,-5.45986 z"
     id="path118" />
  <path
     style="fill:#7b7b7b;stroke:none;stroke-width:0.248175"
     d="m 133.51825,192.33577 0.24817,0.24817 z"
     id="path120" />
  <path
     style="fill:#373737;stroke:none;stroke-width:0.248175"
     d="m 345.45985,197.29927 0.24818,0.24818 -0.24818,-0.24818 m 0.24818,0.24818 0.24817,0.24817 z"
     id="path122" />
  <path
     style="fill:#7b7b7b;stroke:none;stroke-width:0.248175"
     d="m 125.57664,199.78102 0.24818,0.24818 z"
     id="path124" />
  <path
     style="fill:#373737;stroke:none;stroke-width:0.248175"
     d="m 337.51825,205.48905 0.24817,0.24818 -0.24817,-0.24818 m -0.24818,0.74453 0.24818,0.24817 -0.24818,-0.24817 m -8.18978,7.9416 0.24818,0.24818 -0.24818,-0.24818 m -0.24817,0.74453 0.24817,0.24817 -0.24817,-0.24817 m -8.43796,8.18978 0.24818,0.24817 -0.24818,-0.24817 m 0,0.49635 0.24818,0.24817 -0.24818,-0.24817 m -7.94161,7.69343 0.24818,0.24818 -0.24818,-0.24818 m -0.24817,0.74453 0.24817,0.24817 -0.24817,-0.24817 m -8.93431,8.68613 0.24818,0.24817 -0.24818,-0.24817 m 0.49635,0 0.24818,0.24817 -0.24818,-0.24817 m -8.43795,8.18978 0.24817,0.24817 -0.24817,-0.24817 m 0,0.49635 0.24817,0.24817 z"
     id="path126" />
  <path
     style="fill:#7b7b7b;stroke:none;stroke-width:0.248175"
     d="m 242.46715,252.64234 0.24818,0.24817 z"
     id="path128" />
  <path
     style="fill:#373737;stroke:none;stroke-width:0.248175"
     d="m 242.21898,253.13869 0.24817,0.24817 -0.24817,-0.24817 m -0.24818,0.24817 0.24818,0.24818 -0.24818,-0.24818 m -0.24817,0.24818 0.24817,0.24817 -0.24817,-0.24817 m -0.24818,0.24817 0.24818,0.24818 -0.24818,-0.24818 m -0.24817,0.24818 0.24817,0.24817 -0.24817,-0.24817 m -0.24818,0.24817 0.24818,0.24818 -0.24818,-0.24818 m -0.24817,0.24818 -19.85402,19.85401 c -2.67533,2.67533 -7.08391,5.74774 -8.68613,9.18248 l 7.69343,-7.44525 13.89781,-13.89781 5.21143,-5.21168 z"
     id="path130" />
  <path
     style="fill:#7b7b7b;stroke:none;stroke-width:0.248175"
     d="m 240.72993,254.87591 0.24817,0.24818 z"
     id="path132" />
  <path
     style="fill:#373737;stroke:none;stroke-width:0.248175"
     d="m 286.89051,257.60584 0.24818,0.24817 -0.24818,-0.24817 m 0,0.49635 0.24818,0.24817 -0.24818,-0.24817 m -46.90511,0.74453 0.24818,0.24817 z"
     id="path134" />
  <path
     style="fill:#232323;stroke:none;stroke-width:0.248175"
     d="m 239.9854,259.09489 c 1.61587,2.27577 4.16438,4.07752 6.20438,5.97854 3.89139,3.62584 7.82,7.23183 11.66423,10.9073 1.2384,1.1838 4.46219,5.39781 6.20438,5.39781 0.78672,0 1.48409,-0.9381 1.98541,-1.43693 1.5362,-1.5238 3.46204,-3.02774 4.46715,-4.96351 l -4.46715,4.21898 -1.98541,1.47416 -1.9854,-1.45182 -4.21898,-3.92117 -12.40875,-11.53022 z"
     id="path136" />
  <path
     style="fill:#373737;stroke:none;stroke-width:0.248175"
     d="m 241.9708,260.58394 0.24818,0.24818 -0.24818,-0.24818 m -0.24817,0.24818 0.24817,0.24817 -0.24817,-0.24817 m 3.9708,3.22627 0.24818,0.24818 -0.24818,-0.24818 m -0.24817,0.24818 0.24817,0.24817 -0.24817,-0.24817 m 33.50365,1.48905 0.24817,0.24818 -0.24817,-0.24818 m -0.24818,0.74453 0.24818,0.24817 -0.24818,-0.24817 m -29.28467,0.9927 0.24817,0.24817 -0.24817,-0.24817 m 0,0.49635 0.24817,0.24817 -0.24817,-0.24817 m 3.9708,3.22627 0.24818,0.24818 -0.24818,-0.24818 m -0.24817,0.24818 0.24817,0.24817 -0.24817,-0.24817 m 17.37226,2.9781 0.24817,0.24818 -0.24817,-0.24818 m -13.40146,0.24818 0.24817,0.24817 -0.24817,-0.24817 m -0.24818,0.24817 0.24818,0.24818 -0.24818,-0.24818 m 13.40146,0.24818 0.24818,0.24817 -0.24818,-0.24817 m -9.43065,2.9781 0.24817,0.24817 z"
     id="path138" />
  <path
     style="fill:#7b7b7b;stroke:none;stroke-width:0.248175"
     d="m 219.88321,278.45255 -0.9927,1.24088 z"
     id="path140" />
  <path
     style="fill:#373737;stroke:none;stroke-width:0.248175"
     d="m 220.13139,278.45255 -1.24088,1.48906 1.24088,-1.48906 m 40.45255,0 0.24818,0.24818 z"
     id="path142" />
  <path
     style="fill:#232323;stroke:none;stroke-width:0.248175"
     d="m 220.37956,278.70073 -1.24087,1.24088 v 0.24817 c 1.28058,0.58818 2.33458,-0.36978 1.24087,-1.48905 z"
     id="path144" />
  <path
     style="fill:#373737;stroke:none;stroke-width:0.248175"
     d="m 263.9765,281.0162 0.16379,0.0844 z"
     id="path146" />
  <text
     xml:space="preserve"
     style="font-style:normal;font-variant:normal;font-weight:normal;font-stretch:normal;font-size:40px;line-height:1.25;font-family:ti;-inkscape-font-specification:ti;fill:#000000;fill-opacity:1;stroke:none"
     x="174.83044"
     y="180.26559"
     id="text158"><tspan
       sodipodi:role="line"
       id="tspan156"
       x="174.83044"
       y="180.26559">Images</tspan></text>
</svg>
