<?xml version="1.0" standalone="yes"?>
<svg xmlns="http://www.w3.org/2000/svg" width="370" height="320">
<path style="fill:#010102; stroke:none;" d="M0 0L0 320L370 320L370 0L0 0z"/>
<path style="fill:#bebfe4; stroke:none;" d="M105 55L107 58C98.9202 60.6211 99.2815 75.9329 98.9606 83C97.78 109.007 98.742 129.899 111 153L112 153L112 69L108 69L108 68C109.961 66.4575 110.851 63.6461 113.228 62.6026C122.869 58.3698 141.462 62 152 62L253 62C253 78.5681 252 95.3226 252 112C252 116.568 250.402 126.8 256 128L256 129L253 129C252.918 133.863 249.334 145.572 256 147L256 150L253 150L252 162L253 162L256 152C264.678 151.308 265.292 136.042 266.611 129C270.041 110.694 270.812 89.2884 266.884 71C265.712 65.541 265.582 59.0924 262.558 54.213C255.148 42.2579 230.939 35.8807 218 33.8665C190.24 29.5451 160.885 28.8743 134 38.7106C123.769 42.4538 114.239 49.325 105 55z"/>
<path style="fill:#5b5c6d; stroke:none;" d="M105 54L106 55L105 54M103 59L107 58L103 59z"/>
<path style="fill:#4d4f97; stroke:none;" d="M102 61L103 62L102 61z"/>
<path style="fill:#5b5c6d; stroke:none;" d="M102 62L103 63L102 62z"/>
<path style="fill:#4c4de4; stroke:none;" d="M108 68L108 69L112 69L112 155L113 155L113 153L114 153C115.754 161.038 126.846 157.778 133 157L133 156L115 156L115 154L141 153L141 152L114 152L114 150C124.938 150 138.808 152.319 149 148L149 147L113 147L113 142C127.72 142 155.854 147.637 166 135L113 135L113 130L178 130L178 69L187 69L187 130L251 131L251 135L197 135C205.652 146.884 237.342 141 251 141L251 147L211 147C217.933 154.079 240.396 150 250 150L250 152L216 152L216 153L251 153C244.753 158.898 230.199 156 222 156L222 157L249 157L249 159L228 159L228 160L248 160C245 164.89 240.204 164 235 164L235 165L248 166L248 162L252 163C252.039 158.325 251.742 152.729 256 150L256 147L253 147C252.752 141.231 250.29 132.688 256 129L256 128L253 128L253 62L147 62C134.223 62 116.488 58.009 108 68z"/>
<path style="fill:#bebfe4; stroke:none;" d="M113 69L128 85C123.189 85.3825 121.809 87.7367 120 92C126.555 91.9993 134.638 91.2616 135 83L151 76L151 72L152 72L152 75L159 70L167 70L149 69L113 69z"/>
<path style="fill:#5b5c6d; stroke:none;" d="M167 69L168 70L167 69M178 69L178 130L179 130L179 89L178 69z"/>
<path style="fill:#bebfe4; stroke:none;" d="M179 69L179 130L185 130L185 69L179 69z"/>
<path style="fill:#5b5c6d; stroke:none;" d="M185 69L185 130L187 130L187 69L185 69M196 69L197 70L196 69z"/>
<path style="fill:#bebfe4; stroke:none;" d="M197 69L197 70L205 70C207.303 73.5163 210.864 75.0311 215 75L222 77L222 78L219 78L219 79L222 81L223 81L223 75L229 81L224 81L224 82L229 83L228 86C233.317 89.6825 236.371 91.9766 243 92C241.762 87.8795 240.368 85.711 236 85L251 69L197 69z"/>
<path style="fill:#5b5c6d; stroke:none;" d="M159.333 70.6667L159.667 71.3333L159.333 70.6667M162 70L163 71L162 70z"/>
<path style="fill:#4c4de4; stroke:none;" d="M152 72L151 72L142 80L157 74L157 114L158 114L158 73L166 72L152 72z"/>
<path style="fill:#5b5c6d; stroke:none;" d="M165 70L166 71L165 70z"/>
<path style="fill:#bebfe4; stroke:none;" d="M170 70L170 125L114 125L114 128L174 129L174 70L170 70M190 70L190 129L250 128L250 126L194 126L194 70L190 70z"/>
<path style="fill:#5b5c6d; stroke:none;" d="M198 70L199 71L198 70z"/>
<path style="fill:#bebfe4; stroke:none;" d="M158 114L117 114L117 115L160 115L160 116L117 116L117 117L161 117L161 118L116 118L116 120L166 121L166 122L115 122L115 123L169 124L169 71C151.476 73.5879 158 100.058 158 114M195 71L195 124L249 123L249 122L198 122L198 71L195 71M199 72L199 120L249 120L249 119L203 119L203 118L248 117L248 116L206 116L206 115L247 115L247 114L206 114C206 103.4 211.323 74.9979 199 72z"/>
<path style="fill:#5b5c6d; stroke:none;" d="M158 73L159 74L158 73M156 74L155 111L118 111L118 112L155 112L155 113L117 113L117 114L157 114C157 102.566 160.411 84.512 156 74M206 74L206 114L207 114C207 102.566 210.411 84.512 206 74M153 75C147.184 81.5849 150 95.5917 150 104L122 104L122 105C132.887 105 143.919 103.606 154 108L153 75z"/>
<path style="fill:#bebfe4; stroke:none;" d="M154 75L154 108L120 108L120 109L154 109L154 110L119 110L119 111L155 111C155 100.613 158.011 84.5596 154 75M207 75L207 113L246 113L246 112L209 112L209 111L245 111L245 110L210 110L210 109L244 109L244 108L211 108L211 107L243 107L243 106L211 106L211 75L207 75z"/>
<path style="fill:#5b5c6d; stroke:none;" d="M214 75L215 76L214 75M148.667 76.3333L149.333 76.6667L148.667 76.3333M211 77L211 106L214 106L214 77L211 77z"/>
<path style="fill:#bebfe4; stroke:none;" d="M147 79L147 102L123 102L123 103L150 104L150 79L147 79M214 79L214 105L241 103L241 102L219 102L219 100L239 100L239 99L219 99L219 98L237 97L237 96L233 96C231.954 89.7334 226.18 91 221 91L221 85L225 85L214 79z"/>
<path style="fill:#5b5c6d; stroke:none;" d="M142 80L143 81L142 80M145 80L145 100L124 100L124 101L147 102L147 80L145 80z"/>
<path style="fill:#bebfe4; stroke:none;" d="M143 81L139 84L140 89C135.205 89.1557 132.398 90.1803 131 95L135 93L136 93L137 93L140 95L140 96L127 97L127 98L145 98L145 81L143 81z"/>
<path style="fill:#5b5c6d; stroke:none;" d="M139 82L140 83L139 82z"/>
<path style="fill:#4c4de4; stroke:none;" d="M141 85L141 89L143 89L143 85L141 85z"/>
<path style="fill:#5b5c6d; stroke:none;" d="M229 86L230 87L229 86M227.667 87.3333L228.333 87.6667L227.667 87.3333z"/>
<path style="fill:#bebfe4; stroke:none;" d="M227 88L227 89L230 89L227 88z"/>
<path style="fill:#5b5c6d; stroke:none;" d="M227 89L227 90L231 90L227 89M130 90L131 91L130 90M234 91L235 92L234 91z"/>
<path style="fill:#4c4de4; stroke:none;" d="M227 93L227 96L231 96L231 93L227 93z"/>
<path style="fill:#5b5c6d; stroke:none;" d="M119 94L119 95L127 95L119 94M237 94L237 95L244 95L237 94z"/>
<path style="fill:#bebfe4; stroke:none;" d="M119 95L119 96L126 96L119 95z"/>
<path style="fill:#4c4de4; stroke:none;" d="M141.667 95.3333L142.333 95.6667L141.667 95.3333z"/>
<path style="fill:#bebfe4; stroke:none;" d="M238 95L238 96L241 96C241.652 99.9108 243.136 100.7 247 101L242 98L245 96L238 95M117 99L117 100L124 100L124 98L117 99z"/>
<path style="fill:#5b5c6d; stroke:none;" d="M240 98L241 99L240 98z"/>
<path style="fill:#bebfe4; stroke:none;" d="M125 99L125 100L145 100L125 99z"/>
<path style="fill:#5b5c6d; stroke:none;" d="M117 100L117 101L123 101L117 100M219 100L219 101L240 101L219 100z"/>
<path style="fill:#bebfe4; stroke:none;" d="M116 105L122 101L116 105M243 103L248 107L243 103z"/>
<path style="fill:#5b5c6d; stroke:none;" d="M116 105L116 106L120 106L116 105z"/>
<path style="fill:#bebfe4; stroke:none;" d="M115 106L115 107L119 107L115 106M121 106L121 107L152 107L121 106M115 108L115 109L118 109L115 108z"/>
<path style="fill:#5b5c6d; stroke:none;" d="M118 108L119 109L118 108z"/>
<path style="fill:#bebfe4; stroke:none;" d="M246 108L246 109L249 109L246 108z"/>
<path style="fill:#5b5c6d; stroke:none;" d="M119 109L119 110L154 110L119 109z"/>
<path style="fill:#bebfe4; stroke:none;" d="M114 113L118 110L114 113z"/>
<path style="fill:#5b5c6d; stroke:none;" d="M246 110L247 111L246 110z"/>
<path style="fill:#bebfe4; stroke:none;" d="M247 110L250 113L247 110z"/>
<path style="fill:#4c4de4; stroke:none;" d="M117 111L128 113L155 113L155 112L117 111z"/>
<path style="fill:#5b5c6d; stroke:none;" d="M209 111L209 112L246 112C236.202 107.889 219.649 111 209 111M247 112L248 113L247 112z"/>
<path style="fill:#bebfe4; stroke:none;" d="M114.667 114.333L115.333 114.667L114.667 114.333M248.667 114.333L249.333 114.667L248.667 114.333z"/>
<path style="fill:#5b5c6d; stroke:none;" d="M249 115L250 116L249 115z"/>
<path style="fill:#bebfe4; stroke:none;" d="M113 116L113 118L115 118L115 116L113 116z"/>
<path style="fill:#5b5c6d; stroke:none;" d="M116 116L117 117L116 116z"/>
<path style="fill:#bebfe4; stroke:none;" d="M249 117L250 118L249 117z"/>
<path style="fill:#5b5c6d; stroke:none;" d="M203 118L203 119L249 119C237.061 113.99 216.003 118 203 118z"/>
<path style="fill:#bebfe4; stroke:none;" d="M113.333 119.667L113.667 120.333L113.333 119.667M250.333 119.667L250.667 120.333L250.333 119.667z"/>
<path style="fill:#5b5c6d; stroke:none;" d="M114 120L115 121L114 120M115 121L115 122L166 122C152.873 116.492 129.311 121 115 121M249 122L250 123L249 122z"/>
<path style="fill:#bebfe4; stroke:none;" d="M113 123L114 124L113 123z"/>
<path style="fill:#5b5c6d; stroke:none;" d="M194 125L194 126L250 126L232 125L194 125M113 130L113 131L173 131L154 130L113 130z"/>
<path style="fill:#bebfe4; stroke:none;" d="M113 131L113 135L155 135C161.286 135 167.638 136.237 172 131L113 131M191 131C195.362 136.237 201.714 135 208 135L251 135L251 131L191 131z"/>
<path style="fill:#5b5c6d; stroke:none;" d="M102 136L103 137L102 136z"/>
<path style="fill:#4d4f97; stroke:none;" d="M102 137L103 138L102 137z"/>
<path style="fill:#5b5c6d; stroke:none;" d="M103 140L103 141L107 142L107 141L103 140z"/>
<path style="fill:#4d4f97; stroke:none;" d="M103.333 141.667L103.667 142.333L103.333 141.667z"/>
<path style="fill:#bebfe4; stroke:none;" d="M202 141L202 142C214.786 150.043 236.191 146 251 146L251 141L202 141M113 142L113 147C127.463 147 145.075 150.052 158 143C146.299 138.09 125.742 142 113 142z"/>
<path style="fill:#5b5c6d; stroke:none;" d="M208 146L209 147L208 146M210 146L210 147L251 147C240.25 142.489 221.696 146 210 146z"/>
<path style="fill:#4c4de4; stroke:none;" d="M150 147L151 148L150 147z"/>
<path style="fill:#4d4f97; stroke:none;" d="M102.667 148.333L103.333 148.667L102.667 148.333z"/>
<path style="fill:#bebfe4; stroke:none;" d="M97 149C97 160.913 95.3058 174.236 97.1481 185.999C97.9634 191.204 102.625 194.241 107 191L108 191L112 193C112 184.831 114.744 170.768 111.4 163.299C110.392 161.046 107.802 160.019 106.557 157.856C103.536 152.611 103.948 149.228 97 149z"/>
<path style="fill:#5b5c6d; stroke:none;" d="M103 149L104 150L103 149z"/>
<path style="fill:#bebfe4; stroke:none;" d="M114 150L114 152L146 151L114 150M213 150L213 151L250 152L250 150L213 150z"/>
<path style="fill:#4d4f97; stroke:none;" d="M261 150L262 151L261 150M104 151L105 152L104 151z"/>
<path style="fill:#5b5c6d; stroke:none;" d="M104 152L105 153L104 152M260 152L261 153L260 152M111 153L112 154L111 153z"/>
<path style="fill:#bebfe4; stroke:none;" d="M113.333 153.667L113.667 154.333L113.333 153.667M217 153C221.159 158.887 246.226 157.875 251 153L217 153z"/>
<path style="fill:#4d4f97; stroke:none;" d="M260 153L261 154L260 153M111 154L112 155L111 154z"/>
<path style="fill:#bebfe4; stroke:none;" d="M115 154L115 156L139 155L115 154z"/>
<path style="fill:#4d4f97; stroke:none;" d="M113 155L115 158L113 155z"/>
<path style="fill:#5b5c6d; stroke:none;" d="M249 155L250 156L249 155z"/>
<path style="fill:#bebfe4; stroke:none;" d="M250.333 156.667L250.667 157.333L250.333 156.667M224 157L224 158L249 159L249 157L224 157z"/>
<path style="fill:#4d4f97; stroke:none;" d="M115 158L116 159L115 158z"/>
<path style="fill:#bebfe4; stroke:none;" d="M116 158L116 159L129 159L116 158z"/>
<path style="fill:#4d4f97; stroke:none;" d="M260 158L261 159L260 158M111 159L107 160L107 161L112 160L111 159z"/>
<path style="fill:#bebfe4; stroke:none;" d="M249.333 159.667L249.667 160.333L249.333 159.667z"/>
<path style="fill:#5b5c6d; stroke:none;" d="M260.667 159.333L261.333 159.667L260.667 159.333M111.333 160.667L111.667 161.333L111.333 160.667z"/>
<path style="fill:#bebfe4; stroke:none;" d="M228 160L228 161L248 161L228 160z"/>
<path style="fill:#5b5c6d; stroke:none;" d="M253 160L254 161L253 160z"/>
<path style="fill:#bebfe4; stroke:none;" d="M260 160L257 169L253 168L252 193C255.193 192.547 259.888 193.36 262.715 191.923C274.137 186.112 271 170.409 271 160L260 160z"/>
<path style="fill:#5b5c6d; stroke:none;" d="M230 161L230 162L248 162L230 161z"/>
<path style="fill:#4d4f97; stroke:none;" d="M112 162L113 163L112 162z"/>
<path style="fill:#bebfe4; stroke:none;" d="M230 162L230 163L247 164L247 162L230 162M248 162L248 165L249 165L250 162L248 162z"/>
<path style="fill:#4d4f97; stroke:none;" d="M252 162L253 163L252 162z"/>
<path style="fill:#4c4de4; stroke:none;" d="M112 163L112 193L121 187.664L139 193L130 181L130 180L115 171L112 163z"/>
<path style="fill:#5b5c6d; stroke:none;" d="M247 164L248 165L247 164z"/>
<path style="fill:#bebfe4; stroke:none;" d="M235 165C237.793 168.954 243.215 168.862 246 165L235 165z"/>
<path style="fill:#4d4f97; stroke:none;" d="M117 166L114 167L114 168L118 167L117 166z"/>
<path style="fill:#5b5c6d; stroke:none;" d="M245 169L248 166L245 169M117 167L115 168L115 169L117 167z"/>
<path style="fill:#4d4f97; stroke:none;" d="M252.667 167.333L253.333 167.667L252.667 167.333M118 168L118 170L120 170L118 168M239 168L240 169L239 168M241 168L241 169L245 170L241 168z"/>
<path style="fill:#5b5c6d; stroke:none;" d="M252.333 168.667L252.667 169.333L252.333 168.667z"/>
<path style="fill:#bebfe4; stroke:none;" d="M115 169L119 171L115 169z"/>
<path style="fill:#5b5c6d; stroke:none;" d="M239 169L240 170L239 169M241 169L241 170L244 170L241 169M119 170L120 171L119 170z"/>
<path style="fill:#4c4de4; stroke:none;" d="M251 170C248.083 176.762 245.039 183.738 237 184L237 182L244 182L244 181C236.649 181.086 231.822 184.862 226 189L226 191L242 187.569L252 193L251 170z"/>
<path style="fill:#bebfe4; stroke:none;" d="M116 172L116 175L121 175L116 172z"/>
<path style="fill:#5b5c6d; stroke:none;" d="M120 172L121 173L120 172M122 173L123 174L122 173M123 174L123 176L125 176L123 174M117 175L117 176L122 176L117 175z"/>
<path style="fill:#bebfe4; stroke:none;" d="M117 176L117 178L123 178L123 176L117 176M125 177L126 178L125 177M126 178L129 180L126 178z"/>
<path style="fill:#4d4f97; stroke:none;" d="M240 178L241 179L240 178z"/>
<path style="fill:#bebfe4; stroke:none;" d="M118 179L118 180L124 180L118 179z"/>
<path style="fill:#5b5c6d; stroke:none;" d="M124 179L118 180L118 181L124 179z"/>
<path style="fill:#4d4f97; stroke:none;" d="M238 179L237 181L239 181L238 179z"/>
<path style="fill:#4c4de4; stroke:none;" d="M239 179L240 180L239 179z"/>
<path style="fill:#bebfe4; stroke:none;" d="M240 179L240 180L244 180L240 179M245 179L246 180L245 179z"/>
<path style="fill:#5b5c6d; stroke:none;" d="M239 180L239 181L244 181L239 180z"/>
<path style="fill:#bebfe4; stroke:none;" d="M128 181L128 182L132 183L128 181z"/>
<path style="fill:#4d4f97; stroke:none;" d="M236 181L237 182L236 181z"/>
<path style="fill:#bebfe4; stroke:none;" d="M119 182L119 184L127 185C126.146 181.013 122.511 182 119 182M235 182L236 183L235 182M237 182L237 184L244 184L244 182L237 182z"/>
<path style="fill:#5b5c6d; stroke:none;" d="M127 183L128 184L127 183z"/>
<path style="fill:#bebfe4; stroke:none;" d="M233.667 183.333L234.333 183.667L233.667 183.333M138 188L141 193L140 188L138 188M225 189C224.425 191.396 224.525 191.487 227 192L225 189z"/>
<path style="fill:#4d4f97; stroke:none;" d="M226 192L226 193L229 193L226 192M103 193L104 194L103 193M260 193L261 194L260 193M252 195L253 196L252 195M260 195L261 196L260 195M141 196L142 197L141 196z"/>
<path style="fill:#4c4de4; stroke:none;" d="M249 197L252 200L252 196L249 197z"/>
<path style="fill:#bebfe4; stroke:none;" d="M252 196L252 200L257 199C259.873 205.566 264.605 205 271 205C265.321 196.944 260.862 197.256 252 196z"/>
<path style="fill:#5b5c6d; stroke:none;" d="M111 197L112 198L111 197z"/>
<path style="fill:#bebfe4; stroke:none;" d="M217 197L218 198L217 197z"/>
<path style="fill:#4c4de4; stroke:none;" d="M197 205L190 208L190 209L198 209L198 210C187.586 211.067 174.622 219.45 172 230L186 230L186 229L173 229L173 228L183 228L183 225L176 225L190 213L191 213L191 233L170 233L170 234L192 234L192 212L206 210L206 249L165 249L167 269L171 278L174 279C173.501 287.591 183.587 286.6 187 293L183 292L182 296L256 296L256 295C247.484 290.304 252.332 266.461 253 258L256 258L256 254L252 254L252 251L256 251L256 250L252 250L252 249L256 249L253 246L256 245L256 244C246.122 237.957 254.992 218.067 252.411 208.859C251.342 205.042 246.132 205.239 243 204.715C233.365 203.101 225.593 201.462 216 204C217.164 200.127 219.167 199.012 223 198L197 205z"/>
<path style="fill:#4d4f97; stroke:none;" d="M110 198L111 199L110 198z"/>
<path style="fill:#bebfe4; stroke:none;" d="M111 198L108 203C95.6043 200.238 97.6105 225.952 101.305 232.656C103.298 236.272 108.176 237.031 111 240L112 240C112 228.043 115.611 208.988 111 198z"/>
<path style="fill:#4c4de4; stroke:none;" d="M112 198L112 228L114 240L113 235L120 240L120 239L116 235L121 235L121 234L114 231L122 231L122 230L113 230L113 227L124 227L124 226L113 226L113 222L125 222L125 221L114 221L114 220L124 220L124 219L115 219L121 216L127 210L127 220L128 220L128 209L132 209L132 214L133 214L136 210L112 198M146 198L146 199L156 203L156 205L158 204C152.268 207.633 146.083 200.904 142 209L150 215C151.304 210.663 154.938 210.252 159 211L158 206L160 205L160 204L146 198z"/>
<path style="fill:#4d4f97; stroke:none;" d="M147 198L148 199L147 198z"/>
<path style="fill:#5b5c6d; stroke:none;" d="M216 198L217 199L216 198z"/>
<path style="fill:#bebfe4; stroke:none;" d="M216 200L216 204C220.036 203.26 222.277 202.202 223 198L216 200z"/>
<path style="fill:#5b5c6d; stroke:none;" d="M110 199L111 200L110 199z"/>
<path style="fill:#4d4f97; stroke:none;" d="M145 199L146 200L145 199z"/>
<path style="fill:#5b5c6d; stroke:none;" d="M146 199L147 204L149 204L146 199z"/>
<path style="fill:#bebfe4; stroke:none;" d="M149.667 199.333L150.333 199.667L149.667 199.333z"/>
<path style="fill:#5b5c6d; stroke:none;" d="M151.333 199.667L151.667 200.333L151.333 199.667z"/>
<path style="fill:#bebfe4; stroke:none;" d="M152 199L156 202L156 201L152 199z"/>
<path style="fill:#5b5c6d; stroke:none;" d="M214 199L215 200L214 199M217 199L217 200L220 200L217 199z"/>
<path style="fill:#4d4f97; stroke:none;" d="M103 200L104 201L103 200z"/>
<path style="fill:#bebfe4; stroke:none;" d="M145 200L146 204L147 204L145 200z"/>
<path style="fill:#5b5c6d; stroke:none;" d="M213 200L214 201L213 200z"/>
<path style="fill:#4d4f97; stroke:none;" d="M252.333 200.667L252.667 201.333L252.333 200.667z"/>
<path style="fill:#5b5c6d; stroke:none;" d="M253.667 200.333L254.333 200.667L253.667 200.333M103 201L103 202L106 202L103 201z"/>
<path style="fill:#bebfe4; stroke:none;" d="M149 201C150.443 205.145 153.923 205.641 158 206L158 205L149 201M169 201L168 207L169 201z"/>
<path style="fill:#4c4de4; stroke:none;" d="M170 201L170 207L166 206L166 209C173.024 209 180.706 210.965 181 202L176 202L176 207L172 207L172 201L170 201z"/>
<path style="fill:#bebfe4; stroke:none;" d="M172 201L172 207L176 207C175.737 203.59 175.321 202.099 172 201M198 205L198 206L210 202L198 205M214 201L209 206C211.858 205.076 214.76 204.394 214 201z"/>
<path style="fill:#4d4f97; stroke:none;" d="M102 202L103 203L102 202z"/>
<path style="fill:#bebfe4; stroke:none;" d="M156.667 202.333L157.333 202.667L156.667 202.333z"/>
<path style="fill:#5b5c6d; stroke:none;" d="M155 203L156 204L155 203M158 203L159 204L158 203z"/>
<path style="fill:#4d4f97; stroke:none;" d="M159 203L160 204L159 203z"/>
<path style="fill:#5b5c6d; stroke:none;" d="M209.667 203.333L210.333 203.667L209.667 203.333M157 204L158 205L157 204M206 204L207 205L206 204M208.333 204.667L208.667 205.333L208.333 204.667z"/>
<path style="fill:#bebfe4; stroke:none;" d="M159 205L158 207L160 207L159 205z"/>
<path style="fill:#4d4f97; stroke:none;" d="M160 205L161 206L160 205z"/>
<path style="fill:#5b5c6d; stroke:none;" d="M167.333 205.667L167.667 206.333L167.333 205.667z"/>
<path style="fill:#bebfe4; stroke:none;" d="M195.333 205.667L195.667 206.333L195.333 205.667z"/>
<path style="fill:#5b5c6d; stroke:none;" d="M196.333 205.667L196.667 206.333L196.333 205.667M200 205L201 206L200 205z"/>
<path style="fill:#bebfe4; stroke:none;" d="M206.667 205.333L207.333 205.667L206.667 205.333z"/>
<path style="fill:#4d4f97; stroke:none;" d="M251 205L251 206L254 207L251 205z"/>
<path style="fill:#5b5c6d; stroke:none;" d="M260.667 205.333L261.333 205.667L260.667 205.333z"/>
<path style="fill:#bebfe4; stroke:none;" d="M201 206L202 207L201 206M204.667 206.333L205.333 206.667L204.667 206.333z"/>
<path style="fill:#5b5c6d; stroke:none;" d="M252 206L252 208L254 208L252 206z"/>
<path style="fill:#4d4f97; stroke:none;" d="M260 206L261 207L260 206M165.333 207.667L165.667 208.333L165.333 207.667z"/>
<path style="fill:#5b5c6d; stroke:none;" d="M166 207L167 208L166 207M197.667 207.333L198.333 207.667L197.667 207.333z"/>
<path style="fill:#4d4f97; stroke:none;" d="M135 208L136 209L135 208M141 208L142 209L141 208M160.333 208.667L160.667 209.333L160.333 208.667M180 208L180 210L182 208L180 208M189 208L190 209L189 208z"/>
<path style="fill:#bebfe4; stroke:none;" d="M253 208C251.544 214.761 248.329 241.756 256 244L256 245L253 246L256 247L256 258L253 258C252.41 265.477 247.545 292.194 256 295L256 296L183 296L183 297L205 303C205.156 316.181 230.039 311 240 311L240 303L261 299C272.488 267.858 271.794 243.144 261 212L253 208z"/>
<path style="fill:#5b5c6d; stroke:none;" d="M113 209L114 210L113 209z"/>
<path style="fill:#bebfe4; stroke:none;" d="M114 209L114 214L118 213L117 209L114 209z"/>
<path style="fill:#5b5c6d; stroke:none;" d="M117 211L121 210L117 211z"/>
<path style="fill:#bebfe4; stroke:none;" d="M121 209L122 210L121 209z"/>
<path style="fill:#5b5c6d; stroke:none;" d="M128 209L128 219L129 219L128 209z"/>
<path style="fill:#bebfe4; stroke:none;" d="M129 209L129 218L130 218L131 209L129 209z"/>
<path style="fill:#5b5c6d; stroke:none;" d="M131 209L131 215L132 215L131 209z"/>
<path style="fill:#bebfe4; stroke:none;" d="M142.667 209.333L143.333 209.667L142.667 209.333z"/>
<path style="fill:#5b5c6d; stroke:none;" d="M144.333 209.667L144.667 210.333L144.333 209.667z"/>
<path style="fill:#bebfe4; stroke:none;" d="M145 209L145 214L147 214L145 209M148 209L149 210L148 209z"/>
<path style="fill:#5b5c6d; stroke:none;" d="M149 209L150 210L149 209z"/>
<path style="fill:#bebfe4; stroke:none;" d="M150 209L151 210L150 209z"/>
<path style="fill:#5b5c6d; stroke:none;" d="M165 209L166 210L165 209z"/>
<path style="fill:#bebfe4; stroke:none;" d="M165 213L179 210C174.48 208.104 166.772 207.66 165 213z"/>
<path style="fill:#5b5c6d; stroke:none;" d="M179 209L180 210L179 209z"/>
<path style="fill:#4d4f97; stroke:none;" d="M187 209L188 210L187 209z"/>
<path style="fill:#5b5c6d; stroke:none;" d="M188 209L189 210L188 209z"/>
<path style="fill:#bebfe4; stroke:none;" d="M189 209L189 213L197 210L189 209z"/>
<path style="fill:#5b5c6d; stroke:none;" d="M197 209L198 210L197 209z"/>
<path style="fill:#bebfe4; stroke:none;" d="M219 209L219 210L237 217C238.006 221.777 242.423 223.655 247 224L243 218L243 217L250 209L219 209z"/>
<path style="fill:#5b5c6d; stroke:none;" d="M250 209L251 210L250 209z"/>
<path style="fill:#bebfe4; stroke:none;" d="M118.667 210.333L119.333 210.667L118.667 210.333M121 217L115 218L115 219L124 219L124 220L114 220L114 221L126 222L127 210C122.669 210.903 121.338 212.625 121 217M133 210L133 213L135 213L135 210L133 210z"/>
<path style="fill:#5b5c6d; stroke:none;" d="M135 210L136 211L135 210z"/>
<path style="fill:#bebfe4; stroke:none;" d="M149 214L158 211C154.192 209.533 151.569 211.089 149 214z"/>
<path style="fill:#4d4f97; stroke:none;" d="M159 210L160 211L159 210z"/>
<path style="fill:#5b5c6d; stroke:none;" d="M201 210L201 244L166 244L166 246L202 246C202 235.613 205.011 219.56 201 210z"/>
<path style="fill:#bebfe4; stroke:none;" d="M202 210C202 218.581 197.846 243.504 206 248L206 210L202 210M211 210L211 248L250 247L250 244L215 244L215 210L211 210z"/>
<path style="fill:#5b5c6d; stroke:none;" d="M222 210L221 212L222 210z"/>
<path style="fill:#4d4f97; stroke:none;" d="M260 210L261 211L260 210z"/>
<path style="fill:#5b5c6d; stroke:none;" d="M148 211L149 212L148 211M188.333 211.667L188.667 212.333L188.333 211.667z"/>
<path style="fill:#bebfe4; stroke:none;" d="M195 211L195 238L168 238L168 239L197 240C197 232.154 199.826 217.37 195 211z"/>
<path style="fill:#5b5c6d; stroke:none;" d="M197 211L197 241L167 241L167 242L198 242L197 211z"/>
<path style="fill:#bebfe4; stroke:none;" d="M198 211C198 218.403 194.448 239.752 201 244L201 211L198 211M216 211L216 243L250 242L250 241L219 241L219 240L249 239L249 238L224 238C229.132 232.76 240.089 235 247 235L247 234L226 234L226 233L246 233L246 232C241.627 227.445 239.378 227.001 233 227L233 225L240 225L237 220L233 221C232.346 217.946 230.993 218.064 228 218L228 230L226 230C226 219.517 228.003 212.708 216 211z"/>
<path style="fill:#4c4de4; stroke:none;" d="M222 213L234 218L233 221L237 220L237 217C233.033 215.667 225.325 209.581 222 213z"/>
<path style="fill:#5b5c6d; stroke:none;" d="M260 211L261 212L260 211z"/>
<path style="fill:#bebfe4; stroke:none;" d="M185 213L185 214L188 214L188 213L185 213z"/>
<path style="fill:#5b5c6d; stroke:none;" d="M192 212L192 213C196.361 218.756 194 230.949 194 238L195 238L195 212L192 212M165 213L165 232L166 232L170 213L165 213M186 213L187 214L186 213M190 213L189 232L191 232L190 213z"/>
<path style="fill:#bebfe4; stroke:none;" d="M192 213L192 234L170 234L170 235L194 236L194 213L192 213z"/>
<path style="fill:#5b5c6d; stroke:none;" d="M228 213L229 214L228 213M261 213L262 214L261 213M146 214L147 215L146 214M183 214L183 215L186 215L183 214M226 214L226 230L228 230L228 218L233 218L233 217L226 214M230 214L230 215L233 215L230 214z"/>
<path style="fill:#bebfe4; stroke:none;" d="M113 215L113 217L115 215L113 215z"/>
<path style="fill:#4d4f97; stroke:none;" d="M146 215L147 216L146 215z"/>
<path style="fill:#5b5c6d; stroke:none;" d="M148 215L149 216L148 215z"/>
<path style="fill:#bebfe4; stroke:none;" d="M182.667 215.333L183.333 215.667L182.667 215.333z"/>
<path style="fill:#5b5c6d; stroke:none;" d="M116 216L116 217L121 217L116 216z"/>
<path style="fill:#4d4f97; stroke:none;" d="M148 216L149 217L148 216z"/>
<path style="fill:#5b5c6d; stroke:none;" d="M181.667 216.333L182.333 216.667L181.667 216.333M185 216L186 217L185 216z"/>
<path style="fill:#bebfe4; stroke:none;" d="M176 225L183 225L183 228L173 228L173 229L189 231L189 216C183.658 217.082 179.225 220.697 176 225M228 216L228 217L231 217L228 216z"/>
<path style="fill:#5b5c6d; stroke:none;" d="M113 217L114 218L113 217M183 217L184 218L183 217z"/>
<path style="fill:#bebfe4; stroke:none;" d="M179 218L180 219L179 218z"/>
<path style="fill:#5b5c6d; stroke:none;" d="M233 218L234 219L233 218M178 219L179 220L178 219M181.667 219.333L182.333 219.667L181.667 219.333M235 219L236 220L235 219M237 219L238 220L237 219M177 220L178 221L177 220z"/>
<path style="fill:#4d4f97; stroke:none;" d="M146 222L146 223L150 222L146 222z"/>
<path style="fill:#5b5c6d; stroke:none;" d="M176 221L177 222L176 221M237 221L238 222L237 221M113 222L113 223L125 223L113 222z"/>
<path style="fill:#4c4de4; stroke:none;" d="M147 222C146.961 226.318 146.968 229.682 143 232L143 233L145 234L144 237L145 237L146 234L147 234C147.123 237.714 147.424 239.563 151 241L148 233L153 233L150 231L160 228L154 223L154 225L152 222L147 222z"/>
<path style="fill:#bebfe4; stroke:none;" d="M151 223L154 225L153 222L151 223z"/>
<path style="fill:#4d4f97; stroke:none;" d="M175 222L176 223L175 222z"/>
<path style="fill:#5b5c6d; stroke:none;" d="M238 222L239 223L238 222z"/>
<path style="fill:#bebfe4; stroke:none;" d="M113 223L113 226L125 226L125 223L113 223M145 223L144 229C147.403 228.271 146.987 226.194 147 223L145 223z"/>
<path style="fill:#4d4f97; stroke:none;" d="M174 223L175 224L174 223z"/>
<path style="fill:#5b5c6d; stroke:none;" d="M241 223L242 224L241 223z"/>
<path style="fill:#bebfe4; stroke:none;" d="M148 224L151 226L151 225L148 224z"/>
<path style="fill:#5b5c6d; stroke:none;" d="M149.667 224.333L150.333 224.667L149.667 224.333z"/>
<path style="fill:#bebfe4; stroke:none;" d="M157 224L158 225L157 224z"/>
<path style="fill:#5b5c6d; stroke:none;" d="M158 224L159 225L158 224z"/>
<path style="fill:#4d4f97; stroke:none;" d="M173 224L172 227L173 224z"/>
<path style="fill:#5b5c6d; stroke:none;" d="M151 225L152 226L151 225z"/>
<path style="fill:#4d4f97; stroke:none;" d="M159 225L162 229L159 225z"/>
<path style="fill:#5b5c6d; stroke:none;" d="M233 227L241 227L241 225L233 227z"/>
<path style="fill:#4c4de4; stroke:none;" d="M235 226L236 227L235 226z"/>
<path style="fill:#bebfe4; stroke:none;" d="M244 226L244 227L248 227L244 226M113 227L113 230C117.192 230 121.52 230.825 124 227L113 227M148 227L148 229L150 227L148 227z"/>
<path style="fill:#5b5c6d; stroke:none;" d="M150 227L151 228L150 227M154 227L155 228L154 227z"/>
<path style="fill:#bebfe4; stroke:none;" d="M155 227L152 228L153 230L150 230L150 231L153 233L148 233C148.431 236.828 149.229 238.81 153 240L155 227z"/>
<path style="fill:#5b5c6d; stroke:none;" d="M156 227L156 231L157 231L162 231L156 227M243 228L244 231L248 227L243 228M149 228L150 229L149 228z"/>
<path style="fill:#4c4de4; stroke:none;" d="M244 228L245 229L244 228z"/>
<path style="fill:#5b5c6d; stroke:none;" d="M144 229L144 230L147 230L144 229M151.667 229.333L152.333 229.667L151.667 229.333z"/>
<path style="fill:#bebfe4; stroke:none;" d="M157 229L157 231L160 231L160 229L157 229z"/>
<path style="fill:#4d4f97; stroke:none;" d="M171 229L172 230L171 229z"/>
<path style="fill:#bebfe4; stroke:none;" d="M246 229L250 233L249 229L246 229M143 230L143 232L146 232L146 230L143 230z"/>
<path style="fill:#5b5c6d; stroke:none;" d="M171 230L171 231L186 231L171 230z"/>
<path style="fill:#bebfe4; stroke:none;" d="M114 231L114 232L122 232L114 231z"/>
<path style="fill:#4d4f97; stroke:none;" d="M170 231L165 242L197 241L197 240L167 240C172.993 234.342 186.161 237 194 237L194 236L170 235L170 231z"/>
<path style="fill:#4c4de4; stroke:none;" d="M171 231L171 232L189 232L171 231M228 231L228 232L243 232L228 231z"/>
<path style="fill:#5b5c6d; stroke:none;" d="M114 232L114 233L122 233L114 232z"/>
<path style="fill:#4d4f97; stroke:none;" d="M165 232L166 233L165 232z"/>
<path style="fill:#5b5c6d; stroke:none;" d="M170 232L171 233L170 232z"/>
<path style="fill:#bebfe4; stroke:none;" d="M171 232L171 233L191 233L171 232M115 233L115 234L122 234L115 233M143.667 233.333L144.333 233.667L143.667 233.333z"/>
<path style="fill:#5b5c6d; stroke:none;" d="M102 234L103 235L102 234z"/>
<path style="fill:#bebfe4; stroke:none;" d="M146 234L146 240L147 240L146 234M248.667 234.333L249.333 234.667L248.667 234.333z"/>
<path style="fill:#4d4f97; stroke:none;" d="M102 235L103 236L102 235z"/>
<path style="fill:#bebfe4; stroke:none;" d="M113 235L115 239L116 238L113 235z"/>
<path style="fill:#5b5c6d; stroke:none;" d="M116 237L121 236L116 237M103 236L103 237L106 237L103 236z"/>
<path style="fill:#bebfe4; stroke:none;" d="M117 236L121 240L121 236L117 236z"/>
<path style="fill:#4d4f97; stroke:none;" d="M143.333 236.667L143.667 237.333L143.333 236.667z"/>
<path style="fill:#5b5c6d; stroke:none;" d="M224 236L224 237L248 237L224 236z"/>
<path style="fill:#bebfe4; stroke:none;" d="M249 236L250 237L249 236z"/>
<path style="fill:#4d4f97; stroke:none;" d="M103 237L104 238L103 237z"/>
<path style="fill:#5b5c6d; stroke:none;" d="M144 237L145 238L144 237z"/>
<path style="fill:#4c4de4; stroke:none;" d="M168 237L168 238L194 238L168 237z"/>
<path style="fill:#5b5c6d; stroke:none;" d="M249 237L250 238L249 237M110 238L111 239L110 238M115 238L115 240L117 240L117 238L115 238M118 238L119 239L118 238z"/>
<path style="fill:#bebfe4; stroke:none;" d="M250.333 238.667L250.667 239.333L250.333 238.667z"/>
<path style="fill:#4d4f97; stroke:none;" d="M110 239L111 240L110 239M162 239L163 240L162 239z"/>
<path style="fill:#010102; stroke:none;" d="M167 239L167 240L195 240L167 239z"/>
<path style="fill:#4d4f97; stroke:none;" d="M148 240L149 241L148 240z"/>
<path style="fill:#5b5c6d; stroke:none;" d="M151 240L152 241L151 240M219 240L219 241L249 241L219 240M103 243L104 244L103 243z"/>
<path style="fill:#4d4f97; stroke:none;" d="M166 243L166 244L199 244L166 243z"/>
<path style="fill:#bebfe4; stroke:none;" d="M98 249L104 249L106 244C101.911 244.308 99.8651 245.3 98 249z"/>
<path style="fill:#4d4f97; stroke:none;" d="M111 244L112 245L111 244M128 244L128 246L130 246L130 244L128 244M145 245L145 246L149 247L149 244L145 245z"/>
<path style="fill:#4c4de4; stroke:none;" d="M147 245L148 246L147 245z"/>
<path style="fill:#4d4f97; stroke:none;" d="M150 245L151 246L150 245z"/>
<path style="fill:#bebfe4; stroke:none;" d="M120 247L120 248L124 248L120 247z"/>
<path style="fill:#5b5c6d; stroke:none;" d="M123.667 246.333L124.333 246.667L123.667 246.333z"/>
<path style="fill:#4c4de4; stroke:none;" d="M112 249L112 296L155 296L152 292L159 286L139 295L139 274L138 274L138 295C129.012 294.21 121.783 289.58 117 282L127 282L127 281L116 281L116 280L129 280L129 279L115 279L115 278L131 278L131 277L114 277L114 275L135 274L135 273L113 273L113 266L134 266L134 265L114 264L114 262L131 262L131 261L114 261C117.577 257.03 120.877 257.004 126 257L126 256L117 256L117 255L124 254L123 249L127 247L112 249z"/>
<path style="fill:#5b5c6d; stroke:none;" d="M127 246L124 248L124 249L127 246z"/>
<path style="fill:#4c4de4; stroke:none;" d="M128 246L129 247L128 246z"/>
<path style="fill:#bebfe4; stroke:none;" d="M123 249L124 254L118 254L118 256L126 256L126 257L116 257L115 261L131 261L131 246L123 249z"/>
<path style="fill:#4c4de4; stroke:none;" d="M149 246L149 247L158 255L159 255L157 247L153 248L149 246z"/>
<path style="fill:#5b5c6d; stroke:none;" d="M104 247L105 248L104 247M150 247L151 248L150 247z"/>
<path style="fill:#bebfe4; stroke:none;" d="M153.667 247.333L154.333 247.667L153.667 247.333M157 247L158 252L159 252L157 247z"/>
<path style="fill:#4d4f97; stroke:none;" d="M111 248L112 249L111 248M151 248L152 249L151 248z"/>
<path style="fill:#bebfe4; stroke:none;" d="M152 248L153 249L152 248z"/>
<path style="fill:#4d4f97; stroke:none;" d="M165 248L166 249L165 248M102 249L104 251L102 249z"/>
<path style="fill:#5b5c6d; stroke:none;" d="M103 249L104 250L103 249M111 249L110 251L111 249M156 249L157 250L156 249z"/>
<path style="fill:#010102; stroke:none;" d="M252 249L252 250L256 250L252 249z"/>
<path style="fill:#bebfe4; stroke:none;" d="M111 250C100.648 260.998 96.9335 269.069 98.8449 285C99.5198 290.625 101.303 305.819 110 300L111 300L120 303L120 311C127.896 311 134.884 312.781 135 303C141.158 302.869 149.409 301.478 153 296L112 297C112 283.735 116.11 262.177 111 250z"/>
<path style="fill:#5b5c6d; stroke:none;" d="M155 251L156 252L155 251z"/>
<path style="fill:#010102; stroke:none;" d="M252 251L252 254L256 254L256 251L252 251z"/>
<path style="fill:#5b5c6d; stroke:none;" d="M156 252L157 253L156 252M114 253L114 254L117 254L114 253z"/>
<path style="fill:#4d4f97; stroke:none;" d="M159 253L158 256L159 253z"/>
<path style="fill:#bebfe4; stroke:none;" d="M205 295L212 295C212 284.334 212.073 273.666 211.999 263C211.981 260.318 212.173 254.207 208.09 254.207C204.093 254.207 205.001 261.56 205 264L205 295z"/>
<path style="fill:#4d4f97; stroke:none;" d="M103 254L104 255L103 254z"/>
<path style="fill:#5b5c6d; stroke:none;" d="M104 254L104 255L107 255L104 254z"/>
<path style="fill:#bebfe4; stroke:none;" d="M114 254L114 255L117 255L114 254z"/>
<path style="fill:#5b5c6d; stroke:none;" d="M103 255L104 256L103 255M114.667 255.333L115.333 255.667L114.667 255.333M117 255L118 256L117 255M159 255L160 256L159 255z"/>
<path style="fill:#4d4f97; stroke:none;" d="M102 256L103 257L102 256z"/>
<path style="fill:#bebfe4; stroke:none;" d="M113 256L113 260L114 260L115 256L113 256z"/>
<path style="fill:#5b5c6d; stroke:none;" d="M204 256L204 295L205 295C205 283.828 208.311 266.274 204 256M212 257L212 295L213 295C213 284.089 216.211 267.036 212 257M115.333 258.667L115.667 259.333L115.333 258.667z"/>
<path style="fill:#bebfe4; stroke:none;" d="M166 258L166 260L200 260L200 261L167 262L167 264L196 264L196 265L168 266C172.007 271.557 184.692 269 191 269C191 277.68 187.573 290.463 198 293L198 263L199 263L199 294L203 294L203 258L166 258M213 258L214 294L217 294L217 263L218 263L218 293C226.376 291.172 223 274.857 223 268L224 268L227 288L232 288L231 286L235 286L235 279L242 279L242 278L231 277L231 275C235.991 275 243.118 276.67 245 271L247 274C250.825 271.527 249.33 267.769 244.906 267.133C237.862 266.122 230.116 267 223 267L223 266L249 266L249 265L220 265L220 264L250 264L250 263L216 261L216 260L250 260L250 258L213 258z"/>
<path style="fill:#5b5c6d; stroke:none;" d="M114 260L115 261L114 260z"/>
<path style="fill:#4d4f97; stroke:none;" d="M164.333 260.667L164.667 261.333L164.333 260.667z"/>
<path style="fill:#5b5c6d; stroke:none;" d="M166 260L166 261L200 261L166 260M114 262L114 263L132 263L114 262M165 262L166 263L165 262M249 262L250 263L249 262M252 262L253 263L252 262z"/>
<path style="fill:#bebfe4; stroke:none;" d="M114 263L114 264L133 264L114 263z"/>
<path style="fill:#4d4f97; stroke:none;" d="M165 263L166 264L165 263z"/>
<path style="fill:#5b5c6d; stroke:none;" d="M217 263L217 294L218 294L217 263z"/>
<path style="fill:#4d4f97; stroke:none;" d="M166 264L165 270L166 270L166 264z"/>
<path style="fill:#bebfe4; stroke:none;" d="M250.333 264.667L250.667 265.333L250.333 264.667z"/>
<path style="fill:#5b5c6d; stroke:none;" d="M113 266L113 267L135 267L113 266z"/>
<path style="fill:#010102; stroke:none;" d="M166 266L167 267L166 266z"/>
<path style="fill:#5b5c6d; stroke:none;" d="M223 266L223 267L249 267L223 266z"/>
<path style="fill:#bebfe4; stroke:none;" d="M113 267L113 273L135 273L135 274L114 275L114 277L131 277C126.862 280.877 121.358 280 116 280L116 281L127 281L127 283L117 283L117 284L125 284L125 285L119 285L133 294L133 276L134 276L134 295L138 295C138 288.326 140.717 272.596 134.44 268.028C129.998 264.795 118.355 267 113 267M249 267L250 268L249 267z"/>
<path style="fill:#5b5c6d; stroke:none;" d="M168 268L169 269L168 268M223 268L223 292L224 292L223 268z"/>
<path style="fill:#bebfe4; stroke:none;" d="M167 269L168 270L167 269z"/>
<path style="fill:#4c4de4; stroke:none;" d="M247.333 269.667L247.667 270.333L247.333 269.667z"/>
<path style="fill:#4d4f97; stroke:none;" d="M167 270L168 271L167 270z"/>
<path style="fill:#5b5c6d; stroke:none;" d="M170 270L170 271L191 271L170 270z"/>
<path style="fill:#bebfe4; stroke:none;" d="M168 271L170 274L168 271z"/>
<path style="fill:#4c4de4; stroke:none;" d="M227 271L227 272L244 272L227 271z"/>
<path style="fill:#5b5c6d; stroke:none;" d="M247 272L248 273L247 272z"/>
<path style="fill:#bebfe4; stroke:none;" d="M172 274L172 275L185 275L185 277L174 277L174 278L185 279L185 280L181 280L189 291L190 291L190 273L172 274z"/>
<path style="fill:#5b5c6d; stroke:none;" d="M226 273L226 291L229 290L226 273z"/>
<path style="fill:#bebfe4; stroke:none;" d="M139 275L139 295L143 295C143 288.724 145.272 278.459 139 275z"/>
<path style="fill:#4c4de4; stroke:none;" d="M229.333 275.667L229.667 276.333L229.333 275.667z"/>
<path style="fill:#5b5c6d; stroke:none;" d="M133 276L133 295L134 295L133 276z"/>
<path style="fill:#bebfe4; stroke:none;" d="M170 276L171 277L170 276z"/>
<path style="fill:#5b5c6d; stroke:none;" d="M171 276L172 277L171 276z"/>
<path style="fill:#bebfe4; stroke:none;" d="M245 276L245 277L248 277L245 276z"/>
<path style="fill:#5b5c6d; stroke:none;" d="M235 277L235 278L243 278L235 277M113 278L114 279L113 278M115 278L115 279L131 279L115 278M143 278L143 295L144 295L143 278z"/>
<path style="fill:#bebfe4; stroke:none;" d="M171.667 278.333L172.333 278.667L171.667 278.333z"/>
<path style="fill:#4c4de4; stroke:none;" d="M242 278L243 279L242 278z"/>
<path style="fill:#bebfe4; stroke:none;" d="M243 278L243 280L247 280L247 278L243 278M144 279L144 294C150.061 292.59 154.301 290.068 158 285L152 285L152 283L160 283L144 279z"/>
<path style="fill:#4d4f97; stroke:none;" d="M165 279L166 280L165 279z"/>
<path style="fill:#5b5c6d; stroke:none;" d="M172.667 279.333L173.333 279.667L172.667 279.333M242 279L243 280L242 279z"/>
<path style="fill:#bebfe4; stroke:none;" d="M113 280L114 281L113 280z"/>
<path style="fill:#5b5c6d; stroke:none;" d="M165 280L165 283L166 283L165 280z"/>
<path style="fill:#bebfe4; stroke:none;" d="M113 282L116 285L113 282z"/>
<path style="fill:#5b5c6d; stroke:none;" d="M117 282L117 283L127 283L117 282z"/>
<path style="fill:#4d4f97; stroke:none;" d="M160 282L152 283L152 284C154.469 284.01 161.254 285.622 160 282z"/>
<path style="fill:#bebfe4; stroke:none;" d="M165 283L165 295C169.268 292.2 167.101 286.867 165 283z"/>
<path style="fill:#5b5c6d; stroke:none;" d="M118 284L118 285L125 285L118 284M152 284L152 285L159 286L152 284M181 285L182 286L181 285z"/>
<path style="fill:#bebfe4; stroke:none;" d="M114 286C116.201 290.856 119.063 292.372 124 294C121.947 289.905 118.573 286.753 114 286z"/>
<path style="fill:#5b5c6d; stroke:none;" d="M157 286L158 287L157 286M183.667 286.333L184.333 286.667L183.667 286.333z"/>
<path style="fill:#4c4de4; stroke:none;" d="M229 286L230 287L229 286z"/>
<path style="fill:#5b5c6d; stroke:none;" d="M236 286L236 287L244 287L236 286M118 287L119 288L118 287M120 287L121 288L120 287M156 287L157 288L156 287z"/>
<path style="fill:#bebfe4; stroke:none;" d="M178 287L178 288L183 289L178 287M224 293L224 294L243 288C236.403 285.236 229.997 290.621 224 293z"/>
<path style="fill:#5b5c6d; stroke:none;" d="M121 288L122 289L121 288M155 288L156 289L155 288z"/>
<path style="fill:#4d4f97; stroke:none;" d="M158 288L159 289L158 288z"/>
<path style="fill:#5b5c6d; stroke:none;" d="M120 289L121 290L120 289M123.667 289.333L124.333 289.667L123.667 289.333z"/>
<path style="fill:#4d4f97; stroke:none;" d="M157 289L158 290L157 289z"/>
<path style="fill:#5b5c6d; stroke:none;" d="M180 289L180 290L186 290L180 289M187 289L188 290L187 289z"/>
<path style="fill:#bebfe4; stroke:none;" d="M155 290L155 292L157 290L155 290M181 290L181 291L187 293C186.271 289.597 184.194 290.013 181 290z"/>
<path style="fill:#5b5c6d; stroke:none;" d="M229.667 290.333L230.333 290.667L229.667 290.333M125.667 291.333L126.333 291.667L125.667 291.333z"/>
<path style="fill:#bebfe4; stroke:none;" d="M188 291L193 294L193 293L188 291z"/>
<path style="fill:#5b5c6d; stroke:none;" d="M124 292L124 294L126 294L124 292M149 292L150 293L149 292M152 292L153 293L152 292z"/>
<path style="fill:#bebfe4; stroke:none;" d="M153 292L153 294L155 292L153 292z"/>
<path style="fill:#5b5c6d; stroke:none;" d="M193 292L194 293L193 292M195 292L196 293L195 292M130 293L131 294L130 293M146 293L147 294L146 293z"/>
<path style="fill:#4c4de4; stroke:none;" d="M165 295L165 296L174 296L165 295z"/>
<path style="fill:#bebfe4; stroke:none;" d="M126.667 294.333L127.333 294.667L126.667 294.333z"/>
<path style="fill:#5b5c6d; stroke:none;" d="M129 294L130 295L129 294z"/>
<path style="fill:#bebfe4; stroke:none;" d="M193.667 294.333L194.333 294.667L193.667 294.333M197 294L198 295L197 294z"/>
<path style="fill:#5b5c6d; stroke:none;" d="M218 294L219 295L218 294z"/>
<path style="fill:#bebfe4; stroke:none;" d="M219 294L220 295L219 294M221 294L221 295L224 295L221 294z"/>
<path style="fill:#4d4f97; stroke:none;" d="M155.333 295.667L155.667 296.333L155.333 295.667M161 295L160 297L161 295M181.333 295.667L181.667 296.333L181.333 295.667z"/>
<path style="fill:#5b5c6d; stroke:none;" d="M112 296L113 297L112 296M129 296L129 297L132 297L129 296M136 296L136 297L142 297L136 296M144 296L144 297L148 297L144 296M153.667 296.333L154.333 296.667L153.667 296.333M161 296L162 297L161 296M165 296L166 297L165 296z"/>
<path style="fill:#bebfe4; stroke:none;" d="M166 296L172 303L172 304L166 311L191 311C187.138 308.111 182.115 307.439 178.148 304.647C172.105 300.395 175.204 296.033 166 296z"/>
<path style="fill:#5b5c6d; stroke:none;" d="M174 296L175 297L174 296z"/>
<path style="fill:#4d4f97; stroke:none;" d="M175.667 296.333L176.333 296.667L175.667 296.333z"/>
<path style="fill:#5b5c6d; stroke:none;" d="M182 296L183 297L182 296M201 296L201 297L215 297L201 296z"/>
<path style="fill:#4d4f97; stroke:none;" d="M184 297L185 298L184 297z"/>
<path style="fill:#5b5c6d; stroke:none;" d="M185 297L186 298L185 297M261 297L262 298L261 297M102 299L103 300L102 299M260 299L261 300L260 299z"/>
<path style="fill:#4d4f97; stroke:none;" d="M260 300L261 301L260 300z"/>
<path style="fill:#5b5c6d; stroke:none;" d="M103 301L106 303L106 302L103 301z"/>
<path style="fill:#4d4f97; stroke:none;" d="M103 302L104 303L103 302M118 303L118 310L119 310L118 303z"/>
<path style="fill:#5b5c6d; stroke:none;" d="M119 303L119 311L120 311L119 303M135 303L134 311L135 311L135 303z"/>
<path style="fill:#4d4f97; stroke:none;" d="M136 303L136 310L137 310L136 303M203 303L204 311L205 311L203 303z"/>
<path style="fill:#5b5c6d; stroke:none;" d="M204 303L204 310L205 310L204 303M240 303L240 311L241 311L240 303z"/>
<path style="fill:#4d4f97; stroke:none;" d="M241 303L243 310L241 303M260 304L261 305L260 304z"/>
<path style="fill:#5b5c6d; stroke:none;" d="M260 305L260 306L263 306L260 305M264 305L264 306L268 306L264 305z"/>
<path style="fill:#4d4f97; stroke:none;" d="M103 306L102 308L103 306z"/>
<path style="fill:#bebfe4; stroke:none;" d="M148 310L148 311L161 311C157.953 305.112 153.046 307.993 148 310M254 310L254 311C259.997 310.999 264.129 311.081 268 306L254 310z"/>
<path style="fill:#5b5c6d; stroke:none;" d="M103 307L104 308L103 307z"/>
<path style="fill:#bebfe4; stroke:none;" d="M98 308L106 311L98 308z"/>
<path style="fill:#4d4f97; stroke:none;" d="M105 309L106 310L105 309M161 309L162 310L161 309M165 309L166 310L165 309z"/>
<path style="fill:#5b5c6d; stroke:none;" d="M189 309L190 310L189 309z"/>
<path style="fill:#4d4f97; stroke:none;" d="M190 309L191 310L190 309z"/>
<path style="fill:#5b5c6d; stroke:none;" d="M255 309L256 310L255 309M106.667 310.333L107.333 310.667L106.667 310.333z"/>
<path style="fill:#4d4f97; stroke:none;" d="M135 310L136 311L135 310M146 310L147 311L146 310z"/>
<path style="fill:#5b5c6d; stroke:none;" d="M147 310L148 311L147 310M161 310L162 311L161 310M165 310L166 311L165 310M191.667 310.333L192.333 310.667L191.667 310.333M205 310L206 311L205 310z"/>
<path style="fill:#4d4f97; stroke:none;" d="M252 310L253 311L252 310z"/>
<path style="fill:#5b5c6d; stroke:none;" d="M253 310L254 311L253 310z"/>
</svg>
