<?xml version="1.0" standalone="yes"?>
<svg xmlns="http://www.w3.org/2000/svg" width="1378" height="2000">
<path style="fill:#010101; stroke:none;" d="M0 0L0 626C55.7522 621.6 113.034 625 169 625L480 625L593 625C603.745 625 625.177 620.451 630.656 632.004C633.81 638.653 632 648.779 632 656L632 710C632 716.595 634.52 729.809 630.146 735.165C620.771 746.643 603.147 755.078 590.985 763.505C564.022 782.19 537.239 801.179 510.325 819.96C421.578 881.887 333.669 944.974 245 1007L245 1008L266 1012L266 1116L267 1116L267 1012C280.854 1013.14 277 1027.38 277 1038L277 1118L278 1118L278 1014C292.531 1015.16 289 1027.52 289 1039C289 1064.72 292.696 1093.71 288 1119C292.762 1114.84 290 1099.14 290 1093L290 1017L346 1026L346 1092L345 1130C349.864 1125.75 347 1109.29 347 1103L347 1026L399 1035.24L436 1042L436 1110L435 1146C439.864 1141.75 437 1125.29 437 1119L437 1042C446.667 1045.06 467.196 1043.15 474.397 1050.7C478.784 1055.3 476 1070.93 476 1077L476 1153L477 1153L477 1050L487 1051L487 1119L486 1155C490.762 1150.84 488 1135.14 488 1129L488 1052C492.566 1052.36 507.462 1053.56 509.972 1057.32C513.72 1062.93 511 1077.37 511 1084C511 1108.15 514.409 1135.25 510 1159C514.762 1154.84 512 1139.14 512 1133L512 1057L516 1057L516 1127C516 1137.66 518.213 1151.06 514 1161C519.68 1159.78 517 1141.22 517 1136L517 1057L521 1057L521 1161C525.762 1156.84 523 1141.14 523 1135L523 1059L527 1059L527 1126L526 1162C530.762 1157.84 528 1142.14 528 1136L528 1059L578 1068L578 1137C578 1148.18 580.039 1161.46 576 1172L580 1172L579 1134L579 1068C583.508 1068.93 597.498 1069.61 599.972 1073.32C603.72 1078.93 601 1093.37 601 1100C601 1123.49 605.438 1152.16 600 1175C604.762 1170.84 602 1155.14 602 1149L602 1072C615.75 1075.32 612 1086.76 612 1099L612 1177L613 1177L613 1075C619.879 1075 638.382 1075.59 643.397 1080.6C647.802 1085.01 645 1101.07 645 1107L645 1184L646 1184L647 1148L647 1080C655.208 1082.49 652 1098.01 652 1105C652 1129.71 656.72 1159.98 651 1184C655.762 1179.84 653 1164.14 653 1158L653 1081C660.013 1084.87 657 1099.92 657 1107C657 1132.41 660.638 1161.02 656 1186C661.68 1184.78 659 1166.22 659 1161L659 1082C665.402 1083.69 678.803 1083.42 683.397 1088.51C687.667 1093.25 685 1107.91 685 1114C685 1138.1 689.579 1167.57 684 1191C689.635 1189.79 687 1172.13 687 1167L687 1088C701.004 1088.05 697 1102.4 697 1113L697 1172C697 1177.37 694.764 1189.3 699 1193L698 1157L698 1090L710 1091L710 1171C710 1177.94 712.671 1194.24 705.683 1198.82C701.992 1201.24 695.21 1200 691 1200L657 1200L525 1200L172 1200L59 1200C39.8984 1200 18.7973 1202.49 0 1199L0 2000L1378 2000L1378 1202L935 1202L807 1202L770 1202C765.038 1202 757.79 1203.32 753.143 1201.4C744.503 1197.83 746 1185.3 746 1178L746 1118C746 1111.72 743.722 1099.83 747.024 1094.34C751.632 1086.67 764.731 1081.23 771.83 1076C793.671 1059.92 816.072 1044.43 838.525 1029.28C906.07 983.693 970.889 933.752 1038.44 888.091C1062.57 871.774 1087 855.212 1110.17 837.5C1116.73 832.486 1131.19 826.942 1134 819L1102 815L1102 710L1101 710L1100 744L1100 813C1091.25 812.97 1081.7 810.657 1073 809.246C1070.08 808.772 1065.8 808.688 1063.6 806.411C1059.1 801.729 1062 785.221 1062 779L1062 703L1061 703L1061 806C1046.78 805.95 1051 790.706 1051 780C1051 753.875 1053.85 725.897 1051 700L1050 700L1050 804L1033 801L1033 699L1032 699L1032 801C1018.02 800.874 1022 786.528 1022 776L1022 696L1021 696L1021 800C1007.24 798.136 1011 784.982 1011 774L1011 693L1010 693L1010 797L993 795L993 695L992 695L992 793L971 791L971 687L970 687L970 790C964.208 789.294 948.721 788.517 944.603 784.397C940.198 779.988 943 763.935 943 758L943 683L942 683L942 784L937 784L937 681L936 681L936 784L926 783L926 679L925 679L925 782C918.785 781.51 902.804 781.401 898.603 776.566C894.232 771.535 897 756.389 897 750C897 725.899 892.421 696.434 898 673C893.137 677.25 896 693.714 896 700L896 777L886 775L886 671L885 671L885 775L868 772L868 670L867 670L867 772L857 770L857 695C857 687.375 854.296 673.209 859 667L859 666C853.32 667.217 856 685.776 856 691L856 770L846 768L846 702L847 664C842.137 668.25 845 684.714 845 691L845 768C839.641 767.467 822.084 766.007 819.028 761.566C815.154 755.938 818 740.717 818 734L818 660L817 660L816 694L816 763C811.835 762.462 803.537 762.307 801.603 757.853C798.704 751.175 801 739.237 801 732L801 683C801 674.495 799.629 664.956 803 657L800 656L799 690L799 759C791.879 758.976 785.934 755.531 779 755.054C775.568 754.818 770.323 755.901 768.028 752.566C764.266 747.101 767 732.512 767 726C767 702.204 762.491 673.138 768 650C763.136 654.25 766 670.714 766 677L766 754L751.028 749.682L750 722L750 648L749 648L749 750L745 750L745 646L744 646L744 750L734 748L734 644L733 644L733 748C723.525 746.489 727 730.33 727 723L727 644L726 644L726 746L722 746L722 680L723 642C717.32 643.217 720 661.776 720 667L720 746C713.214 742.258 716 728.818 716 722L716 665C716 658.374 713.884 647.434 718 642L718 641C712.32 642.217 715 660.776 715 666L715 745L693 741L693 672C693 660.816 690.961 647.541 695 637L691 637L692 675L692 741C677.579 736.489 681 726.375 681 713C681 687.907 677.419 659.675 682 635C677.238 639.161 680 654.864 680 661L680 737L676 737L676 663C676 655.375 673.296 641.209 678 635L678 634C672.365 635.207 675 652.867 675 658L675 737L670 737L671 629L754 628L908 628L1378 628L1378 0L0 0z"/>
<path style="fill:#eb01a8; stroke:none;" d="M644 519L645 554L645 621L650 621L650 554L651 519L644 519z"/>
<path style="fill:#94016a; stroke:none;" d="M644 520L644 621L645 621L645 551L644 520M650 520L650 621L652 621L652 520L650 520M646 621L646 623L650 623L650 621L646 621z"/>
<path style="fill:#013161; stroke:none;" d="M0 626L0 630C14.8109 623.088 36.8588 627 53 627L170 627L481 627L578 627C593.561 627 611.841 624.391 627 628L627 630C607.958 639.708 590.127 655.684 572.83 668.265C535.972 695.076 498.02 720.533 460.83 746.961C364.889 815.14 267.814 881.549 172 949.78C132.142 978.164 92.1234 1006.25 52 1034.21C36.7059 1044.86 18.1262 1064.07 0 1069L0 1071L63 1081.39L179 1102.56L547 1168.42L648 1186.42L705 1196L705 1197L0 1198L0 1199C17.2297 1203.1 38.3024 1200 56 1200L170 1200L532 1200L660 1200L693 1200C696.704 1200 703.271 1201.21 706.401 1198.82C712.748 1193.97 710 1177.82 710 1171L710 1091L707 1091L707 1193L706 1193L706 1091L702 1090L702 1191L701 1191L701 1090L698 1090L698 1159L699 1193C694.181 1186.64 697 1171.82 697 1164L697 1089L696 1089L696 1190L695 1190L694 1155L694 1088L687 1088L687 1165C687 1171.47 689.888 1187.18 684 1191L685 1157L685 1088L684 1088L684 1188L683 1188L683 1112C683 1105.29 685.877 1090.24 680 1086L680 1154L681 1190C674.115 1184.61 677 1170.94 677 1163L677 1086L675 1086L675 1186L672 1186L672 1084L664 1084L664 1158C664 1165.63 666.704 1179.79 662 1186L661 1082L659 1082L659 1160C659 1166.47 661.888 1182.18 656 1186L657 1150L657 1082L656 1082L656 1182L655 1182L655 1081L653 1081L653 1156C653 1163.63 655.704 1177.79 651 1184C653.448 1175.72 652 1165.61 652 1157L652 1104C652 1097.46 655.272 1081.38 647 1080L647 1146L646 1184L645 1184L645 1080L644 1080L644 1180L643 1180L643 1079L639 1079L639 1180L638 1180L638 1079L635 1079L635 1179L632 1179L632 1077L613 1075L613 1177L612 1177L609 1175L609 1073L602 1072L602 1147C602 1154.63 604.704 1168.79 600 1175L601 1149L601 1100L600.397 1073.32L590 1071L590 1171L587 1171L587 1070L584 1070L584 1173L583 1173L581 1132L581 1068L579 1068L579 1136L580 1172L576 1172C580.524 1163.31 578 1149.63 578 1140L578 1068L573 1068L573 1170L572 1170L569 1168L569 1066L566 1066L566 1166L565 1166L565 1092L563.972 1065.74L548 1062L548 1164L547 1164L547 1062L544 1062L544 1162L541 1162L541 1061L537 1061L537 1161L536 1161L536 1060L528 1059L528 1134C528 1141.63 530.704 1155.79 526 1162L527 1128L527 1059L523 1059L523 1161L518 1159L518 1057L517 1057L517 1135C517 1141.47 519.888 1157.18 514 1161C518.559 1152.46 516 1138.55 516 1129L516 1057L512 1057L512 1159L507 1157L507 1055L499 1055L499 1129C499 1136.63 501.704 1150.79 497 1157L496 1053L493 1053L493 1153L490 1153L490 1052L488 1052L488 1127C488 1134.63 490.704 1148.79 486 1155L487 1121L487 1051L477 1050L477 1153L476 1153L476 1050L474 1050L474 1150L472 1150L472 1049L471 1049L471 1150L467 1150L467 1048L465 1048L465 1148L462 1148L462 1046L454 1046L454 1146L451 1146L451 1044L441 1043L441 1144L440 1144L440 1068C440 1061.29 442.877 1046.24 437 1042L437 1117C437 1124.82 439.819 1139.64 435 1146L436 1112L436 1042L426 1042L426 1117C426 1124.32 428.981 1138.72 422 1143L422 1041L420 1041L420 1108L419 1143L418 1143L418 1039L414 1039L414 1139L411 1139L411 1037L403 1037L403 1141L402 1141C397.429 1106.45 400 1070.04 400 1035L394 1035L394 1135L393 1135L393 1034L380 1033L380 1133L377 1133L377 1032L374 1032L374 1132L371 1132L371 1030L362 1030L362 1130L360 1130L360 1028L351 1027L351 1128L350 1128L350 1026L347 1026L347 1101C347 1108.82 349.819 1123.64 345 1130L346 1094L346 1026L339 1026L339 1126L338 1126L338 1024L329 1024L329 1124L326 1124L326 1023L324 1023L324 1123L320 1123L320 1021L311 1021L311 1095C311 1101.22 313.791 1116.81 309 1121L309 1019L302 1019L302 1119L297 1119L297 1017L290 1017L290 1119C283.115 1113.61 286 1099.94 286 1092L286 1015L283 1015L283 1115L281 1115L281 1014L278 1014L278 1118L277 1118L277 1038C277 1029.7 280.524 1015.09 271 1012L271 1113L270 1113L270 1012L267 1012L267 1116L266 1116L266 1012L257 1012L257 1112L252 1112L252 1010L250 1010L250 1110L246 1110L246 1008C235.412 1010.58 239 1024.2 239 1033L239 1108L235 1108L235 1010L234 1010L233 1042L233 1106L230 1106L230 1012L224 1013L224 1106L181 1099L181 1025L180 1025L180 1097L170 1097L170 1028L165 1029L165 1077C165 1081.12 166.825 1091.22 163.397 1094.2C159.54 1097.56 140.529 1091.82 135.718 1090.44C130.619 1088.97 123.085 1089.09 119 1086L102 1085L102 1046L101 1046L101 1083L64.4244 1077.28L51.0278 1073.59L50 1060L49 1060L48 1076C40.0559 1070.43 23.5687 1069.27 14 1068L20 1060C26.6476 1059.5 31.3802 1054.42 36.375 1050.49C44.5831 1044.04 53.7787 1037.85 62.3603 1031.88C67.8023 1028.09 74.2445 1027.19 76 1020C80.8687 1020.73 83.8306 1016.06 87.9645 1013.76C97.7444 1008.31 119.039 997.818 123 987L126 988C133.43 975.836 158.289 973.427 163 959C170.242 957.833 175.381 952.354 180.92 948.058C188.773 941.967 197.317 937.004 205.285 930.84C210.599 926.73 217.22 926.29 219 919C233.309 917.105 250.921 899.956 261.959 891.053C266.751 887.189 272.742 886.266 275 880L278 881L280 877L284 878L290 874L295 867L301 862C306.83 862.639 313.382 857.514 315 852C325.122 850.492 333.885 841.583 341.579 835.491C354.122 825.56 369.08 818.845 381.004 807.884C386.468 802.86 394.637 801.706 397 794L408.83 789.275L437.579 768.171L447 760C451.526 759.242 457.191 755.667 458 751C464.793 749.948 476.447 744.169 478 737L498 727C500.81 721.26 506.293 720.621 510.961 716.896C522.738 707.497 539.161 691.85 554 688C555.924 681.518 561.816 681.108 566.791 677.718C577.083 670.707 587.153 662.796 597.035 655.289C601.825 651.651 608.88 650.625 610 644C614.887 643.272 619.892 641.083 621 636L632 634C626.406 620.15 606.52 625 594 625L482 625L163 625L59 625C39.4987 625 19.347 623.555 0 626z"/>
<path style="fill:#0189f1; stroke:none;" d="M0 1069L15.9853 1060.37L53 1034.21L174 949.089L414 780.039L627 630L627 628C612.854 623.818 593.757 627 579 627L478 627L148 627L37 627C29.4818 627 5.52313 623.148 1.02778 630.279C-3.34225 637.21 0 654.885 0 663L0 749L0 1069z"/>
<path style="fill:#013161; stroke:none;" d="M671 629L670 737L672 737L672 635L673 635L673 737L675 737L675 660C675 653.529 672.112 637.817 678 634L678 635C673.238 639.161 676 654.864 676 661L676 737L680 737L680 635L685 637L685 739L688 739L688 639L690 639L690 741L692 741L692 673L691 637L695 637C690.476 645.694 693 659.37 693 669L693 741L699 741L699 641L702 641L702 743L710 743L710 643L713 643L713 711L714 745L715 745L715 667C715 660.529 712.112 644.817 718 641L718 642C713.238 646.161 716 661.864 716 668L716 745L717 745L717 645L718 645L718 746L720 746L720 668C720 661.529 717.112 645.817 723 642L722 678L722 746L726 746L726 644L727 644L730 646L730 748L733 748L733 644L734 644L734 748L740 750L740 648L741 648L741 750L744 750L744 646L745 646L745 750L749 750L749 648L750 648L753 650L753 752L762 753L762 652L763 652L763 754L766 754L766 679C766 671.177 763.181 656.361 768 650L767 684L767 754L769 754L769 654L770 654L770 755L783 755C783 722.341 778.041 685.095 784 653L785 653L786 691L786 757L789 757L789 657L792 657L792 759L799 759L799 684C799 676.236 796.152 661.727 802 656C807.411 689.546 803 727.014 803 761L807 761L807 661L810 661L810 739C810 746.305 806.444 761.9 816 763L816 696L817 660L818 660L818 763L820 763L820 663L821 663L821 764L829 764L829 664L832 664L832 766L838 766L838 666L839 666L839 734L840 768L841 768L841 666L843 666L843 768L845 768L845 693C845 685.177 842.181 670.361 847 664L846 700L846 768L849 768L849 668L850 668L850 746C850 753.305 846.444 768.9 856 770L856 692C856 685.529 853.112 669.817 859 666L859 667C854.238 671.161 857 686.864 857 693L857 770L860 770L860 670L861 670L861 771L867 772L867 670L868 670L868 772L874 772L874 672L878 672L878 748C878 754.712 875.123 769.761 881 774L881 673L882 673L882 775L885 775L885 671L886 671L886 775L891 775L891 701C891 693.375 888.296 679.209 893 673L894 777L896 777L896 702C896 694.177 893.181 679.361 898 673L897 707L897 777L898 777L898 677L900 677L900 779L905 779L905 677L906 677L906 779L909 779L909 679L911 679L911 757C911 763.539 907.728 779.62 916 781L916 679L917 679L917 781L920 781L920 681L923 681L923 782L925 782L925 679L926 679L926 783L927 783L927 682L928 682L928 760C928 768.942 924.036 783.858 936 784L936 681L937 681L937 784L942 784L942 683L946 684L946 786L950 786L950 684L951 684L951 786L953 786L953 684C959.885 689.385 957 703.057 957 711L957 788L964 788L964 686C970.885 691.385 968 705.057 968 713L968 790L970 790L970 687L971 687C976.856 711.922 973 741.324 973 767C973 773.636 969.638 790.605 978 792L978 692L980 692L980 793L992 793L992 692L997 693L997 795L999 795L999 695L1002 695L1002 797L1010 797L1010 693L1011 693L1011 697L1014 697L1014 799L1017 799L1017 699L1020 699L1020 800L1021 800L1021 696L1022 696L1022 776C1022 787.009 1017.75 800.959 1032 801L1032 699L1033 699L1033 801L1038 801L1038 701L1042 701L1042 802L1044 802L1044 700L1045 700L1048 702L1048 804L1050 804L1050 700L1051 700L1051 704C1055.7 710.209 1053 724.375 1053 732L1053 806L1061 806L1061 703L1062 703L1065 706L1065 808L1068 808L1068 708L1070 708L1070 809L1075 810L1075 708L1076 708L1076 810L1084 810L1084 710L1087 710L1087 811L1091 812L1091 711L1093 711L1093 813L1100 813L1100 746L1101 710L1105 713L1105 815L1115 817L1115 715L1116 715L1116 817L1124 817L1124 717L1127 717L1127 819L1134 819L1134 719L1138 719L1138 819C1144.97 816.686 1142 801.167 1142 795L1142 721L1144 721L1144 818C1154.51 814.885 1151 802.152 1151 793L1151 720L1152 720L1152 815L1153 815L1153 722L1171 724L1171 810L1174 810L1174 726L1197 729C1202.37 751.549 1198 779.812 1198 803C1205.51 801.361 1203 791.09 1203 785L1203 731L1222 733L1222 797L1223 797L1223 733L1243 737L1243 792L1244 792L1244 739L1271 742L1271 784L1272 784L1272 744L1282 744L1282 781L1283 781L1283 746L1294 746L1294 778L1296 778L1296 748L1368 760L1368 761C1363.45 761.62 1360.34 763.496 1359 768C1353.03 768.415 1345.07 772.748 1344 779C1333.27 779.691 1325.17 790.316 1316.78 796.042C1295.16 810.803 1274.39 827.597 1252.39 841.736C1243.23 847.615 1225.68 855.03 1221 865C1217.71 864.931 1216.95 865.859 1216 869C1208.64 870.14 1199.68 876.575 1196 883L1192 882C1187.73 886.507 1182.33 892.053 1176 893L1170 901C1163.53 901.209 1146.75 913.024 1145 919C1127.75 921.67 1116.86 942.02 1101 947L1078 966L1074 965L1064 976C1048.45 978.408 1033.37 995.351 1020.96 1004.12C990.865 1025.39 957.997 1044.43 929.375 1067.73C918.412 1076.66 906.724 1084.64 894.83 1092.26C890.352 1095.13 886.261 1100.15 881 1101L875 1109L861 1116L861 1119C853.114 1119.51 849.581 1124.65 843.78 1129.14C834.052 1136.67 823.532 1143.28 813.129 1149.59C810.411 1151.24 809.033 1154.02 806 1155L799 1163L794 1166L785 1168L783 1174L780 1173C775.88 1177.58 766.148 1185.53 760 1186C757.2 1190.51 753.098 1192.73 748 1194L748 1093L746 1093L746 1173C746 1181.34 743.259 1195.49 751.545 1200.99C754.862 1203.19 761.195 1202 765 1202L797 1202L919 1202L1378 1202L1378 1201L951 1201L817 1201C796.558 1201 771.889 1204.74 752 1200L752 1198L807.17 1159.04L928.17 1073.89L1247 850.029L1338 785.911L1378 758L1378 757L1322 747.374L1201 725.46L871 666.54L743 643.576L679 632L679 630L1378 630L1378 628L901 628L749 628C723.907 628 695.675 624.419 671 629z"/>
<path style="fill:#0189f1; stroke:none;" d="M679 630L679 632L792 652.576L1171 720.435L1299 743.374L1378 757L1378 630L679 630M621 636C619.275 640.706 614.688 642.784 610 644C608.227 649.765 602.383 650.954 597.819 654.189C587.312 661.635 577.203 669.472 566.791 677.099C561.841 680.724 555.147 681.009 554 688C543.833 689.514 536.875 697.965 529.192 703.872C523.232 708.454 516.729 711.351 510.961 716.265C506.369 720.176 499.878 720.677 498 727L478 737C475.481 743.933 464.813 749.158 458 751C456.646 755.3 451.245 758.732 447 760C444.722 764.261 440.31 765.031 436.857 768.171C432.707 771.944 427.829 773.671 423.455 776.918C415.956 782.486 407.072 794.004 397 794L381.004 807.171L341.579 834.93L315 852C312.462 857.205 306.864 861.553 301 862L295 867L290 874L284 878L280 877L278 881L275 880C271.779 885.905 266.055 886.989 261.17 891.053C250.071 900.288 233.198 915.824 219 919C216.329 925.741 210.658 926.355 205.285 930.289C192.761 939.463 178.135 954.615 163 959C157.877 968.479 143.206 974.713 134.741 980.96C131.324 983.481 127.661 983.851 126 988L123 987C116.83 998.055 97.8678 1007.73 87.0008 1013.76C83.0831 1015.93 80.5801 1019.81 76 1020C73.2392 1026.97 67.1665 1027.85 61.5903 1031.88C53.2515 1037.9 44.6357 1043.76 36.375 1049.87C31.2188 1053.68 26.6316 1059.01 20 1060L14 1068L48 1076L49 1060L50 1060L51.0278 1074.36L64 1077.55L101 1083L101 1046L102 1046L102 1085L119 1086C121.913 1089.33 131.193 1089.32 135.718 1090.71C140.422 1092.14 159.51 1097.66 163.397 1094.8C166.83 1092.28 165 1081.79 165 1078L165 1029L170 1028L170 1097L180 1097L180 1025L181 1025L181 1099L224 1106L224 1013L230 1012L230 1106L233 1106L233 1043L234 1010L235 1010L235 1108L239 1108L239 1041C239 1033.05 236.382 1019.53 239.603 1012.22C242.085 1006.6 253.686 1001.65 258.576 998C276.934 984.296 296.092 971.335 314.961 958.333C380.818 912.954 444.555 864.164 511.184 819.96C540.398 800.578 568.462 779.573 597.286 759.646C606.686 753.147 625.795 744.742 631.146 734.447C634.485 728.023 632 715.158 632 708L632 659C632 650.688 633.364 640.999 631 633L621 636M672 635L672 737L673 737L673 666L672 635z"/>
<path style="fill:#010101; stroke:none;" d="M688.333 635.667L688.667 636.333L688.333 635.667z"/>
<path style="fill:#0189f1; stroke:none;" d="M681 637L681 714C681 720.274 677.939 736.657 685 739L685 637L681 637z"/>
<path style="fill:#010101; stroke:none;" d="M698 637L698 640L699 640L700 637L698 637z"/>
<path style="fill:#0189f1; stroke:none;" d="M688 639L688 707L689 741L690 741L690 639L688 639z"/>
<path style="fill:#010101; stroke:none;" d="M704 639L704 641L706 639L704 639z"/>
<path style="fill:#0189f1; stroke:none;" d="M699 641L699 742L702 742L702 641L699 641z"/>
<path style="fill:#010101; stroke:none;" d="M709.667 641.333L710.333 641.667L709.667 641.333z"/>
<path style="fill:#0189f1; stroke:none;" d="M710 643L710 744L713 744L713 643L710 643z"/>
<path style="fill:#013161; stroke:none;" d="M454 653C453.089 641.02 433.302 642.963 428.009 651.094C423.649 657.793 425.663 668.863 433.005 672.427C436.623 674.185 443.692 672.966 444.623 678.054C446.484 688.218 430.378 680.171 429.466 687.17C428.719 692.904 449.214 692.688 451.258 688.682C453.364 684.555 454.981 669.843 449.852 667.603C445.033 665.499 439.46 668.548 435.529 663.772C425.142 651.156 448.926 652.779 454 653M469 668C466.498 674.079 462.029 681.582 467.573 687.606C471.688 692.079 489.043 694.914 491.248 686.795C493.477 678.589 474.3 689.599 473.176 679.957C472.219 671.744 484.774 675.204 485.534 669C486.234 663.287 473.619 666.055 471.851 659.957C468.546 648.557 485.498 653.511 489.851 652.592C493.639 651.792 492.443 647.817 489.851 646.318C483.692 642.754 471.377 644.506 466.558 649.529C461.301 655.008 462.289 664.489 469 668z"/>
<path style="fill:#0189f1; stroke:none;" d="M717 645L717 746L718 746L718 676L717 645z"/>
<path style="fill:#010101; stroke:none;" d="M431 686C432.745 690.962 444.345 692.022 448.397 688.821C451.121 686.668 450.962 679.183 450.981 676.001C450.994 673.701 451.073 670.78 448.682 669.603C444.327 667.46 439.42 669.866 435.228 666.347C427.455 659.822 434.72 650.087 443 650.03C446.03 650.009 449.007 650.622 452 651C448.119 639.924 429.481 648.09 427.548 657C424.185 672.5 439.17 667.643 445.397 673.742C455.401 683.542 436.156 686 431 686M490 684C484.684 684.9 464.265 687.432 472.743 675.109C475.899 670.522 482.223 672.355 484 667C476.18 666.934 462.853 659.328 474.059 651.742C478.924 648.449 485.632 650.576 491 651C486.332 642.981 470.488 645.387 466.318 653.043C462.093 660.8 469.382 662.899 470.374 669.17C471.172 674.213 465.247 677.928 467.603 683.957C470.827 692.205 487.342 692.443 490 684z"/>
<path style="fill:#0189f1; stroke:none;" d="M727 646L727 722C727 728.471 724.112 744.183 730 748L730 646L727 646z"/>
<path style="fill:#010101; stroke:none;" d="M737.667 646.333L738.333 646.667L737.667 646.333z"/>
<path style="fill:#0189f1; stroke:none;" d="M740 648L740 750L741 750L741 679L740 648z"/>
<path style="fill:#010101; stroke:none;" d="M755 648L755 650L757 648L755 648z"/>
<path style="fill:#0189f1; stroke:none;" d="M750 650L750 726C750 732.471 747.112 748.183 753 752L753 650L750 650z"/>
<path style="fill:#010101; stroke:none;" d="M760.333 650.667L760.667 651.333L760.333 650.667z"/>
<path style="fill:#0189f1; stroke:none;" d="M762 652L762 753L763 753L763 683L762 652z"/>
<path style="fill:#010101; stroke:none;" d="M773 652L774 653L773 652M778 652L779 653L778 652M784.333 653.667L784.667 654.333L784.333 653.667z"/>
<path style="fill:#0189f1; stroke:none;" d="M769 654L769 755L770 755L770 685L769 654z"/>
<path style="fill:#010101; stroke:none;" d="M789.333 654.667L789.667 655.333L789.333 654.667z"/>
<path style="fill:#0189f1; stroke:none;" d="M783 655L783 731C783 737.471 780.112 753.183 786 757L786 655L783 655z"/>
<path style="fill:#010101; stroke:none;" d="M794 657L797 655L794 657z"/>
<path style="fill:#0189f1; stroke:none;" d="M789 657L789 733C789 739.471 786.112 755.183 792 759L792 657L789 657z"/>
<path style="fill:#010101; stroke:none;" d="M805 657L807 659L807 657L805 657z"/>
<path style="fill:#0189f1; stroke:none;" d="M801 659L801 727L802 761L803 761L803 659L801 659z"/>
<path style="fill:#010101; stroke:none;" d="M811 659L811 661L814 661L814 659L811 659z"/>
<path style="fill:#0189f1; stroke:none;" d="M807 661L807 762L810 762L810 661L807 661z"/>
<path style="fill:#010101; stroke:none;" d="M823.667 661.333L824.333 661.667L823.667 661.333M829 661L830 662L829 661M834 662L834 664L836 664L836 662L834 662z"/>
<path style="fill:#0189f1; stroke:none;" d="M820 663L820 764L821 764L821 694L820 663M829 664L829 740C829 746.471 826.112 762.183 832 766L832 664L829 664M838 666L838 767L839 767L839 697L838 666M841 666L841 768L843 768L843 666L841 666z"/>
<path style="fill:#010101; stroke:none;" d="M851 666L851 668L853 666L851 666z"/>
<path style="fill:#0189f1; stroke:none;" d="M849 668L849 769L850 769L850 699L849 668z"/>
<path style="fill:#010101; stroke:none;" d="M863.333 668.667L863.667 669.333L863.333 668.667M868.667 668.333L869.333 668.667L868.667 668.333z"/>
<path style="fill:#0189f1; stroke:none;" d="M860 670L860 771L861 771L861 701L860 670z"/>
<path style="fill:#010101; stroke:none;" d="M874.667 670.333L875.333 670.667L874.667 670.333M880 670L880 673L881 673L880 670z"/>
<path style="fill:#013161; stroke:none;" d="M399.015 671.657C386.693 675.454 392.724 694.796 404.985 691.181C417.379 687.528 411.71 667.745 399.015 671.657z"/>
<path style="fill:#0189f1; stroke:none;" d="M874 672L874 773L878 773L878 672L874 672z"/>
<path style="fill:#010101; stroke:none;" d="M398.094 674.028C388.456 679.286 396.538 693.89 405.942 688.82C415.414 683.714 407.538 668.875 398.094 674.028z"/>
<path style="fill:#0189f1; stroke:none;" d="M881 673L881 775L882 775L882 704L881 673z"/>
<path style="fill:#010101; stroke:none;" d="M891 673L891 675L893 673L891 673z"/>
<path style="fill:#013161; stroke:none;" d="M401.019 675.762C393.553 676.928 395.69 688.709 402.985 687.458C410.377 686.189 408.628 674.573 401.019 675.762z"/>
<path style="fill:#0189f1; stroke:none;" d="M891 675L891 751C891 757.471 888.112 773.183 894 777L894 675L891 675z"/>
<path style="fill:#010101; stroke:none;" d="M902 675L902 677L904 677L904 675L902 675z"/>
<path style="fill:#0189f1; stroke:none;" d="M400.315 678.072C396.309 680.475 399.441 687.149 403.853 684.914C408.729 682.443 404.873 675.338 400.315 678.072M898 677L898 778L900 778L900 677L898 677M905 677L905 779L906 779L906 708L905 677z"/>
<path style="fill:#010101; stroke:none;" d="M914.333 677.667L914.667 678.333L914.333 677.667z"/>
<path style="fill:#0189f1; stroke:none;" d="M909 679L909 780L911 780L911 679L909 679M916 679L916 781L917 781L917 710L916 679z"/>
<path style="fill:#010101; stroke:none;" d="M931.333 680.667L931.667 681.333L931.333 680.667z"/>
<path style="fill:#0189f1; stroke:none;" d="M920 681L920 782L923 782L923 681L920 681M927 682L927 783L928 783L928 713L927 682M943 684L943 760C943 766.471 940.112 782.183 946 786L946 684L943 684M950 684L950 786L951 786L951 715L950 684z"/>
<path style="fill:#010101; stroke:none;" d="M953 684L955 686L955 684L953 684M959 686L962 684L959 686z"/>
<path style="fill:#0189f1; stroke:none;" d="M953 686L953 763C953 769.274 949.939 785.657 957 788L957 686L953 686z"/>
<path style="fill:#010101; stroke:none;" d="M964 686L964 688L966 688L966 686L964 686z"/>
<path style="fill:#0189f1; stroke:none;" d="M964 688L964 765C964 771.274 960.939 787.657 968 790L968 688L964 688z"/>
<path style="fill:#010101; stroke:none;" d="M975 688L975 690L977 690L977 688L975 688z"/>
<path style="fill:#0189f1; stroke:none;" d="M971 690L971 791L973 791L973 690L971 690z"/>
<path style="fill:#010101; stroke:none;" d="M981 690L981 692L983 690L981 690z"/>
<path style="fill:#0189f1; stroke:none;" d="M978 692L978 793L980 793L980 692L978 692z"/>
<path style="fill:#010101; stroke:none;" d="M992.333 692.667L992.667 693.333L992.333 692.667z"/>
<path style="fill:#0189f1; stroke:none;" d="M992 694L993 729L993 795L997 795L997 693L992 694z"/>
<path style="fill:#010101; stroke:none;" d="M1004 693L1004 695L1006 695L1006 693L1004 693z"/>
<path style="fill:#0189f1; stroke:none;" d="M999 695L999 771C999 777.471 996.112 793.183 1002 797L1002 695L999 695M1011 697L1011 773C1011 779.712 1008.12 794.761 1014 799L1014 697L1011 697M1017 699L1017 800L1020 800L1020 699L1017 699z"/>
<path style="fill:#010101; stroke:none;" d="M1039 699L1040 700L1039 699M1044.33 700.667L1044.67 701.333L1044.33 700.667z"/>
<path style="fill:#0189f1; stroke:none;" d="M1038 701L1038 802L1042 802L1042 701L1038 701M1043 703L1044 738L1044 804L1048 804L1048 702L1043 703z"/>
<path style="fill:#010101; stroke:none;" d="M1054 702L1055 704L1056 704L1057 702L1054 702z"/>
<path style="fill:#0189f1; stroke:none;" d="M1051 704L1051 772L1052 806L1053 806L1053 704L1051 704M1062 706L1062 782C1062 788.471 1059.11 804.183 1065 808L1065 706L1062 706z"/>
<path style="fill:#010101; stroke:none;" d="M1072.33 706.667L1072.67 707.333L1072.33 706.667z"/>
<path style="fill:#0189f1; stroke:none;" d="M1068 708L1068 809L1070 809L1070 708L1068 708M1075 708L1075 810L1076 810L1076 739L1075 708z"/>
<path style="fill:#010101; stroke:none;" d="M1090.33 708.667L1090.67 709.333L1090.33 708.667z"/>
<path style="fill:#0189f1; stroke:none;" d="M1084 710L1084 811L1087 811L1087 710L1084 710M1091 711L1091 813L1093 813L1093 711L1091 711M1101 714L1102 749L1102 815L1105 815L1105 713L1101 714z"/>
<path style="fill:#010101; stroke:none;" d="M1118 713L1118 715L1120 713L1118 713z"/>
<path style="fill:#0189f1; stroke:none;" d="M1115 715L1115 817L1116 817L1116 746L1115 715z"/>
<path style="fill:#010101; stroke:none;" d="M1129 715L1129 717L1131 715L1129 715z"/>
<path style="fill:#0189f1; stroke:none;" d="M1124 717L1124 793C1124 799.471 1121.11 815.183 1127 819L1127 717L1124 717z"/>
<path style="fill:#010101; stroke:none;" d="M1135 717L1136 718L1135 717M1140 717L1140 719L1142 717L1140 717z"/>
<path style="fill:#0189f1; stroke:none;" d="M1134 719L1134 822C1123.58 824.702 1114.03 834.426 1105.33 840.539C1085.88 854.217 1066.32 867.81 1047.05 881.714C982.576 928.246 917.19 974.002 851.83 1019.25C828.047 1035.72 804.593 1052.91 780.537 1069.09C771.491 1075.18 754.632 1083.04 748.988 1092.47C745.168 1098.85 748 1113.65 748 1121L748 1194C753.3 1193.24 757.863 1191.06 760 1186C765.48 1186.6 777.192 1177.68 780 1173L783 1174L785 1168L794 1166L799 1163L806 1155L814.054 1149.59L843.78 1129.71L861 1119L861 1116L875 1109L881 1101C886.674 1100.55 891.042 1095.35 895.714 1092.26C907.554 1084.45 918.966 1076.37 930.209 1067.73C959.645 1045.1 991.852 1025.95 1021.78 1004.12C1034.46 994.87 1048.51 980.187 1064 976L1074 965L1078 966L1101 947C1117 944.055 1128.56 923.445 1145 919C1147.78 913.289 1163.38 901.696 1170 901L1176 893C1182.3 892.526 1188.7 887.229 1192 882L1196 883C1201.11 876.987 1208.26 871.094 1216 869L1221 865C1228.12 854.517 1243.69 848.377 1253.96 841.228C1275.03 826.561 1294.74 809.727 1316.78 796.53C1325.69 791.195 1333.11 780.366 1344 779C1345.76 773.362 1353.29 768.781 1359 768L1368 761L1368 760C1345.14 755.468 1319.06 747.012 1296 748L1296 778L1294 778L1294 746L1283 746L1283 781L1282 781L1282 744L1272 744L1272 784L1271 784L1271 742L1244 739L1244 792L1243 792L1243 737L1223 733L1223 797L1222 797L1222 733L1203 731L1203 785C1203 791.368 1205.17 800.363 1198 803L1198 754L1197 729L1174 726L1174 810L1171 810L1171 724L1153 722L1153 792C1153 803.376 1155.98 813.219 1144 818L1144 721L1142 721L1142 794C1142 800.951 1144.9 815.194 1138 819L1138 719L1134 719z"/>
<path style="fill:#010101; stroke:none;" d="M1146 719L1147 720L1146 719M1151 720L1151 815L1152 815L1152 749L1151 720z"/>
<path style="fill:#0189f1; stroke:none;" d="M752 1198L752 1200C769.763 1205.25 794.447 1201 813 1201L945 1201L1378 1201L1378 758C1359.69 764.336 1341.98 782.734 1326 793.652C1280.88 824.49 1237.23 857.538 1191.96 888.103C1110.93 942.811 1032.02 1000.73 952 1056.96C885.308 1103.83 817.166 1149.07 752 1198z"/>
<path style="fill:#010101; stroke:none;" d="M1375.33 869.667L1375.67 870.333L1375.33 869.667z"/>
<path style="fill:#0189f1; stroke:none;" d="M246 1008L246 1110L250 1110L250 1033C250 1026.73 253.061 1010.34 246 1008M252 1010L252 1112L257 1112L257 1034C257 1027.46 260.272 1011.38 252 1010M270 1012L270 1113L271 1113L271 1043L270 1012M281 1014L281 1115L283 1115L283 1014L281 1014M286 1015L286 1117L289 1117L289 1049L288 1015L286 1015M297 1017L297 1119L302 1119L302 1041C302 1034.46 305.272 1018.38 297 1017M309 1019L309 1121L312 1120L311 1085L311 1019L309 1019M320 1021L320 1123L324 1123L324 1046C324 1039.73 327.061 1023.34 320 1021M326 1023L326 1124L329 1124L329 1023L326 1023M338 1025L338 1126L339 1126L339 1056L338 1025M350 1027L350 1128L351 1128L351 1058L350 1027M360 1028L360 1130L362 1130L362 1056C362 1048.37 364.704 1034.21 360 1028M371 1030L371 1132L374 1132L374 1064L373 1030L371 1030M377 1032L377 1133L380 1133L380 1032L377 1032M393 1034L393 1135L394 1135L394 1065L393 1034M400 1035L400 1137L403 1137L403 1069L402 1035L400 1035M411 1037L411 1139L414 1139L414 1071L413 1037L411 1037M418 1039L418 1141L420 1141L420 1067C420 1059.37 422.704 1045.21 418 1039M422 1041L422 1143C429.075 1140.16 426 1124.53 426 1118L426 1041L422 1041M440 1043L440 1144L441 1144L441 1074L440 1043M451 1045L451 1146L454 1146L454 1045L451 1045M462 1046L462 1148L465 1148L465 1072C465 1065.29 467.877 1050.24 462 1046M467 1048L467 1150L471 1150L471 1048L467 1048M472 1049L472 1150L474 1150L474 1049L472 1049M490 1052L490 1153L493 1153L493 1052L490 1052M496 1053L496 1155L499 1155L499 1087L498 1053L496 1053M507 1055L507 1157L511 1157L511 1080C511 1073.73 514.061 1057.34 507 1055M518 1057L518 1159L522 1158L521 1123L521 1057L518 1057M536 1060L536 1161L537 1161L537 1091L536 1060M541 1061L541 1162L544 1162L544 1061L541 1061M547 1062L547 1164L548 1164L548 1093L547 1062M565 1065L565 1166L566 1166L566 1096L565 1065M569 1066L569 1168L573 1168L573 1091C573 1084.73 576.06 1068.34 569 1066M11 1068L11 1069L14 1069L11 1068M581 1068L581 1170L584 1170L584 1102L583 1068L581 1068M587 1070L587 1171L590 1171L590 1070L587 1070M0 1071L0 1198C234.875 1198 470.251 1201.85 705 1197L681 1192.2L621 1181.58L436 1148.63L179 1102.38L64 1081.39L0 1071M609 1073L609 1175L612 1175L612 1107L611 1073L609 1073M632 1077L632 1179L635 1179L635 1111L634 1077L632 1077M638 1079L638 1180L639 1180L639 1110L638 1079M643 1079L643 1180L644 1180L644 1110L643 1079M655 1081L655 1182L656 1182L656 1112L655 1081M661 1082L661 1184L664 1184L664 1108C664 1101.29 666.877 1086.24 661 1082M672 1084L672 1186L675 1186L675 1110C675 1103.29 677.877 1088.24 672 1084M677 1086L677 1188L680 1188L680 1086L677 1086M683 1087L683 1188L684 1188L684 1118L683 1087M694 1088L694 1156L695 1190L696 1190L696 1088L694 1088M701 1090L701 1191L702 1191L702 1121L701 1090M706 1091L706 1193L707 1193L707 1122L706 1091z"/>
<path style="fill:#010101; stroke:none;" d="M226 1106L226 1108L228 1108L228 1106L226 1106M232 1109L233 1110L232 1109M237.667 1109.33L238.333 1109.67L237.667 1109.33M243 1111L244 1112L243 1111M248 1111L248 1114L250 1111L248 1111M306.333 1121.67L306.667 1122.33L306.333 1121.67M317 1122L317 1125L318 1125L317 1122M322 1126L325 1124L322 1126M328.333 1125.67L328.667 1126.33L328.333 1125.67M335 1126L333 1127L333 1128L335 1126M357.333 1130.67L357.667 1131.33L357.333 1130.67M367 1132L367 1134L369 1134L369 1132L367 1132M373.667 1134.33L374.333 1134.67L373.667 1134.33M385 1136L386 1137L385 1136z"/>
<path style="fill:#013161; stroke:none;" d="M893 1156C893.723 1165.36 902.028 1160.3 906.381 1166.23C914.831 1177.74 891.226 1174.97 887 1174C884.668 1186.6 905.751 1184.61 911.867 1178.78C919.976 1171.03 912.338 1166.05 911.904 1158C911.476 1150.08 918.116 1141.56 906.996 1137.15C903.504 1135.76 883.455 1135.84 888.238 1143.57C891.777 1149.29 902.41 1138.24 905.593 1147.11C908.048 1153.95 897.362 1155.81 893 1156M926 1174C923.694 1182.73 932.342 1183.29 939 1182.96C949.824 1182.42 957.144 1171.13 951.825 1161.02C950.388 1158.28 947.84 1156.17 944.999 1155.01C941.571 1153.61 937.622 1154 934 1154C934.01 1151.05 933.48 1146.92 936.318 1145.03C942.215 1141.09 949.661 1147.21 950 1137C936.499 1134.49 928.021 1134.29 926.286 1149C925.953 1151.82 925.306 1156.06 927.028 1158.57C930.344 1163.39 938.474 1159.36 942.771 1163.32C954.831 1174.44 932.176 1175.63 926 1174M974.004 1136.66C961.599 1140.43 967.323 1160.52 979.985 1156.29C992.249 1152.2 986.531 1132.85 974.004 1136.66z"/>
<path style="fill:#010101; stroke:none;" d="M396 1137L396 1139L398 1139L398 1137L396 1137M402 1137L402 1141L403 1141L402 1137M889 1141L889 1143L890 1144C895.666 1142.45 915.28 1140.98 906.282 1152.93C902.989 1157.31 896.749 1155.73 895 1161C903.162 1161.02 916.607 1168.57 904.956 1176.26C900.021 1179.51 893.421 1177.43 888 1177C896.738 1192.85 928.497 1168.79 907 1160C908.783 1156.08 912.622 1152.54 912.622 1148C912.621 1135.42 896.417 1137.11 889 1141M927 1176C928.716 1185.88 947.305 1181.51 950.258 1173.99C952.563 1168.11 951.218 1159.62 944.985 1157.01C941.629 1155.61 937.215 1156.84 934.318 1154.4C929.762 1150.56 932.57 1143.02 938.015 1142.15C941.44 1141.6 944.622 1142 948 1141L948 1139C937.015 1135.75 929.294 1137.14 928.17 1149C927.94 1151.42 927.392 1155.33 929.028 1157.4C932.948 1162.35 941.955 1156.73 945.972 1164.09C953.002 1176.98 934.64 1178.78 927 1176M974.019 1138.75C963.957 1142.61 969.945 1158.16 979.957 1154.25C990.053 1150.31 983.957 1134.93 974.019 1138.75M407 1139L407 1141L409 1141L409 1139L407 1139z"/>
<path style="fill:#013161; stroke:none;" d="M975.059 1140.79C967.989 1143.27 971.644 1154.77 978.941 1152.21C986.011 1149.73 982.356 1138.23 975.059 1140.79z"/>
<path style="fill:#010101; stroke:none;" d="M413 1141L413 1143L416 1143L416 1141L413 1141M418 1141L418 1143L420 1141L418 1141z"/>
<path style="fill:#0189f1; stroke:none;" d="M975.228 1143.09C970.711 1145.47 974.344 1152.35 978.682 1149.91C982.707 1147.66 979.564 1140.79 975.228 1143.09z"/>
<path style="fill:#010101; stroke:none;" d="M424.667 1143.33L425.333 1143.67L424.667 1143.33M442.333 1144.67L442.667 1145.33L442.333 1144.67M447.333 1146.67L447.667 1147.33L447.333 1146.67M453 1147L453 1150L454 1150L453 1147M465 1149L464 1151L466 1151L465 1149M482 1151L481 1154L482 1151M498 1155L497 1157L499 1157L498 1155M503 1157L506 1159L503 1157M532 1161L532 1164L534 1161L532 1161M550 1164L549 1166L551 1166L550 1164M543 1165L544 1166L543 1165M554 1166L554 1168L556 1168L554 1166M561.333 1166.67L561.667 1167.33L561.333 1166.67M566 1168L565 1170L567 1170L566 1168M572.333 1168.67L572.667 1169.33L572.333 1168.67M583 1170L583 1173L584 1173L583 1170M589.667 1172.33L590.333 1172.67L589.667 1172.33M594 1174L595 1175L594 1174M606 1175L605 1177L607 1177L606 1175M617 1177L617 1179L619 1179L619 1177L617 1177M623 1177L623 1180L624 1180L623 1177M628 1181L631 1179L628 1181M641 1180L640 1182L642 1182L641 1180M663 1184L662 1186L664 1186L663 1184M668 1186L668 1188L670 1188L670 1186L668 1186M674 1187L673 1189L675 1189L674 1187M679 1188L679 1190L681 1190L681 1188L679 1188M691.333 1190.67L691.667 1191.33L691.333 1190.67M702 1192L702 1194L704 1192L702 1192z"/>
<path style="fill:#94016a; stroke:none;" d="M728 1308L729 1308L729 1241L730 1206L732 1206L733 1241L733 1308C735.903 1301.08 734 1290.48 734 1283L734 1229C734 1225.72 735.87 1203.95 730.259 1205.75C725.618 1207.25 728 1225.89 728 1230L728 1308z"/>
<path style="fill:#eb01a8; stroke:none;" d="M730 1206C727.636 1214 729 1223.69 729 1232C729 1256.1 733.579 1285.57 728 1309L733 1309L733 1240L732 1206L730 1206z"/>
</svg>
