<?xml version="1.0" standalone="yes"?>
<svg xmlns="http://www.w3.org/2000/svg" width="2000" height="2000">
<path style="fill:#ffffff; stroke:none;" d="M0 0L0 2000L2000 2000L2000 0L0 0z"/>
<path style="fill:#01ff80; stroke:none;" d="M8 15L8 16L492 16C480.782 11.2927 461.206 15 449 15L350 15L8 15M1492.32 16.0277C1488.42 18.6289 1490 26.9888 1490 31L1490 76L1490 262L1490 438L1490 485C1490 489.719 1488.31 498.61 1491.03 502.682C1494.51 507.897 1512.32 505 1518 505L1601 505L1877 505L1950 505C1956.84 505 1971.9 507.833 1977.68 503.972C1981.58 501.371 1980 493.011 1980 489L1980 444L1980 258L1980 82L1980 35C1980 30.2809 1981.69 21.3899 1978.97 17.3179C1975.49 12.1031 1957.68 15 1952 15L1869 15L1593 15L1520 15C1513.16 15 1498.1 12.1672 1492.32 16.0277z"/>
<path style="fill:#010180; stroke:none;" d="M5 504L493 504L493 16L132 16L40 16C32.5691 16 12.7193 12.479 6.89352 17.3179C1.72803 21.6084 5 41.6487 5 48L5 138L5 504z"/>
<path style="fill:#ff0180; stroke:none;" d="M501 504L988 504L988 16L621 16L531 16C524.666 16 504.587 12.7291 500.319 17.8927C497.827 20.907 500.49 24.7931 500.871 28.0393C501.673 34.8654 501 42.1295 501 49L501 142L501 504z"/>
<path style="fill:#ffff01; stroke:none;" d="M997 16L997 504L1483 504L1483 177L1483 72L1482 16L997 16z"/>
<path style="fill:#01ff80; stroke:none;" d="M6 17L7 18L6 17M493 17L493 503L494 503L494 159L494 60C494 47.7942 497.707 28.218 493 17M4 19L4 503L5 503L5 160L5 61C5 49.0559 8.60739 29.9801 4 19M6 504L6 505L492 505C480.782 500.293 461.206 504 449 504L350 504L6 504M5 512C5 632.04 4 751.941 4 872L4 965C4 972.348 0.433533 992.596 5.02778 998.397C8.77833 1003.13 29.1987 1000 35 1000L125 1000C247.705 1000 370.278 999 493 999L493 511C379.023 511.631 264.992 511 151 511L51 511C36.6997 511 18.4308 507.203 5 512z"/>
<path style="fill:#010180; stroke:none;" d="M502.303 512.028C497.381 515.208 499.384 523.312 499.83 528C501.141 541.772 500 556.165 500 570L500 748L500 935C500 949.899 500.928 965.137 499.91 980C499.528 985.586 497.287 993.755 501.843 998.397C506.359 1003 523.815 1000 530 1000L610 1000L889 1000L961 1000C967.034 1000 982.569 1002.8 987.397 998.972C990.6 996.435 989 987.633 989 984L989 941L989 766L989 579L989 531C989 526.352 990.854 516.433 987.821 512.603C984.227 508.066 965.513 511 960 511L878 511L603 511L530 511C523.052 511 508.235 508.195 502.303 512.028z"/>
<path style="fill:#ff0180; stroke:none;" d="M1483 999C1483 881.32 1484 763.604 1484 646L1484 551C1484 542.333 1483.57 533.645 1483.57 525C1483.57 521.459 1485.01 516.86 1483.14 513.573C1480.05 508.133 1462.48 511 1457 511L1378 511L1091 511L1021 511C1016.05 511 1000.47 508.453 997.179 512.603C993.229 517.59 996 532.815 996 539L996 611L996 891L996 972C996 977.38 993.154 995.448 997.603 998.972C1003.4 1003.57 1023.65 1000 1031 1000L1123 1000C1243.06 1000 1362.95 999 1483 999z"/>
</svg>
