<?xml version="1.0" standalone="yes"?>
<svg xmlns="http://www.w3.org/2000/svg" width="2000" height="2000">
<path style="fill:#52437a; stroke:none;" d="M0 0L0 2000L2000 2000L2000 0L0 0z"/>
<path style="fill:#9e86b6; stroke:none;" d="M41 37L38 40L38 1968L41 1971L1492 1971L1850 1971L1939 1971C1945.73 1971 1964.49 1974.16 1969 1969C1953.84 1972.61 1935.56 1970 1920 1970L1823 1970L1512 1970L524 1970L171 1970L78 1970C69.1936 1970 49.8615 1973.63 42.483 1968.57C36.048 1964.15 39 1948.83 39 1942L39 1866L39 1549L39 414L39 134L39 65C39 58.4797 36.3616 44.7793 41.7238 40.0325C47.0564 35.3118 61.2595 38 68 38L140 38L424 38L1543 38L1865 38L1943 38C1949.83 38 1965.15 35.0481 1969.57 41.483C1974.63 48.8613 1971 68.1937 1971 77L1971 170L1971 523L1971 1512L1971 1822L1971 1919C1971 1934.56 1973.61 1952.84 1970 1968C1975.16 1963.49 1972 1944.73 1972 1938L1972 1849L1972 1491L1972 40L1969 37L41 37z"/>
<path style="fill:#b1a6de; stroke:none;" d="M42.483 38.9382C36.0056 42.5143 39 58.7286 39 65L39 143L39 471L39 1577L39 1865L39 1939C39 1946.01 36.0967 1961.51 40.4336 1967.28C44.7555 1973.03 61.5133 1970 68 1970L148 1970L477 1970L1563 1970L1857 1970L1937 1970C1944.93 1970 1960.94 1973.06 1967.85 1968.97C1973.89 1965.4 1971 1949.08 1971 1943L1971 1865L1971 1538L1971 431L1971 143L1971 68C1971 61.1848 1973.79 46.3417 1969.57 40.7238C1965.24 34.975 1948.49 38 1942 38L1862 38L1531 38L452 38L156 38L75 38C66.5193 38 49.9646 34.8077 42.483 38.9382z"/>
<path style="fill:#9e86b6; stroke:none;" d="M44 43L44 519L519 519L519 43L44 43M525 43L525 519L1001 519L1001 43L525 43M1485 519L1485 43L1134 43L1043 43C1034.99 43 1016.11 39.5219 1009.57 44.4336C1005.42 47.5551 1009 63.7 1009 69L1009 146L1009 427L1009 495C1009 500.885 1004.98 513.879 1010.58 517.976C1016.82 522.537 1036.33 519 1044 519L1135 519L1485 519M42 1000L43 1000L43 524L520 524L520 1000C523.607 991.404 521 977.322 521 968L521 894L521 637L521 554C521 547.401 524.127 529.849 519.972 524.603C516.758 520.545 501.813 523 497 523L428 523L146 523L69 523C63.7606 523 46.4752 520.251 43.0278 524.603C38.5433 530.266 42 549.839 42 557L42 648L42 1000z"/>
<path style="fill:#735583; stroke:none;" d="M43 524L43 1001L520 1001L520 524L43 524z"/>
<path style="fill:#9e86b6; stroke:none;" d="M524 999L525 999L525 525L1000 525C991.165 521.292 976.585 524 967 524L893 524L635 524L553 524C547.479 524 528.628 521.058 525.028 525.603C520.543 531.266 524 550.839 524 558L524 648L524 999M1010 524L1010 525L1484 525C1473.02 520.393 1453.94 524 1442 524L1346 524L1010 524M1491 524L1491 525L1965 525C1954.02 520.393 1934.94 524 1923 524L1827 524L1491 524z"/>
<path style="fill:#735583; stroke:none;" d="M525 525L525 1000L1001 1000L1001 525L525 525z"/>
<path style="fill:#557ed2; stroke:none;" d="M1009 525L1009 578L1009 686L1009 1000L1485 1000L1485 525L1009 525M1490 525L1490 1000L1966 1000L1966 525L1490 525z"/>
<path style="fill:#9e86b6; stroke:none;" d="M1001 526L1001 999L1002 999L1002 664L1002 568C1002 556.056 1005.61 536.98 1001 526M1008.33 526.667L1008.67 527.333L1008.33 526.667M1485 526L1485 999L1486 999L1486 664L1486 568C1486 556.056 1489.61 536.98 1485 526M1966 526L1966 999L1967 999L1967 664L1967 568C1967 556.056 1970.61 536.98 1966 526M1006.33 531.667L1006.67 532.333L1006.33 531.667M1006 988L1006 991L1007 991L1006 988M526 1000L526 1001L1000 1001C989.02 996.393 969.944 1000 958 1000L862 1000L526 1000M1010 1000L1010 1001L1021 1001L1010 1000M1023 1000L1023 1001L1478 1001C1467.5 996.592 1449.42 1000 1438 1000L1345 1000L1023 1000M1481 1000L1481 1001L1484 1001L1481 1000M44 1001L44 1002L519 1002C508.02 997.393 488.944 1001 477 1001L380 1001L44 1001M520 1009L519 1009L519 1484L44 1484L44 1008L91 1008L193 1008L518 1008C507.79 1003.72 495.678 1007 485 1007L412 1007L157 1007L74 1007C67.7884 1007 49.726 1003.36 45.3179 1006.9C40.0756 1011.1 43 1027.82 43 1034L43 1113L43 1387L43 1458C43 1463.85 40.3155 1478.71 44.0278 1483.4C47.2422 1487.46 62.1866 1485 67 1485L136 1485L416 1485L494 1485C498.92 1485 516.938 1487.68 519.397 1482.68C523.828 1473.68 520 1454.06 520 1444L520 1349L520 1009M1505.67 1005.33L1506.33 1005.67L1505.67 1005.33M1959 1005L1959 1006L1962 1006L1959 1005z"/>
<path style="fill:#52437a; stroke:none;" d="M44 1008L44 1484L519 1484L519 1008L185 1008L86 1008L44 1008z"/>
<path style="fill:#9e86b6; stroke:none;" d="M1008 1006L1008 1007L1486 1007L1486 1482C1489.71 1473.16 1487 1458.58 1487 1449L1487 1375L1487 1117L1487 1035C1487 1029.48 1489.94 1010.63 1485.4 1007.03C1479.73 1002.54 1460.16 1006 1453 1006L1361 1006L1008 1006z"/>
<path style="fill:#557ed2; stroke:none;" d="M1490 1008L1490 1484L1966 1484L1966 1008L1924 1008L1825 1008L1490 1008z"/>
<path style="fill:#9e86b6; stroke:none;" d="M1002 1009L1001 1009L1001 1484L525 1484L525 1008L1000 1008C991.404 1004.39 977.322 1007 968 1007L894 1007L638 1007L555 1007C548.402 1007 530.849 1003.87 525.603 1008.03C521.154 1011.55 524 1029.62 524 1035L524 1114L524 1387L524 1458C524 1463.85 521.316 1478.71 525.028 1483.4C528.242 1487.46 543.187 1485 548 1485L617 1485L898 1485L976 1485C980.92 1485 998.938 1487.68 1001.4 1482.68C1005.83 1473.68 1002 1454.06 1002 1444L1002 1349L1002 1009z"/>
<path style="fill:#735583; stroke:none;" d="M1008 1007L1008 1329L1008 1434L1008 1485L1483 1485L1486 1482L1486 1007L1008 1007M525 1008L525 1484L1001 1484L1001 1008L525 1008z"/>
<path style="fill:#9e86b6; stroke:none;" d="M1007 1008L1007 1324L1007 1423L1006 1473C1010.96 1468.66 1008 1451.44 1008 1445L1008 1365L1008 1113L1008 1040C1008 1030.68 1010.61 1016.6 1007 1008M1966 1017L1966 1020L1967 1020L1966 1017M1005 1473L1005 1480L1006 1480L1005 1473M1007 1480L1007 1485L1008 1485L1007 1480M1483 1482L1483 1484L1485 1482L1483 1482M1491 1484L1491 1485L1965 1485C1954.02 1480.39 1934.94 1484 1923 1484L1827 1484L1491 1484M1008 1485L1008 1486L1483 1486C1472.02 1481.39 1452.94 1485 1441 1485L1344 1485L1008 1485M1489 1488L1488 1490L1489 1488z"/>
<path style="fill:#735583; stroke:none;" d="M1490 1488L1491 1489L1490 1488z"/>
<path style="fill:#9e86b6; stroke:none;" d="M1491 1488L1491 1489L1965 1489C1954.02 1484.39 1934.94 1488 1923 1488L1827 1488L1491 1488z"/>
<path style="fill:#735583; stroke:none;" d="M1965 1488L1966 1489L1965 1488z"/>
<path style="fill:#9e86b6; stroke:none;" d="M1966 1488L1968 1490L1966 1488M44.6034 1490.03C41.5219 1492.47 43 1500.52 43 1504L43 1544L43 1707L43 1897L43 1946C43 1950.51 41.1049 1960.71 44.0278 1964.4C47.5517 1968.85 65.6196 1966 71 1966L150 1966L423 1966L493 1966C498.846 1966 513.709 1968.68 518.397 1964.97C521.478 1962.53 520 1954.48 520 1951L520 1911L520 1748L520 1558L520 1509C520 1504.49 521.895 1494.29 518.972 1490.6C515.448 1486.15 497.38 1489 492 1489L413 1489L140 1489L70 1489C64.1544 1489 49.2905 1486.32 44.6034 1490.03M1002 1491L1001 1491L1001 1965L525 1965L525 1490L1000 1490C991.404 1486.39 977.322 1489 968 1489L894 1489L638 1489L555 1489C548.402 1489 530.849 1485.87 525.603 1490.03C521.154 1493.55 524 1511.62 524 1517L524 1596L524 1869L524 1939C524 1944.85 521.315 1959.71 525.028 1964.4C528.242 1968.46 543.187 1966 548 1966L617 1966L898 1966L976 1966C980.92 1966 998.938 1968.68 1001.4 1963.68C1005.72 1954.89 1002 1935.81 1002 1926L1002 1831L1002 1491M1010 1489L1010 1490L1485 1490L1485 1965L1010 1965C1018.6 1968.61 1032.68 1966 1042 1966L1116 1966L1372 1966L1455 1966C1461.6 1966 1479.15 1969.13 1484.4 1964.97C1488.75 1961.52 1486 1944.24 1486 1939L1486 1863L1486 1582L1486 1513C1486 1508.19 1488.46 1493.24 1484.4 1490.03C1478.73 1485.54 1459.16 1489 1452 1489L1361 1489L1010 1489z"/>
<path style="fill:#52437a; stroke:none;" d="M1489 1489L1489 1966L1967 1966L1967 1489L1489 1489M44 1490L44 1965L519 1965L519 1490L44 1490M525 1490L525 1965L1001 1965L1001 1490L525 1490M1009 1490L1009 1824L1009 1923L1009 1965L1485 1965L1485 1490L1009 1490z"/>
<path style="fill:#735583; stroke:none;" d="M1488 1490L1488 1965L1489 1965L1489 1629L1489 1532C1489 1520.06 1492.61 1500.98 1488 1490M1967 1490L1967 1965L1968 1965L1968 1629L1968 1532C1968 1520.06 1971.61 1500.98 1967 1490z"/>
<path style="fill:#9e86b6; stroke:none;" d="M1008 1491L1008 1808L1008 1908L1007 1958C1011.96 1953.66 1009 1936.44 1009 1930L1009 1849L1009 1596L1009 1523C1009 1513.68 1011.61 1499.6 1008 1491M1006 1958L1006 1962L1007 1962L1006 1958M1007 1962L1009 1964L1009 1962L1007 1962M1488 1965L1489 1966L1488 1965M1967 1965L1968 1966L1967 1965M1489 1966L1490 1967L1489 1966z"/>
<path style="fill:#735583; stroke:none;" d="M1490 1966L1491 1967L1490 1966z"/>
<path style="fill:#9e86b6; stroke:none;" d="M1491 1966L1491 1967L1965 1967C1954.02 1962.39 1934.94 1966 1923 1966L1827 1966L1491 1966z"/>
<path style="fill:#735583; stroke:none;" d="M1965 1966L1966 1967L1965 1966z"/>
<path style="fill:#9e86b6; stroke:none;" d="M1966 1966L1967 1967L1966 1966z"/>
</svg>
