<?xml version="1.0" standalone="yes"?>
<svg xmlns="http://www.w3.org/2000/svg" width="1378" height="1378">
<path style="fill:#030303; stroke:none;" d="M0 0L0 1378L1378 1378L1378 0L0 0z"/>
<path style="fill:#585858; stroke:none;" d="M492 264L493 299L493 366L492 366L492 266L488 266L488 368C500.502 366.365 518.464 366.015 531 369L531 266L498 266L498 366L497 366L497 299L498 264L492 264z"/>
<path style="fill:#bfc0c0; stroke:none;" d="M492 265L492 366L493 366L493 296L492 265M497 265L497 366L498 366L498 296L497 265M487 266C478.249 282.362 462.089 294.911 449 308C429.487 327.513 409.337 354.984 385 368L385 369L488 369L488 297L487 266M531 268L531 369L566 371L567 370L566 335L566 269L531 268z"/>
<path style="fill:#585858; stroke:none;" d="M578 273L578 374L597 377L596 341L596 274L588 274L588 374L587 374L587 273L578 273z"/>
<path style="fill:#bfc0c0; stroke:none;" d="M587 273L587 374L588 374L588 304L587 273M596 274L596 348L597.028 375.397L615 378L614 343L614 277L596 274z"/>
<path style="fill:#585858; stroke:none;" d="M619 279L619 349L620 383L641 386L641 284L635 284L635 384L634 384L634 282L629 282L629 382L627 382L627 281L621 281L621 381L620 381L620 310L619 279z"/>
<path style="fill:#bfc0c0; stroke:none;" d="M620 279L620 381L621 381L621 310L620 279M627 281L627 382L629 382L629 281L627 281M634 282L634 384L635 384L635 313L634 282M641 285L641 386L648 386L647 351L647 285L641 285z"/>
<path style="fill:#585858; stroke:none;" d="M650 287L650 390L669 394L669 393C658.63 389.107 662 376.441 662 367L662 290L658 290L658 390L657 390L657 289L652 289L652 389L651 389L651 318L650 287z"/>
<path style="fill:#bfc0c0; stroke:none;" d="M651 287L651 389L652 389L652 318L651 287M657 289L657 390L658 390L658 320L657 289M662 290L662 365L663.028 390.415L674 395L675 394L674 359L674 293L662 290z"/>
<path style="fill:#585858; stroke:none;" d="M677 295L677 397L697 403L696 368L696 301L693 301L693 367L694 400L693 401L688 400L688 298L683 298L683 398L682 398L682 296L677 295z"/>
<path style="fill:#bfc0c0; stroke:none;" d="M682 296L682 398L683 398L683 327L682 296M688 299L688 400L693 401L694 400L693 365L693 299L688 299M696 301L696 375C696 382.625 693.296 396.791 698 403L698 301L696 301z"/>
<path style="fill:#585858; stroke:none;" d="M699 303L699 406L704 405L704 304L699 303z"/>
<path style="fill:#bfc0c0; stroke:none;" d="M704 304L704 406L705 406L705 335L704 304z"/>
<path style="fill:#585858; stroke:none;" d="M705 306L705 375L704 407L718 411L718 410C706.468 406.611 710 394.015 710 384L710 306L705 306z"/>
<path style="fill:#bfc0c0; stroke:none;" d="M710 307L710 385C710 395.263 706.179 408.262 719 410C714.419 385.325 718 357.093 718 332C718 322.713 721.8 308.636 710 307M720 311L720 412L721 412L721 342L720 311z"/>
<path style="fill:#585858; stroke:none;" d="M721 312L721 378L720 413L728 416L728 313L724 313L724 413L723 413L723 312L721 312z"/>
<path style="fill:#bfc0c0; stroke:none;" d="M723 312L723 413L724 413L724 343L723 312M728 313L728 416L736 417L735 382L735 316L728 313M737 318L737 420L738 420L738 349L737 318z"/>
<path style="fill:#585858; stroke:none;" d="M738 320L738 387L737 422L746 424L745 388L745 321L738 320z"/>
<path style="fill:#bfc0c0; stroke:none;" d="M745 321L745 399C745 408.636 741.515 421.789 752 426L753 425L752 390L752 324L745 321z"/>
<path style="fill:#585858; stroke:none;" d="M754 326L754 429L764 433L763 430C757.496 429.281 760 409.845 760 405L760 349C760 339.588 762.398 331.453 754 326z"/>
<path style="fill:#bfc0c0; stroke:none;" d="M760 329L760 406C760 410.862 757.546 429.315 763 430L768 434L769 433L768 398L768 332L763 331L763 429L762 429L762 329L760 329z"/>
<path style="fill:#585858; stroke:none;" d="M762 331L762 429L763 429L763 361L762 331M770 334L770 437L780 441L780 440C774.02 434.612 776 425.447 776 418L776 360C776 350.474 778.847 339.643 770 334z"/>
<path style="fill:#bfc0c0; stroke:none;" d="M776 337L776 416C776 424.396 772.613 438.501 783 441C779.011 416.268 782 389.042 782 364C782 355.435 785.465 340.87 776 337M784 342L784 444L785 444L785 373L784 342z"/>
<path style="fill:#585858; stroke:none;" d="M785 343L785 410L784 445L794 449L794 448L794 447C787.037 444.849 790 427.987 790 422L790 345L788 345L788 411L789 444C784.296 437.791 787 423.625 787 416L787 343L785 343z"/>
<path style="fill:#bfc0c0; stroke:none;" d="M787 343L787 418C787 424.136 784.238 439.839 789 444C783.632 421.452 788 393.186 788 370C788 361.993 790.105 350.4 787 343M790 345L790 423C790 428.722 787.114 445.61 794 447L797 449L796 414L796 348L794 348L794 445L793 445L793 378L792 345L790 345z"/>
<path style="fill:#585858; stroke:none;" d="M793 348L793 445L794 445L794 378L793 348M798 350L798 427C798 440.125 794.869 451.304 808 458C801.599 449.11 804 436.606 804 426L804 353L801 353L801 453L800 453L800 378C800 370.375 802.704 356.209 798 350z"/>
<path style="fill:#bfc0c0; stroke:none;" d="M800 351L800 453L801 453L801 382L800 351M804 354L804 431C804 439.638 801.021 452.602 809 458C810.677 450.423 809 440.854 809 433L809 378C809 371.24 812.162 356.307 804 354z"/>
<path style="fill:#585858; stroke:none;" d="M810 358L810 429L810.938 458.675L826 471L827 471L827 438L827 368L826 368L826 468L825 468L825 367L823 367C823 399.412 827.151 434.929 823 467L822 464C811.575 461.872 815 447.225 815 439L815 378C815 371.185 817.449 361.121 810 358z"/>
<path style="fill:#bfc0c0; stroke:none;" d="M815 360L815 432C815 439.265 811.961 455.434 816.027 461.571C817.556 463.879 820.971 465.031 823 467L823 435L823 365L822 365L822 463L821 463L821 363L815 360z"/>
<path style="fill:#585858; stroke:none;" d="M821 365L821 463L822 463L822 395L821 365z"/>
<path style="fill:#bfc0c0; stroke:none;" d="M825 367L825 468L826 468L826 398L825 367z"/>
<path style="fill:#585858; stroke:none;" d="M385 369L392 373L392 440C424.344 440 461.214 435.099 493 441L493 372L492 372L486 378L488 370L454 369L385 369z"/>
<path style="fill:#0176ad; stroke:none;" d="M643 466L643 464C628.255 463.356 613.27 456.253 598.83 453.245C565.389 446.277 530.089 442 496 442L496 371L549 372C538.739 367.694 521.212 369 510 369C506.066 369 499.645 367.812 496.434 370.603C492.463 374.054 494 382.324 494 387L494 427C494 431.49 492.616 439.079 496.434 442.397C499.329 444.913 504.47 443.962 508 444.004C516.62 444.106 526.471 444.024 535 445.209C557.719 448.366 580.465 451.134 603 456.015C616.044 458.84 629.724 465.155 643 466z"/>
<path style="fill:#585858; stroke:none;" d="M550 369L551 370L550 369M551 370L551 371L566 372L551 370z"/>
<path style="fill:#bfc0c0; stroke:none;" d="M827 370L827 471L832 473C836.164 448.391 832 419.117 832 394C832 387.461 835.272 371.381 827 370M487 371L486 378L487 371z"/>
<path style="fill:#01afff; stroke:none;" d="M496 371L496 442C561.66 442 628.118 457.155 689 481.841C708.137 489.601 736.719 498.495 751 514C756.67 510.703 759.242 503.585 762.312 498C768.206 487.275 774.637 476.725 780.833 466.17C782.956 462.552 789.604 454.565 787.843 450.263C786.086 445.97 777.772 442.655 773.87 440.71C761.032 434.311 748.264 426.965 735 421.505C657.854 389.748 579.571 371 496 371z"/>
<path style="fill:#0176ad; stroke:none;" d="M550 372L550 373L576 375L550 372z"/>
<path style="fill:#585858; stroke:none;" d="M834 373L834 452C834 463.45 830.739 475.565 843 481L843 480C836.49 474.578 839 462.784 839 455L839 396C839 387.806 841.284 378.343 834 373z"/>
<path style="fill:#0176ad; stroke:none;" d="M576 375L576 376L586 377L576 375z"/>
<path style="fill:#bfc0c0; stroke:none;" d="M839 376L839 455C839 461.987 835.792 477.508 844 480C841.084 455.077 843 429.09 843 404C843 395.704 845.926 381.831 839 376z"/>
<path style="fill:#0176ad; stroke:none;" d="M586 377L586 378L605 380L586 377z"/>
<path style="fill:#585858; stroke:none;" d="M605 377L606 378L605 377M606 378L606 379L614 380L606 378z"/>
<path style="fill:#0176ad; stroke:none;" d="M605 380L605 381L620 383L605 380z"/>
<path style="fill:#585858; stroke:none;" d="M845 381L845 462C845 469.877 841.539 485.335 852 487L852 486L849 486L849 384L848 384L848 484L847 484L847 410C847 401.888 849.683 387.855 845 381z"/>
<path style="fill:#030303; stroke:none;" d="M621 382L621 383L633 385L633 383L621 382z"/>
<path style="fill:#0176ad; stroke:none;" d="M620 383L620 384L627 385L620 383z"/>
<path style="fill:#bfc0c0; stroke:none;" d="M847 383L847 484L848 484L848 414L847 383z"/>
<path style="fill:#0176ad; stroke:none;" d="M627 385L627 386L640 388L627 385z"/>
<path style="fill:#bfc0c0; stroke:none;" d="M849 385L849 486L855 490L856 490L856 389L855 389L855 485C852.636 477.001 854 467.312 854 459L854 410C854 403.131 857.275 387.339 849 385z"/>
<path style="fill:#585858; stroke:none;" d="M645 386L647 388L647 386L645 386z"/>
<path style="fill:#0176ad; stroke:none;" d="M640 388L640 390L663 394L640 388z"/>
<path style="fill:#585858; stroke:none;" d="M854 389L854 485L855 485L855 418L854 389z"/>
<path style="fill:#030303; stroke:none;" d="M652 390L652 391L661 393L652 390z"/>
<path style="fill:#585858; stroke:none;" d="M856 390L856 490L855 490L854 488C854.682 491.476 856.659 492.118 860 493C855.961 482.459 858 469.185 858 458L858 390L856 390z"/>
<path style="fill:#bfc0c0; stroke:none;" d="M858 390L858 467C858 477.119 855.196 489.992 864 497C865.842 489.384 864 479.895 864 472L864 418C864 411.183 866.975 396.657 860 393L860 490L859 490L859 421L858 390z"/>
<path style="fill:#585858; stroke:none;" d="M859 392L859 490L860 490L860 422L859 392z"/>
<path style="fill:#0176ad; stroke:none;" d="M663 394L663 395L668 396L663 394z"/>
<path style="fill:#585858; stroke:none;" d="M672 394L673 395L672 394M673 395L674 396L673 395z"/>
<path style="fill:#0176ad; stroke:none;" d="M668 396L668 397L677 399L668 396z"/>
<path style="fill:#585858; stroke:none;" d="M865 397L865 477C865 487.663 862.053 500.221 874 505L873 470L873 403L871 403L871 503L870 503C864.351 479.271 869 449.405 869 425C869 417.355 872.148 401.645 865 397z"/>
<path style="fill:#0176ad; stroke:none;" d="M677 399L677 400L695 405L677 399z"/>
<path style="fill:#bfc0c0; stroke:none;" d="M869 400L869 469L870 503L871 503C872.774 495.815 871 486.5 871 479L871 426C871 418.772 873.472 405.902 869 400z"/>
<path style="fill:#030303; stroke:none;" d="M687 401L687 402C690.77 402.903 697.803 407.587 699 402L687 401z"/>
<path style="fill:#bfc0c0; stroke:none;" d="M873 403L873 478C873 484.136 870.238 499.839 875 504C869.632 481.452 874 453.186 874 430C874 421.992 876.105 410.4 873 403z"/>
<path style="fill:#0176ad; stroke:none;" d="M696 405L696 406L709 410L696 405z"/>
<path style="fill:#030303; stroke:none;" d="M701 405L709 409L709 408L701 405z"/>
<path style="fill:#bfc0c0; stroke:none;" d="M876 406L876 483C876 493.044 873.21 505.226 882 512C883.731 504.391 882 494.9 882 487L882 432C882 423.361 884.946 410.72 876 406z"/>
<path style="fill:#0176ad; stroke:none;" d="M709 410L709 411L716 413L716 412L709 410z"/>
<path style="fill:#585858; stroke:none;" d="M884 412L884 489C884 495.136 881.238 510.839 886 515C880.562 492.157 885 463.491 885 440C885 431.729 887.206 419.639 884 412z"/>
<path style="fill:#0176ad; stroke:none;" d="M716 413L716 414L724 416L724 415L716 413z"/>
<path style="fill:#bfc0c0; stroke:none;" d="M885 413L885 480L886 516L887 516L887 442C887 434.177 889.819 419.361 885 413z"/>
<path style="fill:#585858; stroke:none;" d="M887 415L887 518L888 518C890.364 510.001 889 500.312 889 492L889 441C889 433.772 891.472 420.902 887 415z"/>
<path style="fill:#0176ad; stroke:none;" d="M724 416L724 417L728 418L728 417L724 416z"/>
<path style="fill:#585858; stroke:none;" d="M730 416L730 417L735 418L735 417L730 416z"/>
<path style="fill:#bfc0c0; stroke:none;" d="M889 417L889 483L888 518L892 519C891.796 494.395 891 469.683 891 445C891 437.375 893.704 423.209 889 417z"/>
<path style="fill:#0176ad; stroke:none;" d="M728 418L729 419L728 418M730 419L730 420L737 422L730 419z"/>
<path style="fill:#585858; stroke:none;" d="M892 420L892 498C892 506.296 889.074 520.169 896 526L896 493L896 423L895 423L895 523L894 523C888.562 500.157 893 471.491 893 448C893 439.729 895.206 427.639 892 420z"/>
<path style="fill:#bfc0c0; stroke:none;" d="M893 421L893 489L894 523L895 523L895 449C895 441.375 897.704 427.209 893 421z"/>
<path style="fill:#0176ad; stroke:none;" d="M737 422L737 423L747 427L747 426L737 422z"/>
<path style="fill:#585858; stroke:none;" d="M748 424L751 426L751 425L748 424z"/>
<path style="fill:#bfc0c0; stroke:none;" d="M896 425L896 493L896 526L902 529L901 428L900 428L900 512L899 512L899 454L898 425L896 425z"/>
<path style="fill:#585858; stroke:none;" d="M751 426L752 427L751 426z"/>
<path style="fill:#0176ad; stroke:none;" d="M748 427L751 429L748 427M751.667 429.333L752.333 429.667L751.667 429.333M754 430L757 432L754 430z"/>
<path style="fill:#585858; stroke:none;" d="M901 430L901 498L900 531L916 544L910 535C902.832 532.739 905 520.909 905 515L905 453C905 446.94 907.88 432.283 901 430z"/>
<path style="fill:#bfc0c0; stroke:none;" d="M905 431L905 510C905 516.333 901.954 533.367 910 535L916 544L919 543L926 555L927 552L928 552L929 558L930 558L930 552L932 552L933 563L934 563L934 552L936 552L935 565L939 566L939 552L940 552C940 559.4 937.297 572.457 947 574L949 582L955 580L957 591L962 590L963 599L966 598L969 601L968 605L975 614L979 613L980 622C989.698 617.891 1002.6 620 1013 620L1081 620C1061.15 583.356 1026.13 554.755 997.845 525.334C988.83 515.957 971.907 495.42 958 495L958 494L962 494L962 493L958 493L955 486L955 503L951 503C952.592 496.556 952.829 480.967 947 477L947 506L945 506C945 493.313 947.386 479.239 941 468L940 468L940 512L938 530L938.004 505L937 464L936 464L936 530L934 530L934 484L933 460L932 460L932 530L930 530L930 481L929 456L928 456L928 509L926 530C927.95 522.464 926.373 514.614 926.039 507C925.472 494.05 926 480.963 926 468C926 461.354 927.948 451.603 921 448L921 531L920 531L920 445L919 445L919 531L917 531L917 463C917 456.444 919.739 443.533 913 440L913 531L912 531L912 468L911 436L910 436L910 531L909 531L909 458C909 449.837 911.799 436.755 905 431z"/>
<path style="fill:#0176ad; stroke:none;" d="M757 432L757 433L763 435L763 434L757 432z"/>
<path style="fill:#585858; stroke:none;" d="M766 433L767 434L766 433M767 434L768 435L767 434z"/>
<path style="fill:#0176ad; stroke:none;" d="M763 435L763 436L767 437L767 436L763 435z"/>
<path style="fill:#585858; stroke:none;" d="M909 436L909 531L910 531L910 465L909 436z"/>
<path style="fill:#0176ad; stroke:none;" d="M767 437L767 438L776 441L776 440L767 437z"/>
<path style="fill:#030303; stroke:none;" d="M770 437L770 438L776 440L770 437z"/>
<path style="fill:#585858; stroke:none;" d="M912 439L912 531L913 531L913 467L912 439z"/>
<path style="fill:#0176ad; stroke:none;" d="M776 441L779 443L776 441M779 443L779 444L784 446L784 445L779 443z"/>
<path style="fill:#bfc0c0; stroke:none;" d="M390 444L390 445C398.479 449.412 411.615 447 421 447L491 447L491 444L390 444z"/>
<path style="fill:#585858; stroke:none;" d="M491 444C487.248 449.788 472.338 447 466 447L392 447L392 808L392 913C392 928.296 395.5 948.646 390 963L492 963L492 1065L494 1065L493 444L491 444M917 444L917 531L919 531L919 468C919 461.172 921.236 449.591 917 444M497 445L514 462L515 445L497 445z"/>
<path style="fill:#030303; stroke:none;" d="M515 445L515 447L566 450L546 446.985L515 445z"/>
<path style="fill:#bfc0c0; stroke:none;" d="M497 446L497 790L508 780C508 793.595 517.516 793.957 530 794C527.311 782.705 526.716 766.561 535 758L535 797L542 798L542 708L546 708L546 800L552 801L552 708L555 708L555 771L556 803L557 803L557 708L559 708L559 805L571 811L573 809L578 812L578 739C578 729.42 580.539 716.2 575 708L598 708L597.981 562L593.059 548L593 455L584 455L585 485L585 541C569.811 525.799 576 496.516 576 476C576 470.72 578.349 457.871 574.972 453.603C573.133 451.279 566.861 451.096 564 450L564 517L554.603 506L554 488L554 449L539 449L539 490L538 490L538 447L514 446L513 447L514 462L497 446z"/>
<path style="fill:#0176ad; stroke:none;" d="M784 446L787 448L784 446z"/>
<path style="fill:#585858; stroke:none;" d="M920 447L920 531L921 531L921 473L920 447M538 448L538 490L539 490L539 449L554 449L538 448z"/>
<path style="fill:#0176ad; stroke:none;" d="M787 448L789 450L789 448L787 448z"/>
<path style="fill:#585858; stroke:none;" d="M795 449L796 450L795 449M554 450C554 469.36 546.61 504.749 564 517L564 450L554 450M566.333 450.667L566.667 451.333L566.333 450.667z"/>
<path style="fill:#030303; stroke:none;" d="M567 450L567 452L614 459C601.386 452.889 580.916 450.04 567 450z"/>
<path style="fill:#0176ad; stroke:none;" d="M789.333 450.667L789.667 451.333L789.333 450.667z"/>
<path style="fill:#585858; stroke:none;" d="M575 452L576 453L575 452z"/>
<path style="fill:#bfc0c0; stroke:none;" d="M789 452C778.634 465.194 770.408 482.268 762.312 497C759.791 501.587 756.022 512.658 750.154 513.667C744.975 514.559 735.1 506.008 730 504L730 570C730 580.261 728.49 591.837 730.148 601.96C730.973 606.994 745.983 616.598 751.021 615.512C755.137 614.624 757.396 609.848 760.054 607C767.11 599.44 774.688 592.312 782 585C789.374 577.626 797.988 570.535 804 562L805 562L823 573L823 500C823 493.09 825.792 478.347 821.972 472.46C817.083 464.925 800.876 458.165 793 454L792 455L793 463L792 463L789 452z"/>
<path style="fill:#585858; stroke:none;" d="M790 452L791 453L790 452M576 453L576 512C576 523.927 574.185 533.376 585 541L585 477L586 454L576 453M791 453L792 463L793 463L794 453L791 453M796 455L797 456L796 455z"/>
<path style="fill:#030303; stroke:none;" d="M809 455L810 456L809 455z"/>
<path style="fill:#585858; stroke:none;" d="M926 455L926 530C930.126 526.394 928 515.217 928 510L928 455L926 455M593 456L593 532C593 540.323 589.877 554.125 600 557L600 491L601 456L593 456M797 456L797 458L799 458L797 456z"/>
<path style="fill:#bfc0c0; stroke:none;" d="M600 457L600 530C600 536.413 597.117 552.193 601.028 557.415C604.68 562.293 621.135 563.741 627 565L627 492C627 485.51 629.87 469.912 625.976 464.585C621.982 459.122 606.309 458.585 600 457z"/>
<path style="fill:#585858; stroke:none;" d="M801 458L802 459L801 458M930 458L930 530L932 530L932 479L930 458M607 459L607 460L615 460L607 459M797 459L797 482L798 482L797 459M802.667 459.333L803.333 459.667L802.667 459.333z"/>
<path style="fill:#030303; stroke:none;" d="M615 460L615 461L620 461L615 460z"/>
<path style="fill:#585858; stroke:none;" d="M620 460L621 461L620 460M804 460L805 461L804 460M621.333 461.667L621.667 462.333L621.333 461.667z"/>
<path style="fill:#030303; stroke:none;" d="M622 461L622 463L638 466L622 461z"/>
<path style="fill:#585858; stroke:none;" d="M806 462L807 463L806 462M934 462L934 530L936 530L936 482L934 462M809 463L810 464L809 463M627 464L627 565L632 565L632 492L633 465L627 464M810 464L811 465L810 464z"/>
<path style="fill:#bfc0c0; stroke:none;" d="M631 466L632 501L632 567L657 573L657 472L631 466z"/>
<path style="fill:#585858; stroke:none;" d="M638 466L638 467L644 469L644 468L638 466z"/>
<path style="fill:#030303; stroke:none;" d="M639 466L639 467L658 472L639 466z"/>
<path style="fill:#0176ad; stroke:none;" d="M644 466L644 467L653 469L644 466z"/>
<path style="fill:#585858; stroke:none;" d="M814 467L814 468L817 468L814 467M939 467L939 530L940 530L940 487L939 467M817 468L818 469L817 468z"/>
<path style="fill:#0176ad; stroke:none;" d="M653 469L653 470L658 471L653 469z"/>
<path style="fill:#585858; stroke:none;" d="M818 469L819 470L818 469M648 470L648 471L652 471L648 470M819.667 470.333L820.333 470.667L819.667 470.333M652 471L653 472L652 471z"/>
<path style="fill:#0176ad; stroke:none;" d="M658 471L658 472L662 472L658 471z"/>
<path style="fill:#585858; stroke:none;" d="M829 471L830 472L829 471M657 472L657 574L658 574L658 503L657 472z"/>
<path style="fill:#0176ad; stroke:none;" d="M662 472L662 473L667 474L662 472z"/>
<path style="fill:#585858; stroke:none;" d="M823 472L823 574L824 574L824 503L823 472M830 472L831 473L830 472M831 473L832 474L831 473z"/>
<path style="fill:#bfc0c0; stroke:none;" d="M661 474L661 576L662 576L662 505L661 474z"/>
<path style="fill:#0176ad; stroke:none;" d="M668 474L668 475L675 477L668 474z"/>
<path style="fill:#bfc0c0; stroke:none;" d="M825 474L825 552C825 560.899 821.923 574.133 831 579L831 482L832 482L832 549L833 582L834 582L834 504C834 499.138 836.454 480.685 831 480L825 474z"/>
<path style="fill:#585858; stroke:none;" d="M826 474L827 475L826 474M662 475L662 576L666 576L666 510L665 477L668 477L662 475M827 475L828 476L827 475z"/>
<path style="fill:#bfc0c0; stroke:none;" d="M666 476L665 477L666 512L666 578L672 579L672 501C672 492.818 675.393 479.043 666 476z"/>
<path style="fill:#585858; stroke:none;" d="M828 476L829 477L828 476M671 477L672 478L671 477z"/>
<path style="fill:#0176ad; stroke:none;" d="M675 477L675 478C700.652 482.627 728.934 500.714 751 514C747.064 507.723 737.899 504.277 731.421 501C714.795 492.589 693.822 478.693 675 477z"/>
<path style="fill:#585858; stroke:none;" d="M946 477L946 503L947 503L946 477M672 478L672 579L674 579L674 511L675 478L672 478z"/>
<path style="fill:#030303; stroke:none;" d="M675 478L675 480L683 481L675 478z"/>
<path style="fill:#585858; stroke:none;" d="M831 478L831 480L833 478L831 478z"/>
<path style="fill:#bfc0c0; stroke:none;" d="M673 480L674 515L674 581L679 581L679 480L673 480z"/>
<path style="fill:#585858; stroke:none;" d="M834 480L834 582L837 582C837 549.51 840.072 515.22 836 483C843.865 488.992 841 502.043 841 511L841 587L843 587L843 520L844 486L834 480M679 481L679 582L683 582L683 513L684 481L679 481z"/>
<path style="fill:#bfc0c0; stroke:none;" d="M683 482L682 483L683 518L683 584L692 587L692 485L683 482z"/>
<path style="fill:#030303; stroke:none;" d="M684 482L684 483L690 484L684 482z"/>
<path style="fill:#585858; stroke:none;" d="M831 482L831 579L832 579L832 512L831 482M686 483L687 484L686 483z"/>
<path style="fill:#bfc0c0; stroke:none;" d="M836 483C837.988 508.183 837 533.711 837 559C837 567.284 834.099 581.252 841 587L841 509C841 501.226 844.063 487.067 836 483z"/>
<path style="fill:#585858; stroke:none;" d="M951 483L951 503L955 503L953 483L951 483M687 484L687 485L692 485L687 484z"/>
<path style="fill:#030303; stroke:none;" d="M692 485L692 486C707.086 491.758 728.936 499.095 741 510C741.113 505.417 733.55 503.336 730 501.692C718.184 496.221 705.158 486.348 692 485z"/>
<path style="fill:#585858; stroke:none;" d="M692 486L692 587L694 587L694 521L695 486L692 486M854 486L855 487L854 486z"/>
<path style="fill:#bfc0c0; stroke:none;" d="M694 487L694 564C694 571.316 691.019 585.718 698 590L698 488L694 487M843 487C840.811 513.224 843 540.644 843 567C843 575.971 840.07 588.754 850 593L850 495L851 495L851 595L852 595L852 519C852 506.186 854.829 494.883 843 487z"/>
<path style="fill:#585858; stroke:none;" d="M845 488L846 489L845 488M698 489L698 590L700 590L700 514L702 491L698 489M846 489L847 490L846 489z"/>
<path style="fill:#bfc0c0; stroke:none;" d="M700 490L700 568C700 576.182 696.607 589.957 706 593L706 515C706 506.818 709.393 493.043 700 490z"/>
<path style="fill:#585858; stroke:none;" d="M705 491L706 492L705 491M849 491L850 492L849 491z"/>
<path style="fill:#030303; stroke:none;" d="M864.333 491.667L864.667 492.333L864.333 491.667z"/>
<path style="fill:#585858; stroke:none;" d="M958 491L958 493L960 493L958 491M706 492L706 593L707 593L707 521C707 513.375 704.296 499.209 709 493L706 492M850 492L850 494L852 494L852 492L850 492z"/>
<path style="fill:#bfc0c0; stroke:none;" d="M707 493L707 570C707 577.645 703.724 592.488 712 596L712 518C712 510.736 715.191 496.011 707 493z"/>
<path style="fill:#585858; stroke:none;" d="M711 494L712 495L711 494M852 494L852 562L853 596L854 596L854 496L858 498L852 494M860 494L861 495L860 494z"/>
<path style="fill:#030303; stroke:none;" d="M864 494L865 495L864 494z"/>
<path style="fill:#585858; stroke:none;" d="M958 494L958 495L962 495L958 494M712 495L712 596L713 596L713 496C718.729 501.611 716 515.407 716 523L716 598L718 598L718 530L719 497L712 495M850 495L850 593L851 593L851 525L850 495M861 495L862 496L861 495z"/>
<path style="fill:#bfc0c0; stroke:none;" d="M713 496L713 572C713 578.712 710.123 593.762 716 598L716 530L715 496L713 496M854 496L854 575C854 588.539 853.131 601.786 866.043 610.397C872.461 614.676 886.503 612 894 612L967 612L952 590L950 591L949 587C924.974 592.72 894.713 588 870 588L870 586L946 586L938 573L934 572L933 572C932.068 565.982 926.351 560.596 921 558L922 555C912.539 548.638 903.497 531.474 892 530L889 527C888.805 525.194 888.273 522.071 887 525L886 525C884.94 518.21 870.872 505.94 864 505L861 502C863.762 530.644 864.75 563.451 861 592L860 592L860 521C860 512.668 862.842 500.262 854 496z"/>
<path style="fill:#585858; stroke:none;" d="M862 496L863 497L862 496M958 496L958 497L962 497L958 496z"/>
<path style="fill:#bfc0c0; stroke:none;" d="M717 499L718 534L718 600L722 601L722 523C722 516.461 725.272 500.381 717 499z"/>
<path style="fill:#585858; stroke:none;" d="M721 499L722 500L721 499M859 499L860 500L859 499M722 500L722 601L724 601L724 532L725 500L722 500M860 500L860 592L861 592C866.527 571.481 862 544.258 862 523C862 515.417 860.738 507.297 863 500L860 500z"/>
<path style="fill:#bfc0c0; stroke:none;" d="M724 501L723 502L724 537L724 603L728 604L728 527C728 519.684 730.981 505.282 724 501z"/>
<path style="fill:#585858; stroke:none;" d="M727 502L728 503L727 502M728 503L728 604L730 604L730 538L731 503L728 503M864 503L864 505L866 503L864 503M946 504L947 505L946 504M952 504L952 505L955 505L952 504M734 506L734 507L737 507L734 506M864 506L865 507L864 506M867 506L868 507L867 506M875 506L876 507L875 506M876 507L877 508L876 507z"/>
<path style="fill:#030303; stroke:none;" d="M945 507L945 509L947 509L947 507L945 507z"/>
<path style="fill:#585858; stroke:none;" d="M740.333 508.667L740.667 509.333L740.333 508.667M871 508L872 509L871 508M877 508L878 509L877 508M742 509L745 512L742 509M864 509L864 588L865 588L865 534L864 509M872 509L873 510L872 509M878 509L879 510L878 509z"/>
<path style="fill:#030303; stroke:none;" d="M744 510L750 514L744 510z"/>
<path style="fill:#585858; stroke:none;" d="M873 510L874 511L873 510M879 510L881 512L881 510L879 510M874.333 511.667L874.667 512.333L874.333 511.667z"/>
<path style="fill:#030303; stroke:none;" d="M945.667 511.333L946.333 511.667L945.667 511.333z"/>
<path style="fill:#585858; stroke:none;" d="M881 512L882 513L881 512M876 513L877 514L876 513M748 514L748 515L751 515L748 514M877 514L878 515L877 514M878 515L879 516L878 515M879 516L880 517L879 516M880.667 517.333L881.333 517.667L880.667 517.333M889 518L889 520L891 520L889 518M874 519L874 575L875 575L875 537L874 519M884 519L885 520L884 519z"/>
<path style="fill:#030303; stroke:none;" d="M899 519L900 520L899 519M938 519L939 520L938 519z"/>
<path style="fill:#585858; stroke:none;" d="M886 522L886 525L887 525L888 522L886 522z"/>
<path style="fill:#030303; stroke:none;" d="M899 524L900 525L899 524M938 524L939 525L938 524z"/>
<path style="fill:#585858; stroke:none;" d="M889 525L889 527L891 525L889 525M886 526L887 527L886 526M897 526L898 527L897 526M892 527L892 530L893 530L892 527M898 527L899 528L898 527z"/>
<path style="fill:#030303; stroke:none;" d="M938 527L939 528L938 527z"/>
<path style="fill:#585858; stroke:none;" d="M886.333 528.667L886.667 529.333L886.333 528.667M889.333 528.667L889.667 529.333L889.333 528.667z"/>
<path style="fill:#030303; stroke:none;" d="M938 529L939 530L938 529z"/>
<path style="fill:#585858; stroke:none;" d="M895 530L896 531L895 530M886 531L886 561L887 561L886 531M889 531L889 561L890 561L889 531M892 531L892 561L893 561L892 531M896.667 531.333L897.333 531.667L896.667 531.333M898 532L899 533L898 532M899 533L899 535L901 535L899 533M909 533L910 534L909 533M912 533L913 534L912 533M917.667 533.333L918.333 533.667L917.667 533.333M920 533L921 534L920 533M901 535L902 536L901 535M912 535L913 536L912 535M917.667 535.333L918.333 535.667L917.667 535.333M920 535L921 536L920 535M902 536L902 538L904 538L902 536M899 537L900 538L899 537M904 538L905 539L904 538M917 538L917 540L919 540L919 538L917 538M920.333 538.667L920.667 539.333L920.333 538.667M905 539L906 540L905 539M906 540L907 541L906 540M907 541L908 542L907 541M917.667 541.333L918.333 541.667L917.667 541.333M920 541L921 542L920 541M908 542L909 543L908 542M909 543L910 544L909 543M917 543L921 549L917 543M920.333 543.667L920.667 544.333L920.333 543.667M910 544L911 545L910 544M911 545L912 546L911 545M912 546L913 547L912 546M913 547L913 549L915 549L913 547M899 548L900 549L899 548M902 548L903 549L902 548M915 549L916 550L915 549M921 549L923 551L923 549L921 549M916 550L916 552L918 552L916 550M899 551L900 552L899 551M902 551L903 552L902 551M913 551L914 552L913 551M923 551L924 552L923 551M927 552L925 556L928 557L927 552M930 552L928 557L931 561L932 561L932 552L930 552M934 552L934 564L936 564L936 552L934 552M939 552C939 556.93 937.094 566.587 941 570L939 552M919 553L920 554L919 553M924 553L925 554L924 553M920 554L921 555L920 554z"/>
<path style="fill:#030303; stroke:none;" d="M938 554L939 555L938 554z"/>
<path style="fill:#585858; stroke:none;" d="M899 556L900 557L899 556M902 556L903 557L902 556M913 556L914 557L913 556M916 556L917 557L916 556M923 558L924 559L923 558z"/>
<path style="fill:#030303; stroke:none;" d="M938 559L939 560L938 559z"/>
<path style="fill:#585858; stroke:none;" d="M925 560L925 562L927 562L925 560M932 561L933 562L932 561M928.333 563.667L928.667 564.333L928.333 563.667M886 564L887 565L886 564M889 564L890 565L889 564M892 564L893 565L892 564M936 565L937 566L936 565M886 566L886 569L887 569L886 566M889 566L889 569L890 569L889 566M892 566L892 569L893 569L892 566M931 566L932 567L931 566M937 566L938 567L937 566M933 569L933 572L934 572L935 569L933 569M886.333 570.667L886.667 571.333L886.333 570.667M889.333 570.667L889.667 571.333L889.333 570.667M892.333 570.667L892.667 571.333L892.333 570.667M936 571L936 574L938 573L938 572L936 571z"/>
<path style="fill:#030303; stroke:none;" d="M945 571L945 573L947 573L947 571L945 571z"/>
<path style="fill:#585858; stroke:none;" d="M941 572L942 573L941 572M886 573L887 574L886 573M889 573L890 574L889 573M892 573L893 574L892 573M933 573L934 574L933 573M942 573L943 574L942 573M943.667 574.333L944.333 574.667L943.667 574.333M938 575L938 577L940 577L938 575M874 576L875 577L874 576M946.333 576.667L946.667 577.333L946.333 576.667M952 576L952 577L955 577L952 576M940 577L941 578L940 577M941 578L942 579L941 578M947 578L948 579L947 578M942 579L943 580L942 579M948 579L948 582L949 582L948 579M943 580L944 581L943 580M950 583L955 587L955 580L950 583M944 581L945 582L944 581M945 582L946 583L945 582M946 583C942.681 588.12 932.51 586 927 586L870 586L870 588L922 588L949 587L946 583M874 584L875 585L874 584M938 584L939 585L938 584M950 588L950 591L951 591L950 588M955 588L956 591L957 591L957 588L955 588M864.333 589.667L864.667 590.333L864.333 589.667M870 589L870 591L948 591L948 589L870 589M958 590L962 596L962 590L958 590M953 593L954 594L953 593M954 594L955 595L954 594M955 595L956 596L955 595M956 596L957 597L956 596M962 596L963 597L962 596M957 597L958 598L957 597M958 598L958 601L959 601L958 598M964 598L964 601L966 601L966 598L964 598M967 598L967 600L969 600L969 598L967 598M959 601L960 602L959 601M966 601L967 605L968 605L969 601L966 601M961 603L962 604L961 603M968 605L968 606L970 608L971 608L968 605M964 607L965 608L964 607M965 608L966 609L965 608M971 608L972 609L971 608M966 609L967 610L966 609M967 610C960.791 614.704 946.625 612 939 612L867 612L867 613L944 613C947.74 613 968.754 614.654 967 610M972.333 610.667L972.667 611.333L972.333 610.667z"/>
<path style="fill:#030303; stroke:none;" d="M976 610L976 611L979 611L976 610z"/>
<path style="fill:#585858; stroke:none;" d="M974.333 612.667L974.667 613.333L974.333 612.667z"/>
<path style="fill:#bfc0c0; stroke:none;" d="M867 613L867 614L886.018 637.972L915 639L986 639L980 632C979.321 627.58 976.587 621.986 972 621C970.709 609.368 955.678 613 947 613L867 613z"/>
<path style="fill:#585858; stroke:none;" d="M969 614L970 615L969 614M975 614L976 615L975 614M971 616L972 617L971 616M972 617L972 621L973 621L972 617M977 617L978 618L977 617M978 618L978 620L980 620L978 618M980 622L980 623L985 628L984 625C1014.55 617.82 1051.52 623 1083 623L1083 622L987 622L987 621L1081 621C1074.56 618.299 1064.95 620 1058 620L1006 620C997.907 620 987.268 618.121 980 622M975 621L975 624L976 624L975 621z"/>
<path style="fill:#bfc0c0; stroke:none;" d="M987 621L987 622L1081 622L1052 621L987 621M984 625L988 633L1023 632L1089 632C1084.19 620.993 1074.2 623 1064 623L1013 623C1003.37 623 993.142 621.735 984 625z"/>
<path style="fill:#585858; stroke:none;" d="M976 624L977 625L976 624M977 625L978 626L977 625M978 626L979 627L978 626M979 627L980 628L979 627M986 629L986 632L987 632L986 629M980 630L980 632L982 630L980 630M987 632L988 633L987 632M988 633L989 637L990 637C995.611 631.271 1009.41 634 1017 634L1090 634C1084.1 629.528 1071.23 632 1064 632L1014 632C1005.69 632 995.999 630.636 988 633M982 633L983 634L982 633M983 634L984 635L983 634z"/>
<path style="fill:#bfc0c0; stroke:none;" d="M990 637L996 637L996 646L999 645C1000.21 650.635 1017.87 648 1023 648L1100 648C1097.1 644.117 1093.81 637.151 1089.47 634.858C1084.34 632.151 1074.69 634 1069 634L1019 634C1012.14 634 994.005 630.822 990 637z"/>
<path style="fill:#585858; stroke:none;" d="M984 635L985 636L984 635z"/>
<path style="fill:#030303; stroke:none;" d="M992 635L992 636L996 636L992 635z"/>
<path style="fill:#585858; stroke:none;" d="M985 636L986 637L985 636M986 637C979.791 641.704 965.625 639 958 639L886 639L886 640L963 640C966.74 640 987.754 641.654 986 637M991 637L992 638L991 637z"/>
<path style="fill:#bfc0c0; stroke:none;" d="M886 640C888.822 646.815 896.571 662.344 903.13 665.976C909.954 669.756 924.299 667 932 667L1003 667L999 663L988 640L886 640z"/>
<path style="fill:#585858; stroke:none;" d="M993.333 640.667L993.667 641.333L993.333 640.667M988 642L989 643L988 642M994 642L995 643L994 642M989 643L990 644L989 643M995 643L996 644L995 643M990 644L991 645L990 644M997 645C998.016 649.225 999.637 651.294 1004 652L1004 651L1000 651L1000 649L1100 649L1100 648L1031 648C1019.62 648 1006.97 649.867 997 645M991 647L992 648L991 647M992 648L993 649L992 648M993 649L994 652L995 652L995 649L993 649z"/>
<path style="fill:#bfc0c0; stroke:none;" d="M1000 649L1000 651L1004 651L1004 652L1004 659L1106 659C1100.46 646.183 1088.89 649 1077 649L1000 649z"/>
<path style="fill:#585858; stroke:none;" d="M995 652L996 653L995 652M996 655L997 656L996 655M1002 655L1003 656L1002 655M997 656L998 657L997 656M1003 656L1003 659L1004 659L1003 656M998 657L999 658L998 657M1005 659L1010 667L1010 662L1107 662C1102.76 656.123 1087.71 659 1081 659L1005 659M1000 660L999 663L1000 660z"/>
<path style="fill:#bfc0c0; stroke:none;" d="M1010 662L1010 669L1045 668L1111 668C1106.54 658.961 1093.49 662 1085 662L1010 662z"/>
<path style="fill:#585858; stroke:none;" d="M1001 663L1002 664L1001 663M1002 664L1003 665L1002 664M1003 665C996.791 669.704 982.625 667 975 667L903 667L903 668L980 668C983.74 668 1004.75 669.654 1003 665z"/>
<path style="fill:#bfc0c0; stroke:none;" d="M903 668C908.536 680.077 919.377 677 931 677L1007 677L1005 668L903 668z"/>
<path style="fill:#585858; stroke:none;" d="M1005 668L1005 671L1006 671L1005 668M1010 669C1011.69 673.296 1013.38 678.506 1018 680C1021.69 674.315 1035.8 677 1042 677L1115 677L1115 676L1014 676L1014 674L1114 674L1114 673L1013 673L1013 670L1112 670C1106.1 665.528 1093.23 668 1086 668L1036 668C1027.69 668 1018 666.636 1010 669z"/>
<path style="fill:#bfc0c0; stroke:none;" d="M1013 670L1013 673L1114 673C1108.48 667.194 1094.49 670 1087 670L1013 670z"/>
<path style="fill:#585858; stroke:none;" d="M1006 671L1007 672L1006 671M1007 674C1003.25 679.788 988.338 677 982 677L908 677L908 678L932 679L977 679L1010 678L1007 674z"/>
<path style="fill:#bfc0c0; stroke:none;" d="M1014 674L1014 676L1115 676C1108.79 671.296 1094.63 674 1087 674L1014 674M1018 677L1021 687L1122 687C1113.97 674.333 1103.79 677 1090 677L1018 677M909 679L909 680L1009 680L1009 681L911 681C914.442 694.178 927.002 691 938 691L1016 691L1013 688L1010 682L1010 678L975 679L909 679z"/>
<path style="fill:#585858; stroke:none;" d="M1011 679L1010 682L1011 679M911 680L911 681L1009 681L979 680L911 680M1016 681L1017 682L1016 681M1012 682L1013 683L1012 682M1017 682L1018 683L1017 682M1013.33 683.667L1013.67 684.333L1013.33 683.667M1018 683L1019 684L1018 683M1019 684L1023 693L1024 692L1022 688L1122 688L1122 687L1053 687C1041.62 687 1028.97 688.867 1019 684M1014 685L1013 688L1014 685M1015 688L1016 689L1015 688z"/>
<path style="fill:#bfc0c0; stroke:none;" d="M1022 688L1022 691L1123 691C1119.25 685.212 1104.34 688 1098 688L1022 688z"/>
<path style="fill:#585858; stroke:none;" d="M916 691L916 692L940 693L985 693L1018 692L987 691L916 691z"/>
<path style="fill:#bfc0c0; stroke:none;" d="M1017 692L984 693L917 693L933.5 729L941.313 744.973L969 746L1041 746L1040 739L1038 740L1032 722L1030 723C1029.96 719.95 1030.45 715.516 1027 715L1017 692M1026 692L1026 693L1123 693L1093 692L1026 692z"/>
<path style="fill:#585858; stroke:none;" d="M1018 694L1019 695L1018 694z"/>
<path style="fill:#bfc0c0; stroke:none;" d="M1026 694L1027 702L1130 703C1122.92 690.999 1113 694 1100 694L1026 694z"/>
<path style="fill:#585858; stroke:none;" d="M1019 695L1019 698L1020 698L1019 695M1025 695L1027 700L1025 695M1022 701L1022 704L1023 704L1022 701M1028 701C1028.63 706.625 1046.87 704 1052 704L1130 704L1130 703L1059 703C1049.81 703 1036.19 705.555 1028 701z"/>
<path style="fill:#bfc0c0; stroke:none;" d="M1029 705L1029 706L1131 706C1125.1 701.528 1112.23 704 1105 704L1055 704C1046.69 704 1037 702.636 1029 705z"/>
<path style="fill:#585858; stroke:none;" d="M1030 709L1031 709C1037.21 704.296 1051.37 707 1059 707L1131 707C1125.81 704.012 1115.08 706 1109 706L1053 706C1047.96 706 1031.2 703.413 1030 709M1025 707L1026 708L1025 707z"/>
<path style="fill:#bfc0c0; stroke:none;" d="M1035 719L1070 718L1136 718L1135 711C1125.68 705.913 1116.69 707 1106 707L1060 707C1053.52 707 1041.23 704.613 1035.44 707.603C1031.66 709.553 1034.37 715.921 1035 719z"/>
<path style="fill:#585858; stroke:none;" d="M542 708L542 767L541 799L546 799L546 708L542 708M552 708L552 769L551 802L555 802L555 708L552 708M558 708L558 805L559 805L559 738L558 708z"/>
<path style="fill:#030303; stroke:none;" d="M571 708L572 709L571 708z"/>
<path style="fill:#585858; stroke:none;" d="M1026 710L1027 711L1026 710M1032.33 710.667L1032.67 711.333L1032.33 710.667M578 712L578 778L577 813L583 816C577.773 806.498 580 793.598 580 783L580 712L578 712z"/>
<path style="fill:#bfc0c0; stroke:none;" d="M580 712L580 782L580.603 811.957L604.004 831.129L629.478 857.142L659 858L731 858C715.877 835.197 692.281 824.544 673 806.906C663.777 798.469 654.475 789.347 646.174 780C642.885 776.296 640.988 770.822 637 768L637 816L636 816C636 794.705 642.456 764.94 624 750L624 827L623 827L623 772C623 765.18 625.073 754.201 621.972 748C614.562 733.179 593.791 720.332 580 712z"/>
<path style="fill:#585858; stroke:none;" d="M1033 712L1035 717L1033 712M1027 713L1027 715L1029 713L1027 713M1029 716L1030 717L1029 716M1030 717L1030 723L1031 723L1030 717M1035 719L1038 728L1140 728L1139 723L1037 723C1042.61 717.271 1056.41 720 1064 720L1137 720C1131.1 715.528 1118.23 718 1111 718L1061 718C1052.69 718 1043 716.636 1035 719z"/>
<path style="fill:#bfc0c0; stroke:none;" d="M1037 723L1139 723C1134.07 717.822 1123.63 720 1117 720L1060 720C1053.93 720 1040.62 717.421 1037 723z"/>
<path style="fill:#585858; stroke:none;" d="M1032 724L1034 727L1032 724M1034 727L1035 728L1034 727z"/>
<path style="fill:#bfc0c0; stroke:none;" d="M1043 731L1046 742L1147 742C1144.46 738.083 1144.08 731.024 1139.58 728.639C1133.86 725.599 1121.45 728 1115 728L1064 728C1057.8 728 1047.89 726.091 1042.11 728.333C1039.24 729.446 1041.36 730.647 1043 731z"/>
<path style="fill:#585858; stroke:none;" d="M1041 731L1041 734L1042 734L1043 731L1041 731M1035 732L1035 735L1037 735L1037 732L1035 732M1042 734L1043 735L1042 734M1037 735L1038 736L1037 735M1038 738L1038 740L1040 738L1038 738M1043 738L1044 739L1043 738M1044 739L1046 747L1148 747L1148 746L1047 746L1047 744L1147 744L1147 742L1078 742C1066.62 742 1053.97 743.867 1044 739M1040 743L1041 746L941 746L941 748L1008 748L1043 749L1040 743z"/>
<path style="fill:#bfc0c0; stroke:none;" d="M1047 744L1047 746L1148 746C1141.79 741.296 1127.63 744 1120 744L1047 744M1049 747C1049.17 762.375 1062.34 759 1074 759L1153 759C1148.81 743.622 1137.65 747 1124 747L1049 747M941 748C944.751 757.174 957.698 754 966 754L1017 754C1025.61 754 1035.72 755.448 1044 753C1040.99 744.809 1026.26 748 1019 748L941 748z"/>
<path style="fill:#585858; stroke:none;" d="M1048.33 748.667L1048.67 749.333L1048.33 748.667M1044 751C1038.39 756.729 1024.59 754 1017 754L944 754L944 756L1045 756L1044 751M1049 754L1052 759L1049 754z"/>
<path style="fill:#bfc0c0; stroke:none;" d="M944 756L950.572 770.142L978 771L1049 771L1046 756L944 756z"/>
<path style="fill:#585858; stroke:none;" d="M534 758C523.497 768.503 535.466 785.045 528 795L535 796C535 785.089 538.211 768.036 534 758M1052 759C1052.8 770.836 1068.25 767 1077 767L1156 767L1156 766L1153 759L1052 759M1046 760L1047 761L1046 760M1047.33 761.667L1047.67 762.333L1047.33 761.667M1049 764L1049 771L950 771L950 773L1051 773L1049 764M636 767L636 816L637 816C637 802.212 641.309 779.652 636 767M521 769L521 791L522 791L521 769z"/>
<path style="fill:#bfc0c0; stroke:none;" d="M1057 769C1057.14 780.964 1072.06 777 1081 777L1159 777C1156.46 765.473 1143.46 769 1134 769L1057 769z"/>
<path style="fill:#585858; stroke:none;" d="M1056.33 770.667L1056.67 771.333L1056.33 770.667z"/>
<path style="fill:#bfc0c0; stroke:none;" d="M950 773C954.625 788.325 965.094 785 979 785L1054 785L1052 773L950 773z"/>
<path style="fill:#585858; stroke:none;" d="M1052 773L1052 778L1053 778L1052 773M1057 776L1058 777L1057 776M1058 777L1061 792L1062 792C1067.61 786.271 1081.41 789 1089 789L1162 789L1161 781L1060 781L1060 778L1159 778L1128 777L1058 777M1053 778L1054 779L1053 778z"/>
<path style="fill:#bfc0c0; stroke:none;" d="M1060 778L1060 781L1161 781C1155.48 775.194 1141.49 778 1134 778L1060 778z"/>
<path style="fill:#585858; stroke:none;" d="M507 780L497 791L508 791L507 780M1054 782C1050.25 787.788 1035.34 785 1029 785L955 785L955 789L1056 789L1054 782z"/>
<path style="fill:#bfc0c0; stroke:none;" d="M955 789C958.313 799.351 971.027 796 980 796L1057 796L1057 789L955 789M1062 792L1164 792C1159.07 786.822 1148.63 789 1142 789L1085 789C1078.93 789 1065.62 786.421 1062 792z"/>
<path style="fill:#585858; stroke:none;" d="M508 791L509 792L508 791M509 792L509 793L522 794L509 792M1063 792L1063 793L1164 793L1133 792L1063 792z"/>
<path style="fill:#0176ad; stroke:none;" d="M496 793C492.801 799.648 494 807.766 494 815L494 857L494 933C494 939.763 491.155 955.174 495.742 960.566C501.18 966.959 525.062 963 533 963L621 963C629.935 963 647.603 966.438 655.566 962.397C660.323 959.982 657.142 938.745 654 936L657 961L496 961L496 846L496 793z"/>
<path style="fill:#585858; stroke:none;" d="M1057 793C1053.25 798.788 1038.34 796 1032 796L958 796L958 798L1059 798L1057 793z"/>
<path style="fill:#01afff; stroke:none;" d="M496 795L496 961L657 961L649 910C645.205 912.641 641.719 916.821 637 917.717C629.503 919.14 623.44 912.163 626.152 905C628.671 898.346 634.645 895.702 641 894C640.004 887.724 635.827 882.829 633.504 877C617.692 837.331 573.56 810.569 533 800.444C520.846 797.411 508.28 797.281 496 795z"/>
<path style="fill:#0176ad; stroke:none;" d="M498 795L498 796L507 797L498 795z"/>
<path style="fill:#bfc0c0; stroke:none;" d="M1065 795C1065.14 806.964 1080.06 803 1089 803L1167 803C1163.82 791.378 1151 795 1141 795L1065 795z"/>
<path style="fill:#585858; stroke:none;" d="M1064 796L1064 799L1065 799L1064 796z"/>
<path style="fill:#0176ad; stroke:none;" d="M518 797L518 798L527 799L527 798L518 797z"/>
<path style="fill:#585858; stroke:none;" d="M540 797L541 798L540 797z"/>
<path style="fill:#bfc0c0; stroke:none;" d="M958 798C961.15 810.595 973.034 807 984 807L1061 807L1060 798L958 798z"/>
<path style="fill:#0176ad; stroke:none;" d="M527 799L528 800L527 799z"/>
<path style="fill:#585858; stroke:none;" d="M1060 799L1060 805L1061 805L1060 799z"/>
<path style="fill:#0176ad; stroke:none;" d="M534 800L535 801L534 800z"/>
<path style="fill:#585858; stroke:none;" d="M550 800L551 801L550 800z"/>
<path style="fill:#0176ad; stroke:none;" d="M535 801L535 802L540 803L535 801z"/>
<path style="fill:#585858; stroke:none;" d="M555 802L556 803L555 802M1065 802L1066 803L1065 802z"/>
<path style="fill:#0176ad; stroke:none;" d="M543 803L544 804L543 803z"/>
<path style="fill:#585858; stroke:none;" d="M1066 803L1069 822L1172 822L1172 821L1170 816L1069 816L1069 814L1169 814L1169 809L1067 809C1072.61 803.271 1086.41 806 1094 806L1167 806L1167 803L1066 803z"/>
<path style="fill:#0176ad; stroke:none;" d="M544 804L544 805L548 805L544 804M548 805L549 806L548 805z"/>
<path style="fill:#585858; stroke:none;" d="M561 805L562 806L561 805M1061 805C1054.79 809.704 1040.63 807 1033 807L961 807L961 810L1062 810L1061 805z"/>
<path style="fill:#0176ad; stroke:none;" d="M549 806L549 807L554 808L549 806z"/>
<path style="fill:#585858; stroke:none;" d="M562 806L562 807L566 807L562 806z"/>
<path style="fill:#bfc0c0; stroke:none;" d="M1067 809L1169 809C1164.07 803.822 1153.63 806 1147 806L1090 806C1083.93 806 1070.62 803.421 1067 809z"/>
<path style="fill:#585858; stroke:none;" d="M566 807L567 808L566 807z"/>
<path style="fill:#0176ad; stroke:none;" d="M556 808L557 809L556 808z"/>
<path style="fill:#585858; stroke:none;" d="M569 808L570 809L569 808z"/>
<path style="fill:#0176ad; stroke:none;" d="M557 809L557 810L562 811L557 809z"/>
<path style="fill:#585858; stroke:none;" d="M570 809L571 810L570 809M573 809L574 810L573 809M572 810L573 811L572 810z"/>
<path style="fill:#bfc0c0; stroke:none;" d="M961 810L961 811C969.479 815.412 982.615 813 992 813L1062 813L1062 810L961 810z"/>
<path style="fill:#0176ad; stroke:none;" d="M564 811L564 813L566 813L564 811M566 813L567 814L566 813M569 814L572 816L572 815L569 814z"/>
<path style="fill:#bfc0c0; stroke:none;" d="M1069 814L1069 816L1170 816C1163.79 811.296 1149.63 814 1142 814L1069 814z"/>
<path style="fill:#585858; stroke:none;" d="M963 815L963 816L987 817L1032 817L1065 816L1034 815L963 815z"/>
<path style="fill:#0176ad; stroke:none;" d="M572 816L573 817L572 816z"/>
<path style="fill:#bfc0c0; stroke:none;" d="M1064 816L1031 817L964 817L972 859L631 859L635 867L637 866L643 880L723 880L723 881L645 881L646 886L720 886L720 887L649 887L649 890L718 890L718 891C697.223 895.947 671.36 892 650 892L651 897C670.3 892.405 694.165 896 714 896L714 898L653 898L654 905L709 905L709 906L656 908L657 915L699 915L699 916L656 917L662 960L1082 960C1082 952.618 1085.58 932.418 1080.97 926.603C1076.69 921.191 1056.52 925.867 1050 924.852C1042.87 923.743 1036.84 914.842 1032 910L1080 910L1069.24 840.911L1064 816z"/>
<path style="fill:#0176ad; stroke:none;" d="M573 817L573 818L576 819L573 817z"/>
<path style="fill:#585858; stroke:none;" d="M586.333 817.667L586.667 818.333L586.333 817.667z"/>
<path style="fill:#0176ad; stroke:none;" d="M580 819L583 821L583 820L580 819z"/>
<path style="fill:#585858; stroke:none;" d="M589 819L590 820L589 819M590 820L591 821L590 820z"/>
<path style="fill:#0176ad; stroke:none;" d="M583 821L584 822L583 821z"/>
<path style="fill:#585858; stroke:none;" d="M591 821L592 822L591 821M594 822L594 824L596 824L594 822z"/>
<path style="fill:#0176ad; stroke:none;" d="M585 823L585 824L588 824L585 823z"/>
<path style="fill:#585858; stroke:none;" d="M1065 823L1066 824L1065 823z"/>
<path style="fill:#0176ad; stroke:none;" d="M588 824L589 825L588 824z"/>
<path style="fill:#585858; stroke:none;" d="M1066 824L1066 829L1067 829L1066 824z"/>
<path style="fill:#0176ad; stroke:none;" d="M589 825L590 826L589 825z"/>
<path style="fill:#585858; stroke:none;" d="M597.333 825.667L597.667 826.333L597.333 825.667z"/>
<path style="fill:#bfc0c0; stroke:none;" d="M1072 826L1074 842C1083.7 837.891 1096.6 840 1107 840L1175 840C1174.92 836.136 1175.32 828.065 1171.43 825.858C1165.54 822.518 1152.67 825 1146 825L1097 825C1088.98 825 1079.72 823.719 1072 826z"/>
<path style="fill:#0176ad; stroke:none;" d="M590 826L590 827L593 827L590 826z"/>
<path style="fill:#585858; stroke:none;" d="M1071 827L1072 828L1071 827z"/>
<path style="fill:#0176ad; stroke:none;" d="M593 828L596 831L593 828z"/>
<path style="fill:#585858; stroke:none;" d="M599 828L599 829L602 829L599 828M1072 828L1072 834L1073 834L1072 828M602 829L603 830L602 829M1067 829L1068 830L1067 829M603 830L604 831L603 830z"/>
<path style="fill:#0176ad; stroke:none;" d="M596 831L596 832L599 832L596 831z"/>
<path style="fill:#585858; stroke:none;" d="M604 831L605 832L604 831z"/>
<path style="fill:#0176ad; stroke:none;" d="M599 832L600 833L599 832z"/>
<path style="fill:#585858; stroke:none;" d="M605 832L606 833L605 832z"/>
<path style="fill:#0176ad; stroke:none;" d="M600 833L601 834L600 833z"/>
<path style="fill:#585858; stroke:none;" d="M606 833L607 834L606 833z"/>
<path style="fill:#0176ad; stroke:none;" d="M601 834L602 835L601 834z"/>
<path style="fill:#585858; stroke:none;" d="M607 834L608 835L607 834z"/>
<path style="fill:#0176ad; stroke:none;" d="M602 835L603 836L602 835z"/>
<path style="fill:#585858; stroke:none;" d="M608 835L609 836L608 835M1068 835L1069 836L1068 835z"/>
<path style="fill:#0176ad; stroke:none;" d="M603 836L604 837L603 836z"/>
<path style="fill:#585858; stroke:none;" d="M609 836L610 837L609 836M1069 836L1071 844L1069 836z"/>
<path style="fill:#0176ad; stroke:none;" d="M604 837L605 838L604 837z"/>
<path style="fill:#585858; stroke:none;" d="M610 837L611 838L610 837z"/>
<path style="fill:#0176ad; stroke:none;" d="M605 838L606 839L605 838z"/>
<path style="fill:#585858; stroke:none;" d="M611 838L612 839L611 838z"/>
<path style="fill:#0176ad; stroke:none;" d="M606 839L607 840L606 839z"/>
<path style="fill:#585858; stroke:none;" d="M612 839L613 840L612 839z"/>
<path style="fill:#0176ad; stroke:none;" d="M607 840L608 841L607 840z"/>
<path style="fill:#585858; stroke:none;" d="M613 840L614 841L613 840M1075 841L1078.6 858.972L1105 860L1179 860L1175.11 841.318L1150 840L1101 840L1075 841z"/>
<path style="fill:#0176ad; stroke:none;" d="M608 841L609 842L608 841z"/>
<path style="fill:#585858; stroke:none;" d="M614 841L615 842L614 841z"/>
<path style="fill:#0176ad; stroke:none;" d="M609 842L610 843L609 842z"/>
<path style="fill:#585858; stroke:none;" d="M615 842L616 843L615 842z"/>
<path style="fill:#0176ad; stroke:none;" d="M610 843L611 844L610 843z"/>
<path style="fill:#585858; stroke:none;" d="M616 843L617 844L616 843z"/>
<path style="fill:#0176ad; stroke:none;" d="M611 844L612 845L611 844z"/>
<path style="fill:#585858; stroke:none;" d="M617 844L618 845L617 844z"/>
<path style="fill:#0176ad; stroke:none;" d="M612 845L613 846L612 845z"/>
<path style="fill:#585858; stroke:none;" d="M618 845L619 846L618 845z"/>
<path style="fill:#0176ad; stroke:none;" d="M613 846L614 847L613 846z"/>
<path style="fill:#585858; stroke:none;" d="M619 846L620 847L619 846z"/>
<path style="fill:#0176ad; stroke:none;" d="M614 847L615 848L614 847z"/>
<path style="fill:#585858; stroke:none;" d="M620 847L621 848L620 847z"/>
<path style="fill:#0176ad; stroke:none;" d="M615 848L616 849L615 848z"/>
<path style="fill:#585858; stroke:none;" d="M621 848L622 849L621 848z"/>
<path style="fill:#0176ad; stroke:none;" d="M616 849L617 850L616 849z"/>
<path style="fill:#585858; stroke:none;" d="M622 849L623 850L622 849z"/>
<path style="fill:#0176ad; stroke:none;" d="M617 850L618 851L617 850M618 851L619 852L618 851z"/>
<path style="fill:#585858; stroke:none;" d="M624 851L625 852L624 851M1071 851L1073 853L1073 851L1071 851z"/>
<path style="fill:#0176ad; stroke:none;" d="M619 852L620 853L619 852z"/>
<path style="fill:#585858; stroke:none;" d="M625.333 852.667L625.667 853.333L625.333 852.667z"/>
<path style="fill:#0176ad; stroke:none;" d="M620 853L621 854L620 853M621 854L622 855L621 854M622 855L622 858L623 858L622 855z"/>
<path style="fill:#585858; stroke:none;" d="M627.667 856.333L628.333 856.667L627.667 856.333M630 861L631 861C637.209 856.296 651.375 859 659 859L731 859C725.814 856.012 715.081 858 709 858L653 858C647.959 858 631.197 855.413 630 861z"/>
<path style="fill:#0176ad; stroke:none;" d="M624 859L626 861L626 859L624 859z"/>
<path style="fill:#585858; stroke:none;" d="M1073 860L1074 861L1073 860z"/>
<path style="fill:#0176ad; stroke:none;" d="M627.333 862.667L627.667 863.333L627.333 862.667z"/>
<path style="fill:#585858; stroke:none;" d="M632 862L633 863L632 862M633 863L634 864L633 863z"/>
<path style="fill:#0176ad; stroke:none;" d="M628 864L629 865L628 864z"/>
<path style="fill:#585858; stroke:none;" d="M634 864L635 865L634 864z"/>
<path style="fill:#0176ad; stroke:none;" d="M629 865L630 866L629 865z"/>
<path style="fill:#bfc0c0; stroke:none;" d="M1082 892L1083 892C1089.21 887.296 1103.37 890 1111 890L1183 890L1182 868L1179 865L1105 865C1100.39 865 1083.92 862.498 1081.12 866.603C1078.02 871.127 1082 886.315 1082 892z"/>
<path style="fill:#0176ad; stroke:none;" d="M630 866L630 869L631 869L630 866z"/>
<path style="fill:#585858; stroke:none;" d="M636 866L635 868L637 868L636 866M1079.33 867.667L1079.67 868.333L1079.33 867.667M1074 869L1075 870L1074 869M1080 869L1082 880L1080 869z"/>
<path style="fill:#0176ad; stroke:none;" d="M632 870L633 871L632 870z"/>
<path style="fill:#585858; stroke:none;" d="M1075 870L1076 871L1075 870z"/>
<path style="fill:#0176ad; stroke:none;" d="M633 871L634 872L633 871z"/>
<path style="fill:#585858; stroke:none;" d="M638 871L639 872L638 871M639 872L640 873L639 872z"/>
<path style="fill:#0176ad; stroke:none;" d="M632 875L633 878L634 878L634 875L632 875z"/>
<path style="fill:#585858; stroke:none;" d="M640 875L641 876L640 875M641 876L642 877L641 876M642 877L643 878L642 877z"/>
<path style="fill:#0176ad; stroke:none;" d="M634 878L635 879L634 878z"/>
<path style="fill:#585858; stroke:none;" d="M1076 879L1077 880L1076 879M644 883L645 883C650.274 879.004 660.577 881 667 881L723 881C718.584 878.455 710.17 880 705 880L662 880C657.423 880 645.136 877.7 644 883M1077 880L1077 892L1078 892L1077 880z"/>
<path style="fill:#0176ad; stroke:none;" d="M635 881L636 884L637 884L637 881L635 881z"/>
<path style="fill:#585858; stroke:none;" d="M645 883L646 884L645 883z"/>
<path style="fill:#0176ad; stroke:none;" d="M637 884L638 885L637 884M638 885L640 888L638 885z"/>
<path style="fill:#585858; stroke:none;" d="M646 886L648 890L649 887L720 887L697 886L646 886M649 890L649 894L650 894C654.782 890.377 663.197 892 669 892C684.049 892 703.575 895.264 718 891L696 890L649 890M1085 924L1187 924L1184.05 900.985L1182.4 891.028L1162 890L1106 890L1083.83 891.028L1082.99 899L1085 924z"/>
<path style="fill:#0176ad; stroke:none;" d="M641 891L633 896L633 897L643 896L641 891z"/>
<path style="fill:#585858; stroke:none;" d="M1078 892L1079 893L1078 892z"/>
<path style="fill:#0176ad; stroke:none;" d="M547 896L547 897L562 897C558.479 892.647 551.69 894.517 547 896M590 897C597.948 895.009 604.699 895.664 608 904C610.747 895.214 594.866 890.984 590 897z"/>
<path style="fill:#585858; stroke:none;" d="M650 894L650 897L651 897L650 894z"/>
<path style="fill:#030303; stroke:none;" d="M596 895.61C579.819 896.611 575.184 917.094 573.58 930C572.539 938.381 576.161 947.396 586 946.786C601.244 945.84 607.884 925.782 608.907 913C609.632 903.935 606.657 894.951 596 895.61M557 924C552.599 936.103 544.617 940.992 532 941C531.655 951.644 546.992 945.604 551.985 942.022C561.426 935.248 566.727 921.398 566.946 910C567.414 885.669 534.763 896.956 535.035 917C535.205 929.57 549.099 928.431 557 924z"/>
<path style="fill:#585858; stroke:none;" d="M652 896L652 900L653 900L671 898L714 898L714 896L652 896z"/>
<path style="fill:#0176ad; stroke:none;" d="M543 899L546 897L543 899M563 897C566.934 906.992 565.829 912.587 565 923L566 923C568.185 914.554 570.626 903.201 563 897M586 899L589 897L586 899M629 900L633 897L629 900M542 899L543 900L542 899M585 899L586 900L585 899M541 900L542 901L541 900M583 900L583 902L585 902L585 900L583 900M628 900L627 903L628 900M632 905C633.337 904.359 634.769 903.369 636.189 902.938C645.907 899.981 635.792 918.453 632 906C629.753 913.095 639.786 913.575 642.253 907.79C645.735 899.626 635.479 899.167 632 905z"/>
<path style="fill:#585858; stroke:none;" d="M653 900L654 901L653 900z"/>
<path style="fill:#0176ad; stroke:none;" d="M540 901L538 905L540 901M547 905L552 903L547 905z"/>
<path style="fill:#01afff; stroke:none;" d="M552.004 902.747C543.788 904.239 538.426 922.192 550.001 920.373C559.596 918.865 563.368 900.684 552.004 902.747z"/>
<path style="fill:#0176ad; stroke:none;" d="M555.667 902.333L556.333 902.667L555.667 902.333M582 902L583 903L582 902M585 913L586 913C588.277 908.218 590.886 904.753 596 903C589.847 900.865 586.168 907.924 585 913z"/>
<path style="fill:#01afff; stroke:none;" d="M595.982 902.967C585.707 902.638 582.776 920.651 581.951 928C581.512 931.917 580.385 938.373 586.055 938.793C596.681 939.58 600.023 920.65 600.826 913C601.226 909.192 601.163 903.133 595.982 902.967z"/>
<path style="fill:#0176ad; stroke:none;" d="M597 902L597 903L601 905L597 902z"/>
<path style="fill:#01afff; stroke:none;" d="M635.343 902.943C630.005 905.74 633.205 913.125 638.772 909.816C643.701 906.887 640.749 900.111 635.343 902.943z"/>
<path style="fill:#0176ad; stroke:none;" d="M557 903L559 905L559 903L557 903M581 903L580 907L581 907L581 903M626.333 903.667L626.667 904.333L626.333 903.667M537 905L536 910L537 910L537 905M559 905L559 908L560 908L559 905M601 905L601 915L602 915L601 905M609 905L609 914L610 914L609 905z"/>
<path style="fill:#585858; stroke:none;" d="M655 905L655 910L656 910C660.143 905.77 666.438 907 672 907C683.541 907 697.92 909.275 709 906L691 905L655 905z"/>
<path style="fill:#0176ad; stroke:none;" d="M545 906L543 912L544 912L545 906M625 906L625 912L626 912L625 906M579 907L580 908L579 907M578 908L577 913L578 913L578 908z"/>
<path style="fill:#585858; stroke:none;" d="M1080 908L1065 910L1032 910C1044.96 928.402 1060.81 925 1081 925L1080 908z"/>
<path style="fill:#0176ad; stroke:none;" d="M645 913L649 909L645 913M535.333 910.667L535.667 911.333L535.333 910.667M559 910L555 919C558.705 917.056 560.585 914.112 559 910M649 910L650 920L651 920L649 910M626.333 912.667L626.667 913.333L626.333 912.667z"/>
<path style="fill:#585858; stroke:none;" d="M656 912L655 919L656 919C665.98 911.439 686.989 919.55 699 916L699 915C688.448 915 663.867 919.51 656 912z"/>
<path style="fill:#0176ad; stroke:none;" d="M542 913L542 918L543 918L542 913M641 916L645 913L641 916M534 914L534 921L535 921L534 914M576 914L574 923L575 923L576 914M584 914L582 924L583 924L584 914M627 914L627 916L629 916L627 914M600 915L599 923L600 923L600 915M608 916L607 924L608 924L608 916M629 916L629 917L641 917L641 916L629 916M543 919C545.979 923.216 550.874 921.985 555 920L555 919L543 919M651 920L652 921L651 920M652 921L652 927L653 927L652 921M535 922L540 927L535 922M564 923L562 930L563 930L564 923M556 924L554 930L555 930L556 924M573 924L573 940L574 940L573 924M598 924L596 932L597 932L598 924M606 924L606 927L607 927L606 924M581 925L581 938L582 938L581 925z"/>
<path style="fill:#585858; stroke:none;" d="M1081 925L1082 926L1081 925z"/>
<path style="fill:#0176ad; stroke:none;" d="M552.667 926.333L553.333 926.667L552.667 926.333z"/>
<path style="fill:#585858; stroke:none;" d="M657 926L658 927L657 926z"/>
<path style="fill:#0176ad; stroke:none;" d="M541 927L541 928L551 928L541 927M605 927L604 932L605 932L605 927M653 927L654 928L653 927z"/>
<path style="fill:#585858; stroke:none;" d="M658 927L658 935L659 935L658 927z"/>
<path style="fill:#0176ad; stroke:none;" d="M553 930L552 933L553 930M561 930L560 934L561 934L561 930M595.333 932.667L595.667 933.333L595.333 932.667M551 933L550 936L551 933M603 933L601 938L602 938L603 933M559 934L560 935L559 934M594 934L590 939L594 934M558 935L557 938L558 935M548 936L547 938L549 938L548 936M545.667 938.333L546.333 938.667L545.667 938.333M556 938L554 941L556 938M582 938L583 939L582 938M600 938L596 943L600 938M545 947L545 946C539.545 946.431 532.248 948.646 532 941L545 940C541.538 938.558 525.348 938.772 531.043 946.258C533.696 949.745 541.466 947.656 545 947M583 939L583 940L590 940L583 939M574.333 940.667L574.667 941.333L574.333 940.667M550 944L554 941L550 944M575.333 942.667L575.667 943.333L575.333 942.667M595 943L596 944L595 943M546 945L546 946L550 945L546 945M576 944L579 946L576 944M592 946L595 944L592 946M579 946L579 947L588 948L588 947L579 946M588 946L588 947L591 947L588 946z"/>
<path style="fill:#585858; stroke:none;" d="M660 948L661 949L660 948M661 949L661 960L662 960L661 949M1091 954L1092 963C1080.69 965.692 1067.59 964 1056 964L988 964L771 964L690 964C683.564 964 666.338 961.036 662 966L658 965L659 1000L659 1067L711 1065L801 1065L1092 1065L1092 963L1194 963L1187 959L1187 954L1091 954z"/>
<path style="fill:#bfc0c0; stroke:none;" d="M390 963L390 964L425 965L490 965L490 1064L492 1064L492 963L390 963M1092 963L1092 1064L1094 1064L1094 965L1159 965L1194 964L1163 963L1092 963z"/>
<path style="fill:#585858; stroke:none;" d="M496 964L496 1065L657 1065L657 964L496 964z"/>
<path style="fill:#bfc0c0; stroke:none;" d="M657 966L657 1067L659 1067L659 966L657 966z"/>
</svg>
