<?xml version="1.0" standalone="yes"?>
<svg xmlns="http://www.w3.org/2000/svg" width="2000" height="1000">
<path style="fill:#010101; stroke:none;" d="M0 0L0 509L493 510C500.017 496.452 497 478.301 497 463L497 363L497 0L0 0z"/>
<path style="fill:#ff017e; stroke:none;" d="M497 0L497 505L500 508L501 508L501 505L989 505L992 508L992 1000L1487 1000L1487 674L1487 568L1486 508C1465.83 512.741 1442.78 510 1422 510L1305 510L1106 510C1068.37 510 1029.11 512.91 992 508L992 0L497 0z"/>
<path style="fill:#ffff80; stroke:none;" d="M992 0L992 508L996 508L996 505L1483 505L1486 508C1490.48 564.738 1487 623.045 1487 680L1487 1000L2000 1000L2000 508L1491 510L1491 507L1487 507L1486 0L992 0z"/>
<path style="fill:#01ff7c; stroke:none;" d="M1486 0L1487 507C1542.71 499.631 1602.59 505 1659 505L1979 505L1979 508L2000 508L2000 0L1486 0M496 505L493 510L0 509L0 1000L497 1000C493.689 958.052 496 915.113 496 873L496 645L496 545C496 534.153 500.049 514.671 496 505z"/>
<path style="fill:#0101ff; stroke:none;" d="M497 505L496 833L496 939L497 1000L992 1000L992 508C977.188 511.481 961.259 510 946 510L867 510L615 510L528 510C520.39 510 503.13 513.514 500 505L497 505z"/>
<path style="fill:#010101; stroke:none;" d="M501 505L501 510L989 510L989 505L501 505M996 505L996 510L1483 510L1483 505L996 505M1491 505L1491 510L1979 510L1979 505L1491 505z"/>
</svg>
