<?xml version="1.0" standalone="yes"?>
<svg xmlns="http://www.w3.org/2000/svg" width="2000" height="2000">
<path style="fill:#2b6265; stroke:none;" d="M0 0L0 2000L2000 2000L2000 0L0 0z"/>
<path style="fill:#779ca0; stroke:none;" d="M41 39C62.6614 33.8427 89.7285 38 112 38L256 38L717 38L1574 38L1842 38L1926 38C1939.73 38 1955.62 35.8136 1969 39C1964.75 34.1364 1948.29 37 1942 37L1865 37L1553 37L415 37L134 37L65 37C59.1667 37 44.9808 34.4445 41 39z"/>
<path style="fill:#b7bdc1; stroke:none;" d="M42.483 38.9382C36.0056 42.5143 39 58.7286 39 65L39 143L39 471L39 1577L39 1865L39 1939C39 1946.01 36.0967 1961.51 40.4336 1967.28C44.7555 1973.03 61.5133 1970 68 1970L148 1970L477 1970L1563 1970L1857 1970L1937 1970C1944.93 1970 1960.94 1973.06 1967.85 1968.97C1973.89 1965.4 1971 1949.08 1971 1943L1971 1865L1971 1538L1971 431L1971 143L1971 68C1971 61.1848 1973.79 46.3417 1969.57 40.7238C1965.24 34.975 1948.49 38 1942 38L1862 38L1531 38L452 38L156 38L75 38C66.5193 38 49.9646 34.8077 42.483 38.9382z"/>
<path style="fill:#81a8ac; stroke:none;" d="M41 39L42 40L41 39M1968 39L1969 40L1968 39z"/>
<path style="fill:#779ca0; stroke:none;" d="M38 40L38 1491L38 1849L38 1938C38 1944.73 34.8355 1963.49 40 1968C36.8138 1954.62 39 1938.73 39 1925L39 1841L39 1572L39 716L39 255L39 111C39 88.7284 34.8428 61.6616 40 40L38 40z"/>
<path style="fill:#81a8ac; stroke:none;" d="M40 40L41 41L40 40M1969 40L1970 41L1969 40z"/>
<path style="fill:#779ca0; stroke:none;" d="M1970 40C1975.16 61.6613 1971 88.7286 1971 111L1971 255L1971 716L1971 1572L1971 1841L1971 1925C1971 1938.73 1973.19 1954.62 1970 1968C1974.56 1964.02 1972 1949.83 1972 1944L1972 1875L1972 1594L1972 457L1972 144L1972 67C1972 60.7135 1974.86 44.2499 1970 40z"/>
<path style="fill:#81a8ac; stroke:none;" d="M45 42L45 43L519 43L519 518C522.707 509.165 520 494.585 520 485L520 411L520 153L520 71C520 65.479 522.942 46.6276 518.397 43.0277C512.734 38.5432 493.161 42 486 42L396 42L45 42M1000 520L1000 519L525 519L525 43L1000 43C991.404 39.3928 977.322 42 968 42L894 42L638 42L555 42C548.402 42 530.849 38.873 525.603 43.0277C521.251 46.4752 524 63.7606 524 69L524 146L524 427L524 496C524 500.813 521.545 515.758 525.603 518.972C531.266 523.457 550.839 520 558 520L649 520L1000 520M1010 42L1010 43L1485 43L1485 519L1010 519C1018.6 522.607 1032.68 520 1042 520L1116 520L1372 520L1455 520C1461.6 520 1479.15 523.127 1484.4 518.972C1488.75 515.525 1486 498.24 1486 493L1486 416L1486 135L1486 66C1486 61.1865 1488.46 46.2422 1484.4 43.0277C1478.73 38.5432 1459.16 42 1452 42L1361 42L1010 42M1491 42L1491 43L1965 43C1954.02 38.3926 1934.94 42 1923 42L1827 42L1491 42z"/>
<path style="fill:#2ba4a8; stroke:none;" d="M44 43L44 519L519 519L519 43L44 43M525 43L525 519L1001 519L1001 43L525 43M1009 43L1009 85L1009 186L1009 409L1009 519L1485 519L1485 43L1009 43M1490 43L1490 519L1966 519L1966 43L1490 43z"/>
<path style="fill:#81a8ac; stroke:none;" d="M43 44L43 519L44 519L44 183L44 86C44 74.0559 47.6073 54.98 43 44M1001 44L1001 518L1002 518L1002 182L1002 86C1002 74.0562 1005.61 54.9799 1001 44M1008.33 44.6666L1008.67 45.3334L1008.33 44.6666M1489 44L1489 518L1490 518L1490 182L1490 86C1490 74.056 1493.61 54.9799 1489 44M1966 44L1966 518L1967 518L1967 182L1967 86C1967 74.056 1970.61 54.9799 1966 44M1006 47L1006 51L1007 51L1006 47M1007 51C1009.48 61.4148 1008 73.3307 1008 84L1008 146L1008 343L1008 454C1008 471.393 1011.03 492.066 1007 509C1011.45 505.111 1009 491.681 1009 486L1009 419L1009 150L1009 76C1009 70.015 1011.66 55.0714 1007 51M1006 509L1006 513L1007 513L1006 509M1007 513L1008 518L1009 518L1007 513M44 519L44 520L518 520C507.02 515.393 487.944 519 476 519L380 519L44 519M1491 519L1491 520L1965 520C1954.02 515.393 1934.94 519 1923 519L1827 519L1491 519M43 523L42 525L43 523z"/>
<path style="fill:#779ca0; stroke:none;" d="M44 523L44 524L519 524C508.02 519.393 488.944 523 477 523L380 523L44 523z"/>
<path style="fill:#81a8ac; stroke:none;" d="M519 523L521 525L519 523z"/>
<path style="fill:#2b6265; stroke:none;" d="M43 524L43 1001L520 1001L520 524L43 524z"/>
<path style="fill:#81a8ac; stroke:none;" d="M525 524L524 526L525 524z"/>
<path style="fill:#779ca0; stroke:none;" d="M526 524L526 525L1000 525C989.02 520.393 969.944 524 958 524L862 524L526 524z"/>
<path style="fill:#81a8ac; stroke:none;" d="M1000 524L1001 575L1001 676L1001 999L1002 999L1002 649L1002 558C1002 549.197 1005.39 531.11 1000 524M1009 524L1006 531L1009 524z"/>
<path style="fill:#779ca0; stroke:none;" d="M1010 524L1010 525L1484 525C1473.02 520.393 1453.94 524 1442 524L1346 524L1010 524z"/>
<path style="fill:#81a8ac; stroke:none;" d="M1484 524L1486 526L1484 524M1489 999L1490 999L1490 525L1966 525L1966 999C1969.61 990.404 1967 976.322 1967 967L1967 893L1967 637L1967 555C1967 548.402 1970.13 530.849 1965.97 525.603C1962.76 521.545 1947.81 524 1943 524L1874 524L1593 524L1516 524C1510.76 524 1493.48 521.25 1490.03 525.603C1485.54 531.266 1489 550.839 1489 558L1489 648L1489 999z"/>
<path style="fill:#779ca0; stroke:none;" d="M42 525L42 1000L43 1000L43 664L43 567C43 555.056 46.6074 535.98 42 525M520 525L520 1000L521 1000L521 664L521 567C521 555.056 524.607 535.98 520 525z"/>
<path style="fill:#2b6265; stroke:none;" d="M525 525L525 1000L1001 1000L1001 525L525 525M1009 525L1009 578L1009 686L1009 1000L1485 1000L1485 525L1009 525z"/>
<path style="fill:#2ba4a8; stroke:none;" d="M1490 525L1490 1000L1966 1000L1966 525L1490 525z"/>
<path style="fill:#779ca0; stroke:none;" d="M524 526L524 999L525 999L525 664L525 568C525 556.056 528.607 536.98 524 526M1485 526L1485 999L1486 999L1486 664L1486 568C1486 556.056 1489.61 536.98 1485 526M1006.33 531.667L1006.67 532.333L1006.33 531.667z"/>
<path style="fill:#81a8ac; stroke:none;" d="M1006 533L1007 534L1006 533M1007 534C1009.48 544.415 1008 556.331 1008 567L1008 628L1008 823L1008 932C1008 949.393 1011.03 970.066 1007 987C1011.45 983.111 1009 969.681 1009 964L1009 899L1009 632L1009 559C1009 553.015 1011.66 538.071 1007 534M1006 987L1007 988L1006 987z"/>
<path style="fill:#779ca0; stroke:none;" d="M1006 988L1006 991L1007 991L1006 988z"/>
<path style="fill:#81a8ac; stroke:none;" d="M1006 991L1007 992L1006 991M1007 992L1008 999L1009 999L1007 992M524 999L525 1000L524 999M1485 999L1486 1000L1485 999M42 1000L43 1001L42 1000M525 1000L525 1001L1000 1001C989.02 996.393 969.944 1000 958 1000L861 1000L525 1000M1010 1000L1010 1001L1485 1001C1474.02 996.393 1454.94 1000 1443 1000L1346 1000L1010 1000M1491 1000L1491 1001L1965 1001C1954.26 996.492 1935.68 1000 1924 1000L1827 1000L1491 1000M43 1001L44 1002L43 1001z"/>
<path style="fill:#779ca0; stroke:none;" d="M44 1001L44 1002L48 1002L44 1001z"/>
<path style="fill:#81a8ac; stroke:none;" d="M48 1001L48 1002L503 1002C492.496 997.592 474.42 1001 463 1001L370 1001L48 1001z"/>
<path style="fill:#779ca0; stroke:none;" d="M503.667 1001.33L504.333 1001.67L503.667 1001.33z"/>
<path style="fill:#81a8ac; stroke:none;" d="M505 1001L505 1002L516 1002L505 1001z"/>
<path style="fill:#779ca0; stroke:none;" d="M516 1001L516 1002L519 1002L516 1001z"/>
<path style="fill:#81a8ac; stroke:none;" d="M47 1005L46 1007L47 1005z"/>
<path style="fill:#779ca0; stroke:none;" d="M48.6667 1005.33L49.3333 1005.67L48.6667 1005.33z"/>
<path style="fill:#81a8ac; stroke:none;" d="M50 1005L52 1007L50 1005M499 1005L498 1007L499 1005z"/>
<path style="fill:#779ca0; stroke:none;" d="M500 1005L500 1006L503 1006L500 1005z"/>
<path style="fill:#81a8ac; stroke:none;" d="M503 1005L505 1007L503 1005M1504 1005L1491 1007L1491 1008C1494.29 1008 1504.19 1009.68 1504 1005z"/>
<path style="fill:#779ca0; stroke:none;" d="M1505.67 1005.33L1506.33 1005.67L1505.67 1005.33z"/>
<path style="fill:#81a8ac; stroke:none;" d="M1507 1005C1510.92 1010.44 1522.86 1008 1529 1008L1594 1008L1862 1008L1934 1008C1940.57 1008 1954.84 1010.77 1959 1005C1948.57 1009.42 1934.2 1007 1923 1007L1846 1007L1608 1007L1540 1007C1529.6 1007 1516.7 1009.11 1507 1005z"/>
<path style="fill:#779ca0; stroke:none;" d="M1959 1005L1959 1006L1962 1006L1959 1005z"/>
<path style="fill:#81a8ac; stroke:none;" d="M1962 1005L1965 1008L1962 1005z"/>
<path style="fill:#2b6265; stroke:none;" d="M44 1008L44 1484L519 1484L519 1008L185 1008L86 1008L44 1008z"/>
<path style="fill:#81a8ac; stroke:none;" d="M1008 1006L1007 1008L1008 1006z"/>
<path style="fill:#779ca0; stroke:none;" d="M1009 1006L1009 1007L1485 1007C1474.02 1002.39 1454.94 1006 1443 1006L1346 1006L1009 1006z"/>
<path style="fill:#81a8ac; stroke:none;" d="M1485 1006L1487 1008L1485 1006z"/>
<path style="fill:#2ba4a8; stroke:none;" d="M1490 1008L1490 1484L1966 1484L1966 1008L1924 1008L1825 1008L1490 1008z"/>
<path style="fill:#81a8ac; stroke:none;" d="M44 1007L45 1008L44 1007z"/>
<path style="fill:#779ca0; stroke:none;" d="M45.6667 1007.33L46.3333 1007.67L45.6667 1007.33M51 1007L51 1008L499 1008C488.496 1003.59 470.42 1007 459 1007L368 1007L51 1007M504 1007L504 1008L518 1008L504 1007z"/>
<path style="fill:#81a8ac; stroke:none;" d="M525 1007L524 1009L525 1007z"/>
<path style="fill:#779ca0; stroke:none;" d="M526 1007L526 1008L529 1008L526 1007z"/>
<path style="fill:#81a8ac; stroke:none;" d="M529 1007L529 1008L537 1008L529 1007z"/>
<path style="fill:#779ca0; stroke:none;" d="M537.667 1007.33L538.333 1007.67L537.667 1007.33z"/>
<path style="fill:#81a8ac; stroke:none;" d="M539 1007L539 1008L984 1008C973.734 1003.69 956.158 1007 945 1007L854 1007L539 1007z"/>
<path style="fill:#779ca0; stroke:none;" d="M984 1007L984 1008L987 1008L984 1007z"/>
<path style="fill:#81a8ac; stroke:none;" d="M987 1007L987 1008L1000 1008L987 1007z"/>
<path style="fill:#2b6265; stroke:none;" d="M1008 1007L1008 1329L1008 1434L1008 1485L1483 1485L1486 1482L1486 1007L1008 1007z"/>
<path style="fill:#81a8ac; stroke:none;" d="M43 1008L44 1009L43 1008z"/>
<path style="fill:#2b6265; stroke:none;" d="M525 1008L525 1484L1001 1484L1001 1008L525 1008z"/>
<path style="fill:#779ca0; stroke:none;" d="M1007 1008L1007 1473L1008 1473L1008 1144L1008 1049C1008 1037.32 1011.51 1018.74 1007 1008M1486 1008L1486 1481L1487 1481L1487 1146L1487 1050C1487 1038.06 1490.61 1018.98 1486 1008M43 1009L43 1483L44 1483L44 1147L44 1051C44 1039.06 47.6074 1019.98 43 1009M519 1009L519 1483L520 1483L520 1147L520 1051C520 1039.06 523.607 1019.98 519 1009M524 1009L524 1483L525 1483L525 1147L525 1051C525 1039.06 528.607 1019.98 524 1009M1001 1009L1001 1483L1002 1483L1002 1147L1002 1051C1002 1039.06 1005.61 1019.98 1001 1009z"/>
<path style="fill:#81a8ac; stroke:none;" d="M1489 1009L1489 1484L1490 1484L1490 1148L1490 1051C1490 1039.06 1493.61 1019.98 1489 1009M1966 1009L1966 1484L1967 1484L1967 1148L1967 1051C1967 1039.06 1970.61 1019.98 1966 1009M1006 1472L1007 1473L1006 1472M1005 1473L1006 1474L1005 1473z"/>
<path style="fill:#779ca0; stroke:none;" d="M1005 1474L1005 1479L1006 1479L1005 1474z"/>
<path style="fill:#81a8ac; stroke:none;" d="M1005 1479L1006 1480L1005 1479M1006 1480L1007 1481L1006 1480z"/>
<path style="fill:#779ca0; stroke:none;" d="M1007 1480L1007 1484L1008 1484L1007 1480z"/>
<path style="fill:#81a8ac; stroke:none;" d="M1486 1481L1487 1482L1486 1481M1483 1482L1484 1483L1483 1482z"/>
<path style="fill:#779ca0; stroke:none;" d="M1484 1482L1485 1483L1484 1482z"/>
<path style="fill:#81a8ac; stroke:none;" d="M1485 1482L1486 1483L1485 1482M43 1483L44 1484L43 1483M519 1483L520 1484L519 1483M524 1483L525 1484L524 1483M1001 1483L1002 1484L1001 1483z"/>
<path style="fill:#779ca0; stroke:none;" d="M1483 1483L1484 1484L1483 1483z"/>
<path style="fill:#81a8ac; stroke:none;" d="M44 1484L45 1485L44 1484z"/>
<path style="fill:#779ca0; stroke:none;" d="M45 1484L45 1485L518 1485C507.02 1480.39 487.944 1484 476 1484L380 1484L45 1484z"/>
<path style="fill:#81a8ac; stroke:none;" d="M518 1484L519 1485L518 1484M525 1484L526 1485L525 1484z"/>
<path style="fill:#779ca0; stroke:none;" d="M526 1484L526 1485L1000 1485C989.02 1480.39 969.944 1484 958 1484L862 1484L526 1484z"/>
<path style="fill:#81a8ac; stroke:none;" d="M1000 1484L1001 1485L1000 1484M1007 1484L1008 1485L1007 1484M1483 1484L1484 1485L1483 1484M1490 1484L1490 1485L1966 1485C1955.02 1480.39 1935.94 1484 1924 1484L1827 1484L1490 1484M1008 1485L1009 1486L1008 1485z"/>
<path style="fill:#779ca0; stroke:none;" d="M1009 1485L1009 1486L1482 1486C1471.02 1481.39 1451.94 1485 1440 1485L1344 1485L1009 1485z"/>
<path style="fill:#81a8ac; stroke:none;" d="M1482 1485L1483 1486L1482 1485M1489 1488L1488 1490L1489 1488z"/>
<path style="fill:#779ca0; stroke:none;" d="M1490 1488L1490 1489L1966 1489C1955.02 1484.39 1935.94 1488 1924 1488L1827 1488L1490 1488z"/>
<path style="fill:#81a8ac; stroke:none;" d="M1966 1488L1968 1490L1966 1488M44 1489L43 1491L44 1489z"/>
<path style="fill:#779ca0; stroke:none;" d="M45 1489L45 1490L518 1490C507.02 1485.39 487.944 1489 476 1489L380 1489L45 1489z"/>
<path style="fill:#81a8ac; stroke:none;" d="M518 1489L520 1491L518 1489M525 1489L524 1491L525 1489z"/>
<path style="fill:#779ca0; stroke:none;" d="M526 1489L526 1490L1000 1490C989.02 1485.39 969.944 1489 958 1489L862 1489L526 1489z"/>
<path style="fill:#81a8ac; stroke:none;" d="M1000 1489L1002 1491L1000 1489z"/>
<path style="fill:#779ca0; stroke:none;" d="M1010 1489L1010 1490L1484 1490C1473.02 1485.39 1453.94 1489 1442 1489L1346 1489L1010 1489z"/>
<path style="fill:#81a8ac; stroke:none;" d="M1484 1489L1486 1491L1484 1489z"/>
<path style="fill:#2b6265; stroke:none;" d="M1489 1489L1489 1966L1967 1966L1967 1489L1489 1489M44 1490L44 1965L519 1965L519 1490L44 1490M525 1490L525 1965L1001 1965L1001 1490L525 1490M1009 1490L1009 1824L1009 1923L1009 1965L1485 1965L1485 1490L1009 1490z"/>
<path style="fill:#779ca0; stroke:none;" d="M1488 1490L1488 1965L1489 1965L1489 1629L1489 1532C1489 1520.06 1492.61 1500.98 1488 1490M1967 1490L1967 1965L1968 1965L1968 1629L1968 1532C1968 1520.06 1971.61 1500.98 1967 1490M43 1491L43 1964L44 1964L44 1629L44 1533C44 1521.06 47.6074 1501.98 43 1491M519 1491L519 1964L520 1964L520 1629L520 1533C520 1521.06 523.607 1501.98 519 1491M524 1491L524 1964L525 1964L525 1629L525 1533C525 1521.06 528.607 1501.98 524 1491M1001 1491L1001 1964L1002 1964L1002 1629L1002 1533C1002 1521.06 1005.61 1501.98 1001 1491M1008 1491L1008 1958L1009 1958L1009 1627L1009 1532C1009 1520.32 1012.51 1501.74 1008 1491M1485 1491L1485 1964L1486 1964L1486 1629L1486 1533C1486 1521.06 1489.61 1501.98 1485 1491z"/>
<path style="fill:#81a8ac; stroke:none;" d="M1007 1957L1008 1958L1007 1957M1006 1958L1007 1959L1006 1958z"/>
<path style="fill:#779ca0; stroke:none;" d="M1006.33 1959.67L1006.67 1960.33L1006.33 1959.67z"/>
<path style="fill:#81a8ac; stroke:none;" d="M1006 1961L1007 1962L1006 1961M1007 1962L1008 1963L1007 1962z"/>
<path style="fill:#779ca0; stroke:none;" d="M1008.33 1962.67L1008.67 1963.33L1008.33 1962.67z"/>
<path style="fill:#81a8ac; stroke:none;" d="M43 1964L44 1965L43 1964M519 1964L520 1965L519 1964M524 1964L525 1965L524 1964M1001 1964L1002 1965L1001 1964M1008 1964L1009 1965L1008 1964M1485 1964L1486 1965L1485 1964M44 1965L45 1966L44 1965z"/>
<path style="fill:#779ca0; stroke:none;" d="M45 1965L45 1966L518 1966C507.02 1961.39 487.944 1965 476 1965L380 1965L45 1965z"/>
<path style="fill:#81a8ac; stroke:none;" d="M518 1965L519 1966L518 1965M525 1965L526 1966L525 1965z"/>
<path style="fill:#779ca0; stroke:none;" d="M526 1965L526 1966L1000 1966C989.02 1961.39 969.944 1965 958 1965L862 1965L526 1965z"/>
<path style="fill:#81a8ac; stroke:none;" d="M1000 1965L1001 1966L1000 1965M1009 1965L1010 1966L1009 1965z"/>
<path style="fill:#779ca0; stroke:none;" d="M1010 1965L1010 1966L1484 1966C1473.02 1961.39 1453.94 1965 1442 1965L1346 1965L1010 1965z"/>
<path style="fill:#81a8ac; stroke:none;" d="M1484 1965L1485 1966L1484 1965M1488 1965L1489 1966L1488 1965M1967 1965L1968 1966L1967 1965M1489 1966L1490 1967L1489 1966z"/>
<path style="fill:#779ca0; stroke:none;" d="M1490 1966L1490 1967L1966 1967C1955.02 1962.39 1935.94 1966 1924 1966L1827 1966L1490 1966z"/>
<path style="fill:#81a8ac; stroke:none;" d="M1966 1966L1967 1967L1966 1966M40 1967L41 1968L40 1967M41 1968L42 1969L41 1968z"/>
<path style="fill:#779ca0; stroke:none;" d="M41 1969C44.9809 1973.56 59.1667 1971 65 1971L134 1971L415 1971L1553 1971L1865 1971L1942 1971C1948.29 1971 1964.75 1973.86 1969 1969C1947.34 1974.16 1920.27 1970 1898 1970L1754 1970L1293 1970L437 1970L168 1970L84 1970C70.2708 1970 54.3831 1972.19 41 1969z"/>
</svg>
